<svg xmlns="http://www.w3.org/2000/svg" xmlns:xlink="http://www.w3.org/1999/xlink" width="1080" zoomAndPan="magnify" viewBox="0 0 810 809.999993" height="1080" preserveAspectRatio="xMidYMid meet" version="1.0"><defs><clipPath id="202aa3d559"><path d="M 308 221.996094 L 603 221.996094 L 603 421 L 308 421 Z M 308 221.996094 " clip-rule="nonzero"/></clipPath><clipPath id="c3c4d7454f"><path d="M 195.746094 425 L 612 425 L 612 587.996094 L 195.746094 587.996094 Z M 195.746094 425 " clip-rule="nonzero"/></clipPath></defs><g clip-path="url(#202aa3d559)"><path fill="#ffffff" d="M 308.035156 341.804688 L 308.035156 368.90625 C 308.035156 372.765625 311.191406 375.921875 315.050781 375.921875 L 371.710938 375.921875 C 371.359375 379.082031 371.183594 382.324219 371.183594 385.570312 L 371.183594 413.636719 C 371.183594 417.496094 374.34375 420.652344 378.199219 420.652344 L 532.566406 420.652344 C 536.425781 420.652344 539.582031 417.496094 539.582031 413.636719 L 539.582031 385.570312 C 539.582031 382.324219 539.40625 379.082031 539.054688 375.921875 L 595.714844 375.921875 C 599.574219 375.921875 602.730469 372.765625 602.730469 368.90625 L 602.730469 341.804688 C 602.730469 315.40625 585.539062 293.039062 561.769531 285.144531 C 568.4375 278.480469 572.472656 269.269531 572.472656 259.097656 C 572.472656 238.660156 555.808594 221.996094 535.371094 221.996094 C 515.375 221.996094 499.0625 237.871094 498.273438 257.605469 C 493.359375 237.171875 474.941406 221.996094 453.015625 221.996094 C 432.226562 221.996094 414.597656 235.59375 408.546875 254.449219 C 406.265625 236.207031 390.65625 221.996094 371.796875 221.996094 C 351.363281 221.996094 334.699219 238.660156 334.699219 259.097656 C 334.699219 269.710938 339.171875 279.359375 346.453125 286.109375 C 324 294.707031 308.035156 316.457031 308.035156 341.804688 Z M 588.695312 341.804688 L 588.695312 361.890625 L 536.160156 361.890625 C 529.933594 340.664062 515.550781 322.859375 496.605469 312.160156 C 505.199219 302.074219 517.832031 296.109375 531.335938 296.109375 L 543.089844 296.109375 C 568.261719 296.199219 588.695312 316.632812 588.695312 341.804688 Z M 535.371094 236.03125 C 548.089844 236.03125 558.4375 246.378906 558.4375 259.097656 C 558.4375 271.816406 548.089844 282.164062 535.371094 282.164062 C 522.652344 282.164062 512.304688 271.816406 512.304688 259.097656 C 512.304688 246.378906 522.652344 236.03125 535.371094 236.03125 Z M 499.675781 269.097656 C 501.515625 275.675781 505.113281 281.550781 510.023438 286.109375 C 499.585938 290.144531 490.378906 296.988281 483.535156 306.195312 C 482.921875 305.933594 482.308594 305.757812 481.695312 305.582031 C 492.484375 297.074219 499.585938 283.917969 499.675781 269.097656 Z M 453.015625 236.03125 C 470.996094 236.03125 485.730469 250.675781 485.730469 268.746094 C 485.730469 286.8125 471.082031 301.460938 453.015625 301.460938 C 434.949219 301.460938 420.300781 286.726562 420.300781 268.746094 C 420.300781 250.765625 434.949219 236.03125 453.015625 236.03125 Z M 455.382812 315.40625 C 494.0625 315.40625 525.546875 346.890625 525.546875 385.570312 L 525.546875 406.621094 L 385.21875 406.621094 L 385.21875 385.570312 C 385.21875 346.890625 416.703125 315.40625 455.382812 315.40625 Z M 406.441406 272.164062 C 406.96875 279.445312 409.160156 286.285156 412.667969 292.25 C 408.195312 289.179688 403.285156 286.8125 398.109375 285.144531 C 401.707031 281.460938 404.601562 277.078125 406.441406 272.164062 Z M 371.710938 236.03125 C 384.429688 236.03125 394.777344 246.378906 394.777344 259.097656 C 394.777344 271.816406 384.429688 282.164062 371.710938 282.164062 C 358.992188 282.164062 348.644531 271.816406 348.644531 259.097656 C 348.644531 246.378906 358.992188 236.03125 371.710938 236.03125 Z M 367.675781 296.199219 L 379.429688 296.199219 C 392.9375 296.199219 405.476562 302.074219 414.160156 312.246094 C 395.214844 322.949219 380.832031 340.753906 374.605469 361.976562 L 322.070312 361.976562 L 322.070312 341.890625 C 322.070312 316.632812 342.503906 296.199219 367.675781 296.199219 Z M 367.675781 296.199219 " fill-opacity="1" fill-rule="nonzero"/></g><g clip-path="url(#c3c4d7454f)"><path fill="#ffffff" d="M 261.023438 425.476562 L 202.789062 425.476562 C 198.929688 425.476562 195.769531 428.632812 195.769531 432.492188 L 195.769531 562.300781 C 195.769531 566.160156 198.929688 569.316406 202.789062 569.316406 L 261.023438 569.316406 C 264.882812 569.316406 268.042969 566.160156 268.042969 562.300781 L 268.042969 551.160156 L 296.109375 551.160156 L 379.339844 577.558594 C 398.199219 584.578125 414.074219 587.996094 429.859375 587.996094 C 445.734375 587.996094 461.609375 584.488281 480.554688 577.472656 C 481.257812 577.210938 481.957031 576.859375 482.570312 576.332031 L 604.484375 476.875 C 604.835938 476.523438 605.1875 476.171875 605.535156 475.820312 C 614.21875 465.03125 613.78125 448.542969 604.484375 438.28125 C 595.273438 428.019531 580.453125 426.96875 570.101562 435.914062 L 509.234375 485.117188 C 509.234375 484.503906 509.234375 483.890625 509.234375 483.277344 C 508.972656 468.628906 497.480469 456.613281 483.535156 456.613281 L 415.914062 456.613281 C 412.054688 456.613281 408.371094 454.332031 406.089844 450.5625 C 405.566406 449.773438 404.953125 449.070312 404.164062 448.457031 C 375.480469 427.667969 339.257812 423.722656 307.421875 437.929688 L 295.667969 443.195312 L 268.042969 443.195312 L 268.042969 432.492188 C 268.042969 428.632812 264.972656 425.476562 261.023438 425.476562 Z M 230.855469 544.757812 C 226.996094 544.757812 223.835938 541.601562 223.835938 537.742188 C 223.835938 533.882812 226.996094 530.726562 230.855469 530.726562 C 234.714844 530.726562 237.871094 533.882812 237.871094 537.742188 C 237.871094 541.601562 234.714844 544.757812 230.855469 544.757812 Z M 254.007812 450.296875 L 254.007812 555.28125 L 242.519531 555.28125 C 248.132812 551.511719 251.902344 545.109375 251.902344 537.742188 C 251.902344 526.164062 242.429688 516.691406 230.855469 516.691406 C 219.277344 516.691406 209.804688 526.164062 209.804688 537.742188 C 209.804688 545.019531 213.574219 551.511719 219.1875 555.28125 L 209.804688 555.28125 L 209.804688 439.511719 L 254.007812 439.511719 Z M 297.246094 457.3125 C 298.210938 457.3125 299.175781 457.140625 300.054688 456.699219 L 313.210938 450.824219 C 340.046875 438.894531 370.484375 442.054688 394.953125 459.15625 C 399.863281 466.4375 407.582031 470.644531 416.003906 470.644531 L 483.625 470.644531 C 489.9375 470.644531 495.203125 476.433594 495.289062 483.449219 C 495.378906 487.398438 493.972656 491.082031 491.429688 493.625 C 490.203125 494.851562 488.710938 495.816406 487.21875 496.34375 C 485.203125 496.695312 483.1875 496.871094 481.167969 496.871094 L 405.917969 496.871094 C 402.058594 496.871094 398.898438 500.027344 398.898438 503.886719 C 398.898438 507.746094 402.058594 510.902344 405.917969 510.902344 L 484.324219 510.902344 C 486.429688 510.902344 488.535156 510.640625 490.554688 510.113281 C 499.324219 508.535156 507.570312 504.675781 514.847656 498.886719 L 579.226562 446.789062 C 579.3125 446.703125 579.3125 446.703125 579.398438 446.613281 C 583.960938 442.667969 590.1875 443.195312 594.308594 447.667969 C 598.871094 452.667969 599.222656 461 595.1875 466.523438 L 474.855469 564.753906 C 440.824219 577.210938 418.632812 577.035156 384.339844 564.316406 C 384.253906 564.316406 384.164062 564.230469 383.988281 564.230469 L 299.617188 537.390625 C 298.914062 537.214844 298.210938 537.039062 297.511719 537.039062 L 268.042969 537.039062 L 268.042969 457.226562 L 297.246094 457.226562 Z M 297.246094 457.3125 " fill-opacity="1" fill-rule="nonzero"/></g></svg>