<svg xmlns="http://www.w3.org/2000/svg" xmlns:xlink="http://www.w3.org/1999/xlink" width="1080" zoomAndPan="magnify" viewBox="0 0 810 809.999993" height="1080" preserveAspectRatio="xMidYMid meet" version="1.0"><defs><clipPath id="5c031aee59"><path d="M 315 243 L 495.503906 243 L 495.503906 567 L 315 567 Z M 315 243 " clip-rule="nonzero"/></clipPath></defs><g clip-path="url(#5c031aee59)"><path fill="#ffffff" d="M 487.523438 501.203125 C 491.535156 496.855469 494.046875 490.457031 495.003906 482.183594 C 495.402344 478.691406 495.503906 475.191406 495.300781 471.683594 L 495.300781 398.941406 C 495.300781 398.289062 495.265625 397.640625 495.203125 396.992188 C 495.136719 396.34375 495.042969 395.703125 494.914062 395.0625 C 494.785156 394.425781 494.628906 393.796875 494.4375 393.171875 C 494.246094 392.550781 494.027344 391.9375 493.777344 391.335938 C 493.527344 390.734375 493.25 390.148438 492.941406 389.574219 C 492.632812 389 492.300781 388.441406 491.9375 387.902344 C 491.574219 387.359375 491.1875 386.835938 490.773438 386.335938 C 490.359375 385.832031 489.921875 385.351562 489.460938 384.890625 C 489 384.429688 488.515625 383.992188 488.011719 383.578125 C 487.507812 383.167969 486.984375 382.78125 486.445312 382.417969 C 485.902344 382.054688 485.34375 381.722656 484.769531 381.414062 C 484.195312 381.109375 483.605469 380.828125 483.003906 380.578125 C 482.402344 380.332031 481.789062 380.109375 481.164062 379.921875 C 480.542969 379.734375 479.910156 379.574219 479.269531 379.445312 C 478.632812 379.320312 477.988281 379.222656 477.339844 379.160156 C 476.691406 379.09375 476.039062 379.0625 475.386719 379.0625 L 475.300781 379.0625 C 473.414062 379.058594 471.566406 379.320312 469.753906 379.84375 C 467.941406 380.371094 466.238281 381.140625 464.648438 382.152344 C 464.3125 381.171875 463.90625 380.226562 463.425781 379.3125 C 462.945312 378.398438 462.398438 377.527344 461.78125 376.699219 C 461.164062 375.871094 460.488281 375.09375 459.75 374.371094 C 459.015625 373.648438 458.226562 372.984375 457.386719 372.382812 C 456.542969 371.785156 455.664062 371.25 454.738281 370.785156 C 453.816406 370.320312 452.863281 369.929688 451.878906 369.613281 C 450.894531 369.296875 449.894531 369.058594 448.871094 368.898438 C 447.851562 368.738281 446.824219 368.65625 445.789062 368.65625 L 445.703125 368.65625 C 444.3125 368.65625 442.9375 368.800781 441.578125 369.085938 C 440.214844 369.375 438.902344 369.800781 437.628906 370.363281 C 436.359375 370.929688 435.160156 371.617188 434.035156 372.433594 C 432.910156 373.25 431.878906 374.171875 430.949219 375.203125 C 430.84375 375.085938 430.738281 374.972656 430.628906 374.859375 C 431.800781 373.882812 432.824219 372.777344 433.703125 371.53125 C 434.582031 370.289062 435.28125 368.953125 435.804688 367.523438 C 436.328125 366.097656 436.660156 364.625 436.792969 363.109375 C 436.929688 361.59375 436.863281 360.085938 436.601562 358.589844 L 432.5 334.714844 C 432.300781 333.5625 432.382812 332.433594 432.746094 331.324219 C 433.105469 330.210938 433.707031 329.25 434.542969 328.433594 L 451.910156 311.527344 C 453.070312 310.394531 454.054688 309.125 454.863281 307.71875 C 455.667969 306.3125 456.269531 304.820312 456.65625 303.246094 C 457.046875 301.671875 457.210938 300.074219 457.152344 298.453125 C 457.09375 296.832031 456.8125 295.25 456.3125 293.707031 C 455.808594 292.164062 455.105469 290.71875 454.199219 289.375 C 453.292969 288.027344 452.21875 286.832031 450.976562 285.789062 C 449.734375 284.742188 448.371094 283.886719 446.890625 283.222656 C 445.410156 282.554688 443.867188 282.105469 442.257812 281.871094 L 418.253906 278.386719 C 417.097656 278.21875 416.046875 277.792969 415.101562 277.109375 C 414.152344 276.421875 413.421875 275.554688 412.90625 274.507812 L 402.179688 252.785156 C 401.460938 251.332031 400.554688 250.003906 399.464844 248.800781 C 398.371094 247.597656 397.136719 246.570312 395.757812 245.710938 C 394.375 244.855469 392.90625 244.203125 391.34375 243.757812 C 389.78125 243.3125 388.1875 243.089844 386.5625 243.089844 C 384.9375 243.089844 383.34375 243.3125 381.78125 243.757812 C 380.21875 244.203125 378.746094 244.855469 377.367188 245.710938 C 375.984375 246.570312 374.75 247.597656 373.660156 248.800781 C 372.566406 250.003906 371.660156 251.332031 370.941406 252.785156 L 360.21875 274.503906 C 359.699219 275.550781 358.964844 276.417969 358.015625 277.105469 C 357.070312 277.792969 356.015625 278.21875 354.855469 278.386719 L 330.855469 281.871094 C 329.246094 282.105469 327.703125 282.554688 326.21875 283.21875 C 324.738281 283.882812 323.378906 284.738281 322.136719 285.785156 C 320.894531 286.832031 319.820312 288.027344 318.914062 289.371094 C 318.007812 290.71875 317.300781 292.160156 316.800781 293.703125 C 316.296875 295.246094 316.019531 296.828125 315.960938 298.449219 C 315.902344 300.070312 316.066406 301.667969 316.453125 303.242188 C 316.84375 304.816406 317.441406 306.308594 318.246094 307.714844 C 319.054688 309.125 320.039062 310.394531 321.203125 311.527344 L 338.570312 328.433594 C 339.410156 329.25 340.007812 330.210938 340.367188 331.320312 C 340.730469 332.429688 340.8125 333.5625 340.613281 334.710938 L 336.511719 358.585938 C 336.238281 360.183594 336.191406 361.789062 336.367188 363.402344 C 336.542969 365.015625 336.9375 366.574219 337.550781 368.078125 C 338.164062 369.578125 338.96875 370.96875 339.972656 372.246094 C 340.972656 373.523438 342.132812 374.636719 343.445312 375.589844 C 344.761719 376.542969 346.179688 377.300781 347.707031 377.855469 C 349.234375 378.414062 350.804688 378.75 352.425781 378.867188 C 354.046875 378.984375 355.652344 378.875 357.242188 378.542969 C 358.832031 378.214844 360.347656 377.667969 361.785156 376.914062 L 366.605469 374.382812 L 366.605469 398.804688 C 363.019531 396.859375 358.871094 396.148438 354.523438 396.777344 C 349.40625 397.523438 344.246094 400.074219 339.996094 403.941406 C 335.253906 408.265625 332.328125 414.277344 331.289062 421.820312 C 330.523438 427.382812 330.796875 433.617188 332.101562 440.355469 C 334.300781 451.730469 338.464844 468.160156 345.820312 481.859375 C 349.945312 489.542969 354.6875 495.613281 359.90625 499.894531 C 361.496094 501.203125 363.179688 502.375 364.960938 503.40625 C 363.886719 504.765625 363.066406 506.261719 362.5 507.894531 C 361.929688 509.53125 361.648438 511.214844 361.648438 512.945312 L 361.648438 551.457031 C 361.648438 552.46875 361.75 553.472656 361.949219 554.46875 C 362.144531 555.460938 362.441406 556.425781 362.828125 557.363281 C 363.21875 558.300781 363.695312 559.191406 364.257812 560.03125 C 364.824219 560.875 365.464844 561.65625 366.183594 562.371094 C 366.902344 563.089844 367.683594 563.730469 368.527344 564.292969 C 369.371094 564.855469 370.261719 565.332031 371.199219 565.722656 C 372.136719 566.109375 373.101562 566.402344 374.097656 566.601562 C 375.09375 566.800781 376.101562 566.902344 377.117188 566.902344 L 474.875 566.902344 C 475.890625 566.902344 476.894531 566.800781 477.890625 566.601562 C 478.886719 566.402344 479.851562 566.109375 480.789062 565.722656 C 481.730469 565.332031 482.621094 564.855469 483.464844 564.292969 C 484.308594 563.730469 485.089844 563.089844 485.808594 562.371094 C 486.523438 561.65625 487.164062 560.875 487.730469 560.03125 C 488.292969 559.191406 488.769531 558.300781 489.160156 557.363281 C 489.550781 556.425781 489.84375 555.460938 490.042969 554.46875 C 490.242188 553.472656 490.339844 552.46875 490.34375 551.457031 L 490.34375 512.945312 C 490.34375 511 489.988281 509.125 489.277344 507.316406 C 488.570312 505.507812 487.550781 503.894531 486.230469 502.46875 C 486.675781 502.078125 487.105469 501.65625 487.523438 501.203125 Z M 356.992188 367.816406 C 356.402344 368.125 355.785156 368.347656 355.136719 368.480469 C 354.488281 368.617188 353.832031 368.660156 353.171875 368.613281 C 352.511719 368.566406 351.871094 368.429688 351.246094 368.199219 C 350.625 367.972656 350.042969 367.664062 349.507812 367.277344 C 348.972656 366.886719 348.5 366.433594 348.089844 365.910156 C 347.679688 365.390625 347.351562 364.824219 347.101562 364.210938 C 346.851562 363.597656 346.691406 362.960938 346.617188 362.304688 C 346.546875 361.644531 346.566406 360.992188 346.679688 360.339844 L 350.78125 336.464844 C 351.019531 335.074219 351.085938 333.675781 350.984375 332.269531 C 350.882812 330.863281 350.613281 329.492188 350.179688 328.152344 C 349.742188 326.808594 349.152344 325.539062 348.40625 324.34375 C 347.660156 323.144531 346.78125 322.054688 345.769531 321.070312 L 328.402344 304.164062 C 327.925781 303.703125 327.523438 303.183594 327.195312 302.609375 C 326.867188 302.035156 326.621094 301.425781 326.460938 300.785156 C 326.304688 300.140625 326.234375 299.488281 326.261719 298.828125 C 326.285156 298.167969 326.398438 297.523438 326.601562 296.890625 C 326.808594 296.261719 327.09375 295.671875 327.464844 295.125 C 327.835938 294.574219 328.273438 294.085938 328.78125 293.660156 C 329.289062 293.234375 329.84375 292.886719 330.449219 292.613281 C 331.050781 292.34375 331.683594 292.160156 332.339844 292.066406 L 356.339844 288.582031 C 357.738281 288.378906 359.089844 288.011719 360.398438 287.480469 C 361.707031 286.949219 362.929688 286.269531 364.074219 285.441406 C 365.214844 284.609375 366.242188 283.65625 367.152344 282.582031 C 368.0625 281.503906 368.832031 280.332031 369.457031 279.066406 L 380.179688 257.347656 C 380.472656 256.753906 380.84375 256.210938 381.289062 255.722656 C 381.734375 255.230469 382.238281 254.8125 382.800781 254.460938 C 383.363281 254.113281 383.964844 253.847656 384.601562 253.664062 C 385.238281 253.484375 385.890625 253.390625 386.550781 253.390625 C 387.214844 253.390625 387.867188 253.484375 388.503906 253.664062 C 389.140625 253.847656 389.742188 254.113281 390.304688 254.460938 C 390.867188 254.8125 391.371094 255.230469 391.816406 255.722656 C 392.261719 256.210938 392.628906 256.753906 392.925781 257.347656 L 403.648438 279.070312 C 404.273438 280.335938 405.042969 281.503906 405.953125 282.582031 C 406.863281 283.660156 407.886719 284.613281 409.03125 285.441406 C 410.171875 286.269531 411.398438 286.953125 412.707031 287.480469 C 414.011719 288.011719 415.367188 288.378906 416.761719 288.582031 L 440.769531 292.066406 C 441.425781 292.164062 442.054688 292.34375 442.660156 292.617188 C 443.261719 292.886719 443.820312 293.238281 444.324219 293.664062 C 444.832031 294.089844 445.269531 294.578125 445.640625 295.128906 C 446.011719 295.675781 446.296875 296.265625 446.503906 296.894531 C 446.707031 297.523438 446.820312 298.171875 446.84375 298.832031 C 446.867188 299.492188 446.800781 300.144531 446.640625 300.789062 C 446.484375 301.429688 446.238281 302.039062 445.910156 302.613281 C 445.578125 303.1875 445.179688 303.703125 444.703125 304.167969 L 427.335938 321.074219 C 426.328125 322.054688 425.449219 323.148438 424.703125 324.34375 C 423.957031 325.542969 423.367188 326.8125 422.929688 328.152344 C 422.492188 329.492188 422.222656 330.867188 422.121094 332.273438 C 422.019531 333.679688 422.089844 335.078125 422.328125 336.46875 L 426.429688 360.339844 C 426.539062 360.992188 426.5625 361.648438 426.488281 362.308594 C 426.417969 362.964844 426.257812 363.601562 426.007812 364.214844 C 425.757812 364.828125 425.429688 365.394531 425.019531 365.917969 C 424.609375 366.4375 424.136719 366.894531 423.601562 367.28125 C 423.066406 367.671875 422.484375 367.980469 421.863281 368.207031 C 421.238281 368.433594 420.597656 368.570312 419.9375 368.621094 C 419.273438 368.667969 418.617188 368.621094 417.96875 368.488281 C 417.320312 368.351562 416.703125 368.128906 416.117188 367.820312 L 406.496094 362.769531 L 406.496094 356.128906 C 406.496094 355.476562 406.464844 354.828125 406.398438 354.179688 C 406.335938 353.535156 406.238281 352.890625 406.109375 352.253906 C 405.984375 351.613281 405.824219 350.984375 405.632812 350.359375 C 405.445312 349.738281 405.226562 349.125 404.976562 348.523438 C 404.726562 347.921875 404.445312 347.335938 404.140625 346.761719 C 403.832031 346.1875 403.496094 345.628906 403.132812 345.089844 C 402.773438 344.546875 402.382812 344.027344 401.972656 343.523438 C 401.558594 343.019531 401.121094 342.539062 400.660156 342.078125 C 400.199219 341.617188 399.714844 341.179688 399.210938 340.769531 C 398.707031 340.355469 398.183594 339.96875 397.644531 339.605469 C 397.101562 339.246094 396.542969 338.910156 395.96875 338.601562 C 395.394531 338.296875 394.804688 338.019531 394.203125 337.769531 C 393.601562 337.519531 392.988281 337.300781 392.363281 337.109375 C 391.742188 336.921875 391.109375 336.761719 390.472656 336.632812 C 389.832031 336.507812 389.1875 336.410156 388.539062 336.347656 C 387.890625 336.28125 387.238281 336.25 386.589844 336.25 L 386.5 336.25 C 385.847656 336.25 385.199219 336.28125 384.550781 336.347656 C 383.898438 336.410156 383.257812 336.507812 382.617188 336.632812 C 381.976562 336.761719 381.347656 336.921875 380.722656 337.109375 C 380.097656 337.300781 379.488281 337.519531 378.882812 337.769531 C 378.28125 338.019531 377.695312 338.296875 377.121094 338.601562 C 376.542969 338.910156 375.984375 339.246094 375.445312 339.605469 C 374.902344 339.96875 374.378906 340.355469 373.875 340.769531 C 373.371094 341.179688 372.890625 341.617188 372.429688 342.078125 C 371.96875 342.539062 371.53125 343.019531 371.117188 343.523438 C 370.703125 344.027344 370.316406 344.546875 369.953125 345.089844 C 369.589844 345.628906 369.257812 346.1875 368.949219 346.761719 C 368.640625 347.335938 368.363281 347.921875 368.113281 348.523438 C 367.863281 349.125 367.644531 349.738281 367.453125 350.359375 C 367.265625 350.984375 367.105469 351.613281 366.976562 352.253906 C 366.851562 352.890625 366.753906 353.535156 366.6875 354.179688 C 366.625 354.828125 366.59375 355.476562 366.589844 356.128906 L 366.589844 362.769531 Z M 342.230469 438.425781 C 340.847656 431.265625 339.617188 418.242188 346.953125 411.5625 C 350.375 408.441406 358.296875 403.972656 363.734375 409.410156 L 363.832031 409.507812 C 364.277344 409.953125 364.671875 410.4375 365.015625 410.960938 C 365.363281 411.484375 365.65625 412.035156 365.894531 412.617188 C 366.132812 413.195312 366.3125 413.792969 366.433594 414.410156 C 366.550781 415.023438 366.613281 415.648438 366.609375 416.273438 C 366.609375 416.902344 366.546875 417.523438 366.421875 418.136719 C 366.296875 418.753906 366.117188 419.347656 365.875 419.929688 C 365.632812 420.507812 365.339844 421.058594 364.988281 421.578125 C 364.640625 422.101562 364.242188 422.582031 363.796875 423.027344 C 363.5625 423.265625 363.347656 423.527344 363.164062 423.808594 C 362.976562 424.089844 362.820312 424.386719 362.691406 424.699219 C 362.5625 425.007812 362.464844 425.332031 362.402344 425.660156 C 362.335938 425.992188 362.304688 426.328125 362.304688 426.664062 C 362.304688 427 362.339844 427.335938 362.40625 427.664062 C 362.472656 427.996094 362.570312 428.316406 362.699219 428.628906 C 362.828125 428.941406 362.988281 429.234375 363.175781 429.515625 C 363.363281 429.796875 363.578125 430.054688 363.816406 430.292969 C 364.054688 430.53125 364.316406 430.746094 364.597656 430.933594 C 364.875 431.121094 365.171875 431.277344 365.484375 431.40625 C 365.796875 431.535156 366.117188 431.632812 366.449219 431.699219 C 366.78125 431.765625 367.113281 431.800781 367.453125 431.800781 C 367.789062 431.800781 368.125 431.769531 368.457031 431.703125 C 368.789062 431.636719 369.109375 431.542969 369.421875 431.414062 C 369.734375 431.285156 370.03125 431.128906 370.3125 430.941406 C 370.59375 430.753906 370.855469 430.542969 371.09375 430.304688 C 372.019531 429.382812 372.847656 428.382812 373.574219 427.296875 C 374.300781 426.210938 374.917969 425.066406 375.417969 423.859375 C 375.917969 422.65625 376.292969 421.410156 376.546875 420.128906 C 376.800781 418.851562 376.925781 417.554688 376.921875 416.25 C 376.921875 415.667969 376.894531 415.089844 376.84375 414.515625 C 376.894531 414.226562 376.921875 413.9375 376.921875 413.640625 L 376.921875 356.125 C 376.921875 355.496094 376.984375 354.875 377.109375 354.257812 C 377.230469 353.640625 377.414062 353.042969 377.65625 352.460938 C 377.898438 351.878906 378.191406 351.328125 378.542969 350.804688 C 378.894531 350.28125 379.289062 349.800781 379.734375 349.355469 C 380.183594 348.910156 380.667969 348.511719 381.191406 348.164062 C 381.714844 347.8125 382.265625 347.519531 382.847656 347.277344 C 383.429688 347.035156 384.03125 346.855469 384.648438 346.730469 C 385.265625 346.605469 385.886719 346.546875 386.519531 346.542969 L 386.605469 346.542969 C 387.238281 346.546875 387.859375 346.605469 388.476562 346.730469 C 389.097656 346.855469 389.695312 347.035156 390.277344 347.277344 C 390.859375 347.519531 391.410156 347.8125 391.933594 348.164062 C 392.460938 348.511719 392.945312 348.910156 393.390625 349.355469 C 393.835938 349.800781 394.230469 350.28125 394.582031 350.804688 C 394.933594 351.328125 395.226562 351.878906 395.46875 352.460938 C 395.710938 353.042969 395.894531 353.640625 396.015625 354.257812 C 396.140625 354.875 396.203125 355.496094 396.203125 356.125 L 396.203125 418.84375 C 396.203125 419.183594 396.238281 419.515625 396.300781 419.847656 C 396.367188 420.179688 396.464844 420.503906 396.597656 420.8125 C 396.726562 421.125 396.882812 421.421875 397.074219 421.703125 C 397.261719 421.984375 397.472656 422.246094 397.714844 422.484375 C 397.953125 422.722656 398.214844 422.9375 398.496094 423.125 C 398.777344 423.3125 399.074219 423.472656 399.386719 423.601562 C 399.699219 423.730469 400.023438 423.828125 400.355469 423.894531 C 400.6875 423.960938 401.019531 423.992188 401.359375 423.992188 C 401.699219 423.992188 402.035156 423.960938 402.367188 423.894531 C 402.699219 423.828125 403.019531 423.730469 403.332031 423.601562 C 403.644531 423.472656 403.941406 423.3125 404.222656 423.125 C 404.503906 422.9375 404.765625 422.722656 405.003906 422.484375 C 405.246094 422.246094 405.457031 421.984375 405.648438 421.703125 C 405.835938 421.421875 405.992188 421.125 406.121094 420.8125 C 406.253906 420.503906 406.351562 420.179688 406.417969 419.847656 C 406.484375 419.515625 406.515625 419.183594 406.515625 418.84375 L 406.515625 388.535156 C 406.515625 387.90625 406.578125 387.28125 406.703125 386.667969 C 406.824219 386.050781 407.007812 385.449219 407.25 384.871094 C 407.492188 384.289062 407.785156 383.738281 408.136719 383.214844 C 408.488281 382.691406 408.882812 382.207031 409.328125 381.761719 C 409.773438 381.316406 410.257812 380.921875 410.785156 380.570312 C 411.308594 380.222656 411.859375 379.925781 412.441406 379.683594 C 413.023438 379.445312 413.621094 379.261719 414.242188 379.136719 C 414.859375 379.015625 415.480469 378.953125 416.113281 378.953125 L 416.199219 378.953125 C 416.832031 378.953125 417.453125 379.015625 418.070312 379.140625 C 418.6875 379.261719 419.289062 379.445312 419.871094 379.6875 C 420.453125 379.925781 421.003906 380.222656 421.527344 380.570312 C 422.050781 380.921875 422.535156 381.320312 422.980469 381.765625 C 423.425781 382.207031 423.824219 382.691406 424.171875 383.214844 C 424.523438 383.738281 424.816406 384.289062 425.058594 384.871094 C 425.300781 385.453125 425.484375 386.050781 425.605469 386.667969 C 425.730469 387.285156 425.792969 387.90625 425.792969 388.535156 L 425.792969 418.835938 C 425.792969 419.175781 425.824219 419.511719 425.890625 419.84375 C 425.957031 420.175781 426.054688 420.496094 426.183594 420.808594 C 426.316406 421.121094 426.472656 421.417969 426.660156 421.699219 C 426.851562 421.980469 427.0625 422.238281 427.304688 422.476562 C 427.542969 422.71875 427.804688 422.929688 428.085938 423.117188 C 428.367188 423.304688 428.664062 423.464844 428.976562 423.59375 C 429.289062 423.722656 429.609375 423.820312 429.941406 423.886719 C 430.273438 423.953125 430.609375 423.988281 430.949219 423.988281 C 431.289062 423.988281 431.621094 423.953125 431.953125 423.886719 C 432.285156 423.820312 432.609375 423.722656 432.921875 423.59375 C 433.234375 423.464844 433.53125 423.304688 433.8125 423.117188 C 434.09375 422.929688 434.355469 422.71875 434.59375 422.476562 C 434.835938 422.238281 435.046875 421.980469 435.234375 421.699219 C 435.425781 421.417969 435.582031 421.121094 435.710938 420.808594 C 435.84375 420.496094 435.941406 420.175781 436.003906 419.84375 C 436.070312 419.511719 436.105469 419.175781 436.105469 418.835938 L 436.105469 388.535156 C 436.105469 387.90625 436.167969 387.28125 436.292969 386.664062 C 436.414062 386.046875 436.597656 385.449219 436.839844 384.867188 C 437.082031 384.289062 437.375 383.734375 437.726562 383.210938 C 438.078125 382.691406 438.476562 382.207031 438.921875 381.761719 C 439.367188 381.316406 439.851562 380.917969 440.375 380.570312 C 440.898438 380.21875 441.453125 379.925781 442.035156 379.683594 C 442.617188 379.441406 443.214844 379.261719 443.832031 379.136719 C 444.453125 379.015625 445.074219 378.953125 445.707031 378.953125 L 445.792969 378.953125 C 446.421875 378.953125 447.046875 379.015625 447.664062 379.136719 C 448.28125 379.261719 448.882812 379.441406 449.464844 379.683594 C 450.046875 379.925781 450.597656 380.21875 451.121094 380.570312 C 451.648438 380.917969 452.132812 381.316406 452.578125 381.761719 C 453.023438 382.207031 453.421875 382.691406 453.769531 383.210938 C 454.121094 383.734375 454.417969 384.289062 454.660156 384.867188 C 454.898438 385.449219 455.082031 386.046875 455.207031 386.664062 C 455.328125 387.28125 455.390625 387.90625 455.394531 388.535156 L 455.394531 418.835938 C 455.394531 419.175781 455.425781 419.511719 455.492188 419.84375 C 455.558594 420.175781 455.65625 420.496094 455.785156 420.808594 C 455.914062 421.121094 456.074219 421.417969 456.261719 421.699219 C 456.449219 421.980469 456.664062 422.238281 456.902344 422.476562 C 457.140625 422.71875 457.402344 422.929688 457.683594 423.117188 C 457.964844 423.304688 458.261719 423.464844 458.574219 423.59375 C 458.886719 423.722656 459.210938 423.820312 459.542969 423.886719 C 459.875 423.953125 460.210938 423.988281 460.546875 423.988281 C 460.886719 423.988281 461.222656 423.953125 461.554688 423.886719 C 461.886719 423.820312 462.207031 423.722656 462.523438 423.59375 C 462.835938 423.464844 463.132812 423.304688 463.414062 423.117188 C 463.695312 422.929688 463.957031 422.71875 464.195312 422.476562 C 464.433594 422.238281 464.648438 421.980469 464.835938 421.699219 C 465.023438 421.417969 465.183594 421.121094 465.3125 420.808594 C 465.441406 420.496094 465.539062 420.175781 465.605469 419.84375 C 465.671875 419.511719 465.703125 419.175781 465.703125 418.835938 L 465.703125 398.933594 C 465.707031 398.304688 465.769531 397.683594 465.890625 397.066406 C 466.015625 396.449219 466.199219 395.851562 466.4375 395.269531 C 466.679688 394.6875 466.976562 394.136719 467.328125 393.613281 C 467.675781 393.089844 468.074219 392.605469 468.519531 392.160156 C 468.964844 391.714844 469.449219 391.320312 469.976562 390.96875 C 470.5 390.621094 471.050781 390.324219 471.632812 390.082031 C 472.214844 389.84375 472.816406 389.660156 473.433594 389.539062 C 474.050781 389.414062 474.675781 389.351562 475.304688 389.351562 L 475.390625 389.351562 C 476.023438 389.351562 476.644531 389.414062 477.265625 389.539062 C 477.882812 389.660156 478.480469 389.84375 479.0625 390.082031 C 479.644531 390.324219 480.199219 390.621094 480.722656 390.96875 C 481.246094 391.320312 481.730469 391.714844 482.175781 392.160156 C 482.621094 392.605469 483.019531 393.089844 483.371094 393.613281 C 483.722656 394.136719 484.015625 394.6875 484.257812 395.269531 C 484.5 395.851562 484.683594 396.449219 484.804688 397.066406 C 484.929688 397.683594 484.992188 398.304688 484.992188 398.933594 L 484.992188 472.066406 L 485.007812 472.273438 C 485.355469 476.472656 485.121094 488.601562 479.945312 494.21875 C 478.097656 496.21875 475.820312 497.152344 472.785156 497.152344 L 425.039062 497.507812 L 381.199219 497.507812 C 356.332031 497.519531 345.648438 456.191406 342.222656 438.425781 Z M 480.035156 551.476562 C 480.035156 551.8125 480 552.148438 479.933594 552.480469 C 479.871094 552.8125 479.769531 553.132812 479.640625 553.445312 C 479.511719 553.757812 479.351562 554.054688 479.164062 554.335938 C 478.976562 554.617188 478.761719 554.878906 478.523438 555.117188 C 478.285156 555.355469 478.023438 555.570312 477.742188 555.757812 C 477.460938 555.945312 477.164062 556.101562 476.851562 556.234375 C 476.539062 556.363281 476.214844 556.460938 475.882812 556.527344 C 475.550781 556.589844 475.21875 556.625 474.878906 556.625 L 377.121094 556.625 C 376.78125 556.625 376.445312 556.589844 376.113281 556.527344 C 375.78125 556.460938 375.460938 556.363281 375.148438 556.234375 C 374.832031 556.101562 374.535156 555.945312 374.253906 555.757812 C 373.972656 555.570312 373.714844 555.355469 373.472656 555.117188 C 373.234375 554.878906 373.019531 554.617188 372.832031 554.335938 C 372.644531 554.054688 372.484375 553.757812 372.355469 553.445312 C 372.226562 553.132812 372.128906 552.8125 372.0625 552.480469 C 371.996094 552.148438 371.964844 551.8125 371.964844 551.476562 L 371.964844 512.964844 C 371.964844 512.625 371.996094 512.292969 372.0625 511.960938 C 372.128906 511.628906 372.226562 511.304688 372.355469 510.992188 C 372.484375 510.679688 372.644531 510.382812 372.832031 510.105469 C 373.019531 509.824219 373.234375 509.5625 373.472656 509.324219 C 373.714844 509.085938 373.972656 508.871094 374.253906 508.683594 C 374.535156 508.496094 374.832031 508.335938 375.148438 508.207031 C 375.460938 508.078125 375.78125 507.980469 376.113281 507.914062 C 376.445312 507.847656 376.78125 507.816406 377.121094 507.816406 L 474.878906 507.816406 C 475.21875 507.816406 475.550781 507.847656 475.882812 507.914062 C 476.214844 507.980469 476.539062 508.078125 476.851562 508.207031 C 477.164062 508.335938 477.460938 508.496094 477.742188 508.683594 C 478.023438 508.871094 478.285156 509.085938 478.523438 509.324219 C 478.761719 509.5625 478.976562 509.824219 479.164062 510.101562 C 479.351562 510.382812 479.511719 510.679688 479.640625 510.992188 C 479.769531 511.304688 479.871094 511.628906 479.933594 511.960938 C 480 512.292969 480.035156 512.625 480.035156 512.964844 Z M 480.035156 551.476562 " fill-opacity="1" fill-rule="nonzero"/></g></svg>