<svg xmlns="http://www.w3.org/2000/svg" xmlns:xlink="http://www.w3.org/1999/xlink" width="1080" zoomAndPan="magnify" viewBox="0 0 810 809.999993" height="1080" preserveAspectRatio="xMidYMid meet" version="1.0"><defs><clipPath id="6cab9430bf"><path d="M 243 270.136719 L 567 270.136719 L 567 540.136719 L 243 540.136719 Z M 243 270.136719 " clip-rule="nonzero"/></clipPath></defs><g clip-path="url(#6cab9430bf)"><path fill="#ffffff" d="M 563.511719 300.347656 L 530.730469 300.347656 L 530.730469 282.851562 C 530.730469 275.820312 525.015625 270.101562 517.992188 270.101562 L 509.601562 270.101562 C 502.578125 270.101562 496.863281 275.820312 496.863281 282.851562 L 496.863281 300.347656 L 476.347656 300.347656 L 476.347656 282.851562 C 476.347656 275.820312 470.632812 270.101562 463.609375 270.101562 L 455.21875 270.101562 C 448.195312 270.101562 442.480469 275.820312 442.480469 282.851562 L 442.480469 300.347656 L 421.964844 300.347656 L 421.964844 282.851562 C 421.964844 275.820312 416.253906 270.101562 409.230469 270.101562 L 400.835938 270.101562 C 393.816406 270.101562 388.101562 275.820312 388.101562 282.851562 L 388.101562 300.347656 L 367.585938 300.347656 L 367.585938 282.851562 C 367.585938 275.820312 361.871094 270.101562 354.847656 270.101562 L 346.457031 270.101562 C 339.433594 270.101562 333.71875 275.820312 333.71875 282.851562 L 333.71875 300.347656 L 313.203125 300.347656 L 313.203125 282.851562 C 313.203125 275.820312 307.488281 270.101562 300.46875 270.101562 L 292.078125 270.101562 C 285.054688 270.101562 279.339844 275.820312 279.339844 282.851562 L 279.339844 300.347656 L 246.558594 300.347656 C 244.640625 300.347656 243.085938 301.902344 243.085938 303.824219 L 243.085938 536.625 C 243.085938 538.546875 244.640625 540.101562 246.558594 540.101562 L 563.511719 540.101562 C 565.429688 540.101562 566.984375 538.546875 566.984375 536.625 L 566.984375 303.824219 C 566.984375 301.902344 565.429688 300.347656 563.511719 300.347656 Z M 503.808594 282.851562 C 503.808594 279.652344 506.40625 277.050781 509.601562 277.050781 L 517.992188 277.050781 C 521.1875 277.050781 523.789062 279.652344 523.789062 282.851562 L 523.789062 303.78125 C 523.789062 303.796875 523.785156 303.808594 523.785156 303.824219 C 523.785156 303.835938 523.789062 303.847656 523.789062 303.863281 L 523.789062 324.789062 C 523.789062 327.984375 521.1875 330.585938 517.992188 330.585938 L 509.601562 330.585938 C 506.40625 330.585938 503.808594 327.984375 503.808594 324.789062 Z M 449.425781 303.835938 C 449.425781 303.832031 449.425781 303.828125 449.425781 303.824219 C 449.425781 303.820312 449.425781 303.816406 449.425781 303.808594 L 449.425781 282.851562 C 449.425781 279.652344 452.023438 277.050781 455.21875 277.050781 L 463.609375 277.050781 C 466.804688 277.050781 469.40625 279.652344 469.40625 282.851562 L 469.40625 324.789062 C 469.40625 327.984375 466.804688 330.589844 463.609375 330.589844 L 455.21875 330.589844 C 452.023438 330.589844 449.425781 327.984375 449.425781 324.789062 Z M 395.046875 303.851562 C 395.046875 303.84375 395.046875 303.832031 395.046875 303.824219 C 395.046875 303.8125 395.046875 303.800781 395.046875 303.792969 L 395.046875 282.851562 C 395.046875 279.652344 397.644531 277.050781 400.839844 277.050781 L 409.230469 277.050781 C 412.425781 277.050781 415.023438 279.652344 415.023438 282.851562 L 415.023438 303.789062 C 415.023438 303.800781 415.019531 303.8125 415.019531 303.824219 C 415.019531 303.832031 415.023438 303.84375 415.023438 303.855469 L 415.023438 324.789062 C 415.023438 327.984375 412.425781 330.585938 409.230469 330.585938 L 400.839844 330.585938 C 397.644531 330.585938 395.046875 327.984375 395.046875 324.789062 Z M 340.664062 282.851562 C 340.664062 279.652344 343.261719 277.050781 346.457031 277.050781 L 354.851562 277.050781 C 358.042969 277.050781 360.644531 279.652344 360.644531 282.851562 L 360.644531 324.789062 C 360.644531 327.984375 358.042969 330.589844 354.851562 330.589844 L 346.457031 330.589844 C 343.261719 330.589844 340.664062 327.984375 340.664062 324.789062 Z M 286.285156 303.835938 C 286.285156 303.832031 286.285156 303.828125 286.285156 303.824219 C 286.285156 303.820312 286.285156 303.816406 286.285156 303.808594 L 286.285156 282.851562 C 286.285156 279.652344 288.882812 277.050781 292.078125 277.050781 L 300.46875 277.050781 C 303.664062 277.050781 306.261719 279.652344 306.261719 282.851562 L 306.261719 324.789062 C 306.261719 327.984375 303.664062 330.589844 300.46875 330.589844 L 292.078125 330.589844 C 288.882812 330.589844 286.285156 327.984375 286.285156 324.789062 Z M 560.042969 533.152344 L 250.027344 533.152344 L 250.027344 307.296875 L 279.339844 307.296875 L 279.339844 324.789062 C 279.339844 331.816406 285.054688 337.539062 292.078125 337.539062 L 300.46875 337.539062 C 307.492188 337.539062 313.203125 331.820312 313.207031 324.789062 L 313.207031 307.296875 L 333.722656 307.296875 L 333.722656 324.789062 C 333.722656 331.816406 339.433594 337.539062 346.457031 337.539062 L 354.851562 337.539062 C 361.871094 337.539062 367.585938 331.820312 367.585938 324.789062 L 367.585938 307.296875 L 388.105469 307.296875 L 388.105469 324.789062 C 388.105469 331.816406 393.816406 337.539062 400.839844 337.539062 L 409.230469 337.539062 C 416.253906 337.539062 421.96875 331.820312 421.96875 324.789062 L 421.96875 307.296875 L 442.484375 307.296875 L 442.484375 324.789062 C 442.484375 331.816406 448.199219 337.539062 455.222656 337.539062 L 463.613281 337.539062 C 470.636719 337.539062 476.347656 331.820312 476.347656 324.789062 L 476.347656 307.296875 L 496.867188 307.296875 L 496.867188 324.789062 C 496.867188 331.816406 502.578125 337.539062 509.601562 337.539062 L 517.996094 337.539062 C 525.019531 337.539062 530.734375 331.820312 530.734375 324.789062 L 530.734375 307.296875 L 560.042969 307.296875 Z M 560.042969 533.152344 " fill-opacity="1" fill-rule="nonzero"/></g><path fill="#ffffff" d="M 405.035156 353.066406 L 273.566406 353.066406 C 271.648438 353.066406 270.09375 354.621094 270.09375 356.539062 L 270.09375 512.367188 C 270.09375 514.285156 271.648438 515.84375 273.566406 515.84375 L 536.503906 515.84375 C 538.421875 515.84375 539.976562 514.285156 539.976562 512.367188 L 539.976562 356.539062 C 539.976562 354.621094 538.421875 353.066406 536.503906 353.066406 Z M 335.828125 508.894531 L 277.035156 508.894531 L 277.035156 463.898438 L 335.828125 463.898438 Z M 335.828125 456.949219 L 277.035156 456.949219 L 277.035156 411.957031 L 335.828125 411.957031 Z M 335.828125 405.007812 L 277.035156 405.007812 L 277.035156 360.015625 L 335.828125 360.015625 Z M 401.5625 508.894531 L 342.769531 508.894531 L 342.769531 463.898438 L 401.5625 463.898438 Z M 401.5625 456.949219 L 342.769531 456.949219 L 342.769531 411.957031 L 401.5625 411.957031 Z M 401.5625 405.007812 L 342.769531 405.007812 L 342.769531 360.015625 L 401.5625 360.015625 Z M 467.296875 508.894531 L 408.507812 508.894531 L 408.507812 463.898438 L 467.296875 463.898438 Z M 467.296875 456.949219 L 408.507812 456.949219 L 408.507812 411.957031 L 467.296875 411.957031 Z M 467.296875 405.007812 L 408.507812 405.007812 L 408.507812 360.015625 L 467.296875 360.015625 Z M 474.242188 360.015625 L 533.03125 360.015625 L 533.03125 405.007812 L 474.242188 405.007812 Z M 474.242188 411.957031 L 533.03125 411.957031 L 533.03125 456.949219 L 474.242188 456.949219 Z M 474.242188 463.898438 L 533.03125 463.898438 L 533.03125 508.890625 L 474.242188 508.890625 Z M 474.242188 463.898438 " fill-opacity="1" fill-rule="nonzero"/><path fill="#ffffff" d="M 298.804688 499.964844 C 299.484375 500.644531 300.371094 500.984375 301.261719 500.984375 C 302.148438 500.984375 303.039062 500.644531 303.714844 499.964844 L 325.917969 477.738281 C 327.273438 476.382812 327.273438 474.183594 325.917969 472.828125 C 324.5625 471.46875 322.367188 471.46875 321.011719 472.828125 L 301.261719 492.597656 L 292.855469 484.179688 C 291.5 482.824219 289.304688 482.824219 287.945312 484.179688 C 286.589844 485.539062 286.589844 487.738281 287.945312 489.09375 Z M 298.804688 499.964844 " fill-opacity="1" fill-rule="nonzero"/></svg>