<svg xmlns="http://www.w3.org/2000/svg" xmlns:xlink="http://www.w3.org/1999/xlink" width="1080" zoomAndPan="magnify" viewBox="0 0 810 809.999993" height="1080" preserveAspectRatio="xMidYMid meet" version="1.0"><defs><clipPath id="38e421df2e"><path d="M 132.839844 388 L 489 388 L 489 645 L 132.839844 645 Z M 132.839844 388 " clip-rule="nonzero"/></clipPath></defs><path fill="#ffffff" d="M 560.515625 468.152344 C 538.425781 468.152344 516.21875 473.128906 496.558594 482.714844 C 496.4375 482.714844 496.4375 482.835938 496.316406 482.835938 C 444.859375 507.710938 412.941406 558.675781 412.941406 615.710938 L 412.941406 616.316406 C 413.0625 616.921875 413.0625 617.652344 413.0625 618.257812 L 413.0625 619.472656 C 415.125 698.832031 481.023438 763.148438 560.515625 763.148438 C 641.828125 763.148438 707.96875 697.011719 707.96875 615.710938 C 707.96875 534.285156 641.828125 468.152344 560.515625 468.152344 Z M 636.367188 597.386719 L 562.941406 670.800781 C 557.84375 675.898438 551.171875 678.324219 544.496094 678.324219 C 537.699219 678.324219 531.023438 675.898438 525.925781 670.800781 L 484.785156 629.542969 C 474.59375 619.351562 474.59375 602.847656 484.785156 592.53125 C 494.980469 582.339844 511.484375 582.339844 521.679688 592.53125 L 544.496094 615.347656 L 599.351562 560.375 C 609.546875 550.183594 626.171875 550.183594 636.367188 560.375 C 646.558594 570.691406 646.558594 587.195312 636.367188 597.386719 Z M 636.367188 597.386719 " fill-opacity="1" fill-rule="nonzero"/><path fill="#ffffff" d="M 359.664062 346.5625 C 432.238281 346.5625 491.21875 287.585938 491.21875 215.144531 C 491.339844 142.578125 432.238281 83.601562 359.664062 83.601562 C 287.210938 83.601562 228.230469 142.578125 228.230469 215.023438 C 228.230469 287.585938 287.332031 346.5625 359.664062 346.5625 Z M 359.664062 346.5625 " fill-opacity="1" fill-rule="nonzero"/><g clip-path="url(#38e421df2e)"><path fill="#ffffff" d="M 360.753906 615.710938 C 360.753906 607.824219 361.121094 600.175781 362.210938 592.53125 C 368.039062 539.261719 394.980469 491.570312 436.605469 458.808594 C 448.015625 449.828125 460.515625 441.941406 473.984375 435.511719 C 478.839844 433.203125 483.816406 431.019531 488.914062 429.078125 C 451.289062 402.988281 406.023438 388.667969 359.90625 388.667969 C 234.78125 388.667969 132.960938 490.480469 132.960938 615.589844 L 132.960938 618.621094 C 132.960938 632.941406 144.613281 644.710938 159.054688 644.710938 L 362.941406 644.710938 C 361.726562 636.582031 361 628.332031 360.875 619.957031 C 360.753906 618.742188 360.753906 617.289062 360.753906 615.710938 Z M 360.753906 615.710938 " fill-opacity="1" fill-rule="nonzero"/></g></svg>