<svg xmlns="http://www.w3.org/2000/svg" xmlns:xlink="http://www.w3.org/1999/xlink" width="1080" zoomAndPan="magnify" viewBox="0 0 810 809.999993" height="1080" preserveAspectRatio="xMidYMid meet" version="1.0"><defs><clipPath id="835a316cdf"><path d="M 226.800781 225 L 317 225 L 317 229 L 226.800781 229 Z M 226.800781 225 " clip-rule="nonzero"/></clipPath></defs><path fill="#ffffff" d="M 428.144531 228.609375 L 517.363281 228.609375 L 517.363281 225.175781 L 428.175781 225.175781 C 428.183594 225.5625 428.207031 225.949219 428.207031 226.335938 C 428.207031 227.097656 428.175781 227.855469 428.144531 228.609375 Z M 428.144531 228.609375 " fill-opacity="1" fill-rule="nonzero"/><g clip-path="url(#835a316cdf)"><path fill="#ffffff" d="M 315.957031 226.335938 C 315.957031 225.949219 315.980469 225.5625 315.988281 225.175781 L 226.800781 225.175781 L 226.800781 228.609375 L 316.019531 228.609375 C 315.988281 227.855469 315.957031 227.097656 315.957031 226.335938 Z M 315.957031 226.335938 " fill-opacity="1" fill-rule="nonzero"/></g><path fill="#ffffff" d="M 370.363281 321.074219 L 370.363281 372.234375 L 373.800781 372.234375 L 373.800781 321.074219 C 373.226562 321.109375 372.65625 321.144531 372.082031 321.144531 C 371.507812 321.144531 370.9375 321.109375 370.363281 321.074219 Z M 370.363281 321.074219 " fill-opacity="1" fill-rule="nonzero"/><path fill="#ffffff" d="M 373.800781 170.234375 L 373.800781 81.554688 L 370.363281 81.554688 L 370.363281 170.234375 C 370.9375 170.21875 371.507812 170.191406 372.085938 170.191406 C 372.660156 170.191406 373.230469 170.21875 373.800781 170.234375 Z M 373.800781 170.234375 " fill-opacity="1" fill-rule="nonzero"/><path fill="#ffffff" d="M 352.097656 145.644531 L 348.78125 146.535156 L 355.765625 172.617188 C 356.859375 172.285156 357.964844 171.996094 359.085938 171.726562 Z M 352.097656 145.644531 " fill-opacity="1" fill-rule="nonzero"/><path fill="#ffffff" d="M 331.757812 153.589844 L 328.785156 155.304688 L 342.324219 178.765625 C 343.292969 178.160156 344.273438 177.570312 345.28125 177.019531 Z M 331.757812 153.589844 " fill-opacity="1" fill-rule="nonzero"/><path fill="#ffffff" d="M 412.40625 300.199219 L 415.378906 298.480469 L 403.371094 277.667969 C 402.695312 278.894531 402.066406 280.101562 401.492188 281.292969 Z M 412.40625 300.199219 " fill-opacity="1" fill-rule="nonzero"/><path fill="#ffffff" d="M 300.523438 183.578125 L 298.808594 186.554688 L 322.433594 200.199219 C 322.96875 199.1875 323.523438 198.183594 324.121094 197.207031 Z M 300.523438 183.578125 " fill-opacity="1" fill-rule="nonzero"/><path fill="#ffffff" d="M 443.640625 270.207031 L 445.359375 267.230469 L 421.257812 253.3125 C 420.707031 254.316406 420.128906 255.304688 419.515625 256.273438 Z M 443.640625 270.207031 " fill-opacity="1" fill-rule="nonzero"/><path fill="#ffffff" d="M 291.757812 203.582031 L 290.867188 206.902344 L 317.339844 213.996094 C 317.59375 212.875 317.878906 211.765625 318.199219 210.671875 Z M 291.757812 203.582031 " fill-opacity="1" fill-rule="nonzero"/><path fill="#ffffff" d="M 452.410156 250.203125 L 453.296875 246.882812 L 426.566406 239.71875 C 426.289062 240.832031 425.984375 241.9375 425.644531 243.027344 Z M 452.410156 250.203125 " fill-opacity="1" fill-rule="nonzero"/><path fill="#ffffff" d="M 290.867188 246.882812 L 291.757812 250.203125 L 318.519531 243.027344 C 318.179688 241.9375 317.875 240.832031 317.601562 239.71875 Z M 290.867188 246.882812 " fill-opacity="1" fill-rule="nonzero"/><path fill="#ffffff" d="M 453.296875 206.902344 L 452.410156 203.582031 L 425.964844 210.671875 C 426.285156 211.765625 426.570312 212.875 426.824219 213.996094 Z M 453.296875 206.902344 " fill-opacity="1" fill-rule="nonzero"/><path fill="#ffffff" d="M 298.804688 267.230469 L 300.523438 270.207031 L 324.648438 256.273438 C 324.039062 255.304688 323.457031 254.316406 322.90625 253.3125 Z M 298.804688 267.230469 " fill-opacity="1" fill-rule="nonzero"/><path fill="#ffffff" d="M 445.359375 186.554688 L 443.640625 183.578125 L 420.042969 197.207031 C 420.640625 198.183594 421.195312 199.1875 421.730469 200.199219 Z M 445.359375 186.554688 " fill-opacity="1" fill-rule="nonzero"/><path fill="#ffffff" d="M 328.785156 298.480469 L 331.757812 300.199219 L 342.671875 281.289062 C 342.097656 280.101562 341.472656 278.894531 340.796875 277.667969 Z M 328.785156 298.480469 " fill-opacity="1" fill-rule="nonzero"/><path fill="#ffffff" d="M 415.378906 155.304688 L 412.40625 153.589844 L 398.882812 177.019531 C 399.890625 177.566406 400.871094 178.15625 401.839844 178.765625 Z M 415.378906 155.304688 " fill-opacity="1" fill-rule="nonzero"/><path fill="#ffffff" d="M 348.78125 307.25 L 349.136719 307.34375 C 349.054688 307.160156 348.980469 306.96875 348.90625 306.78125 Z M 348.78125 307.25 " fill-opacity="1" fill-rule="nonzero"/><path fill="#ffffff" d="M 395.382812 146.535156 L 392.066406 145.644531 L 385.082031 171.726562 C 386.199219 171.992188 387.304688 172.285156 388.398438 172.617188 Z M 395.382812 146.535156 " fill-opacity="1" fill-rule="nonzero"/><path fill="#ffffff" d="M 333.375 185.738281 L 314.167969 166.527344 L 289.597656 141.945312 L 287.167969 144.375 L 311.738281 168.957031 L 330.960938 188.183594 C 331.738281 187.34375 332.546875 186.53125 333.375 185.738281 Z M 333.375 185.738281 " fill-opacity="1" fill-rule="nonzero"/><path fill="#ffffff" d="M 410.210938 267.464844 L 429.996094 287.257812 L 454.566406 311.839844 L 456.996094 309.410156 L 432.425781 284.828125 L 412.65625 265.050781 C 411.867188 265.878906 411.050781 266.683594 410.210938 267.464844 Z M 410.210938 267.464844 " fill-opacity="1" fill-rule="nonzero"/><path fill="#ffffff" d="M 331.507812 265.050781 L 311.738281 284.828125 L 287.167969 309.410156 L 289.597656 311.839844 L 314.167969 287.257812 L 333.957031 267.464844 C 333.113281 266.683594 332.296875 265.878906 331.507812 265.050781 Z M 331.507812 265.050781 " fill-opacity="1" fill-rule="nonzero"/><path fill="#ffffff" d="M 413.207031 188.183594 L 432.425781 168.957031 L 456.996094 144.375 L 454.566406 141.945312 L 429.996094 166.527344 L 410.789062 185.738281 C 411.617188 186.53125 412.425781 187.34375 413.207031 188.183594 Z M 413.207031 188.183594 " fill-opacity="1" fill-rule="nonzero"/><path fill="#ffffff" d="M 376.492188 320.796875 L 424.492188 421.457031 L 398.226562 516.15625 L 347.695312 698.339844 C 344.480469 709.933594 351.269531 721.933594 362.855469 725.148438 C 374.441406 728.367188 386.441406 721.582031 389.65625 709.988281 L 430.464844 562.863281 C 431.605469 565.9375 433.449219 568.804688 436.023438 571.183594 L 496.621094 627.1875 L 515.804688 708.839844 C 518.140625 718.78125 527 725.488281 536.785156 725.488281 C 538.417969 725.488281 540.078125 725.300781 541.738281 724.910156 C 553.335938 722.183594 560.527344 710.570312 557.804688 698.964844 L 537.113281 610.882812 C 536.128906 606.691406 533.910156 602.886719 530.75 599.964844 L 485.421875 558.074219 C 485.488281 557.867188 485.566406 557.667969 485.625 557.457031 L 510.113281 469.164062 C 511.835938 478.488281 512.144531 492.226562 508.988281 512.011719 C 508.074219 517.746094 510.769531 523.449219 515.773438 526.386719 C 517.984375 527.683594 520.445312 528.324219 522.898438 528.324219 C 526 528.324219 529.082031 527.304688 531.625 525.296875 L 575.90625 490.351562 C 582.015625 485.53125 583.058594 476.667969 578.242188 470.558594 C 573.417969 464.445312 564.5625 463.402344 558.453125 468.222656 L 539.542969 483.144531 C 539.304688 464.125 535.304688 449.21875 527.566406 438.632812 C 520.964844 429.597656 513.367188 426.144531 509.136719 424.855469 C 508.878906 424.769531 508.621094 424.671875 508.351562 424.597656 L 449.402344 408.234375 L 396.890625 298.097656 C 396.847656 311.414062 387.195312 319.132812 376.492188 320.796875 Z M 459.988281 452.636719 C 462.007812 454.007812 464.238281 455.007812 466.574219 455.570312 L 466.578125 455.570312 C 466.578125 455.570312 466.585938 455.570312 466.589844 455.570312 C 468.921875 456.136719 471.359375 456.265625 473.777344 455.96875 L 466.472656 527.28125 L 445.25 543.902344 L 433.949219 519.421875 Z M 465.414062 431.875 L 471.917969 433.449219 L 478.421875 435.019531 L 478.574219 448.648438 L 477.890625 449.308594 C 474.671875 450.898438 471.117188 451.226562 467.816406 450.429688 C 464.515625 449.632812 461.507812 447.71875 459.367188 444.84375 L 459.058594 443.933594 Z M 465.414062 431.875 " fill-opacity="1" fill-rule="nonzero"/><path fill="#ffffff" d="M 448.542969 368.917969 C 450.222656 390.746094 469.273438 407.078125 491.089844 405.394531 C 512.910156 403.714844 529.234375 384.660156 527.554688 362.832031 C 525.875 341.003906 506.824219 324.671875 485.003906 326.351562 C 463.1875 328.035156 446.863281 347.089844 448.542969 368.917969 Z M 507.128906 372.621094 C 507.128906 372.621094 482.246094 407.617188 459.757812 370.582031 C 459.757812 370.582031 487.378906 380.886719 507.128906 372.621094 Z M 507.128906 372.621094 " fill-opacity="1" fill-rule="nonzero"/><path fill="#ffffff" d="M 323.003906 226.335938 C 323.003906 241.230469 329.65625 254.542969 340.113281 263.546875 C 346.671875 272.589844 354.316406 285.753906 354.316406 298.011719 C 354.316406 319.457031 389.851562 319.457031 389.851562 298.011719 C 389.851562 285.753906 397.496094 272.589844 404.050781 263.546875 C 414.507812 254.542969 421.164062 241.230469 421.164062 226.335938 C 421.164062 199.222656 399.191406 177.238281 372.085938 177.238281 C 344.980469 177.238281 323.003906 199.222656 323.003906 226.335938 Z M 386.703125 272.335938 L 357.46875 272.335938 C 355.042969 267.558594 352.007812 262.636719 348.335938 257.574219 L 347.640625 256.617188 L 346.742188 255.847656 C 338.109375 248.417969 333.160156 237.664062 333.160156 226.34375 C 333.160156 204.863281 350.617188 187.390625 372.085938 187.390625 C 393.542969 187.390625 411.007812 204.863281 411.007812 226.34375 C 411.007812 237.664062 406.050781 248.417969 397.417969 255.847656 L 396.519531 256.617188 L 395.816406 257.585938 C 392.152344 262.648438 389.125 267.566406 386.703125 272.335938 Z M 386.703125 272.335938 " fill-opacity="1" fill-rule="nonzero"/><path fill="#ffffff" d="M 376.332031 200.234375 C 376.332031 198.289062 374.753906 196.710938 372.808594 196.710938 C 356.753906 196.710938 343.691406 209.78125 343.691406 225.847656 C 343.691406 227.792969 345.269531 229.371094 347.214844 229.371094 C 349.160156 229.371094 350.738281 227.792969 350.738281 225.847656 C 350.738281 213.667969 360.636719 203.757812 372.808594 203.757812 C 374.753906 203.757812 376.332031 202.183594 376.332031 200.234375 Z M 376.332031 200.234375 " fill-opacity="1" fill-rule="nonzero"/></svg>