<svg xmlns="http://www.w3.org/2000/svg" xmlns:xlink="http://www.w3.org/1999/xlink" width="1080" zoomAndPan="magnify" viewBox="0 0 810 809.999993" height="1080" preserveAspectRatio="xMidYMid meet" version="1.0"><path fill="#ffffff" d="M 392.914062 337.824219 L 416.433594 337.824219 L 416.433594 349.636719 C 424.21875 351.191406 431.460938 354.253906 437.839844 358.515625 L 446.1875 350.160156 L 462.820312 366.808594 L 454.472656 375.164062 C 458.726562 381.550781 461.789062 388.796875 463.34375 396.59375 L 475.144531 396.59375 L 475.144531 420.136719 L 463.34375 420.136719 C 461.789062 427.933594 458.726562 435.183594 454.472656 441.566406 L 462.820312 449.921875 L 446.1875 466.570312 L 437.839844 458.214844 C 431.460938 462.476562 424.21875 465.542969 416.433594 467.097656 L 416.433594 478.90625 L 392.914062 478.90625 L 392.914062 467.097656 C 385.128906 465.542969 377.886719 462.476562 371.507812 458.214844 L 363.160156 466.570312 L 346.527344 449.921875 L 354.875 441.566406 C 350.617188 435.183594 347.558594 427.933594 346.003906 420.136719 L 334.203125 420.136719 L 334.203125 396.59375 L 346.003906 396.59375 C 347.558594 388.796875 350.621094 381.550781 354.875 375.164062 L 346.527344 366.808594 L 363.160156 350.164062 L 371.507812 358.519531 C 377.886719 354.257812 385.128906 351.191406 392.914062 349.636719 Z M 381.726562 525.644531 L 376.515625 516.527344 C 383.617188 518.359375 390.941406 519.503906 398.386719 519.898438 C 433.136719 521.75 466.875 507.28125 489.492188 480.695312 C 504.109375 463.507812 513.394531 442.097656 515.714844 419.304688 C 516.011719 416.28125 513.800781 413.585938 510.78125 413.289062 C 507.761719 412.992188 505.066406 415.203125 504.769531 418.226562 C 502.675781 438.78125 494.308594 458.085938 481.132812 473.574219 C 460.777344 497.507812 430.226562 510.566406 398.945312 508.902344 C 392.738281 508.570312 386.628906 507.664062 380.683594 506.226562 L 389.667969 502.558594 C 392.488281 501.417969 393.847656 498.199219 392.703125 495.378906 C 391.5625 492.558594 388.351562 491.195312 385.53125 492.339844 L 362.667969 501.667969 C 359.519531 502.863281 358.152344 506.613281 359.835938 509.566406 L 372.160156 531.125 C 373.671875 533.769531 377.039062 534.6875 379.679688 533.175781 C 382.324219 531.660156 383.238281 528.289062 381.726562 525.644531 Z M 516.933594 517.3125 C 519.96875 517.324219 522.417969 519.796875 522.40625 522.832031 C 522.394531 525.867188 519.921875 528.320312 516.890625 528.308594 L 494.175781 528.171875 C 490.839844 528.160156 488.304688 525.207031 488.757812 521.917969 L 491.890625 499.398438 C 492.308594 496.386719 495.085938 494.28125 498.097656 494.699219 C 501.105469 495.117188 503.207031 497.894531 502.792969 500.910156 L 501.683594 508.871094 C 519.972656 491.226562 532.929688 469.105469 539.507812 444.535156 C 554.507812 388.5 533.371094 328.96875 486.367188 295.015625 C 483.90625 293.238281 483.347656 289.804688 485.121094 287.339844 C 486.894531 284.875 490.328125 284.316406 492.792969 286.089844 C 543.515625 322.726562 566.339844 386.90625 550.152344 447.382812 C 543.007812 474.074219 528.785156 498.183594 508.839844 517.265625 Z M 442.785156 256.558594 L 446.804688 263.628906 C 445.765625 263.324219 444.714844 263.03125 443.648438 262.746094 C 403.484375 251.972656 362.753906 258.519531 329.371094 277.816406 C 295.992188 297.105469 269.96875 329.144531 259.203125 369.351562 C 258.175781 373.191406 257.296875 377.128906 256.554688 381.148438 C 255.816406 385.167969 255.246094 389.164062 254.839844 393.121094 C 254.527344 396.148438 256.726562 398.851562 259.753906 399.164062 C 262.773438 399.46875 265.476562 397.273438 265.785156 394.246094 C 266.167969 390.523438 266.695312 386.8125 267.375 383.128906 C 268.03125 379.570312 268.851562 375.929688 269.847656 372.199219 C 279.828125 334.925781 303.949219 305.226562 334.886719 287.347656 C 365.816406 269.472656 403.570312 263.410156 440.808594 273.398438 C 441.5625 273.601562 442.324219 273.8125 443.078125 274.027344 L 435.683594 277.023438 C 432.863281 278.167969 431.503906 281.382812 432.648438 284.203125 C 433.789062 287.027344 437 288.386719 439.820312 287.246094 L 460.867188 278.699219 C 463.933594 277.453125 465.226562 273.773438 463.585938 270.878906 L 452.351562 251.121094 C 450.851562 248.476562 447.492188 247.550781 444.851562 249.050781 C 442.214844 250.554688 441.289062 253.914062 442.785156 256.558594 Z M 254.28125 451.21875 L 258.371094 444.222656 C 264.253906 468.183594 275.9375 490.351562 292.261719 508.707031 C 323.585938 543.9375 369.859375 562.449219 416.730469 558.667969 C 434.066406 557.273438 450.859375 552.867188 466.421875 545.851562 C 469.191406 544.601562 470.429688 541.339844 469.179688 538.5625 C 467.929688 535.789062 464.671875 534.550781 461.898438 535.800781 C 447.488281 542.296875 431.933594 546.375 415.867188 547.671875 C 372.414062 551.175781 329.535156 534.039062 300.488281 501.375 C 285.492188 484.511719 274.71875 464.175781 269.21875 442.195312 L 275.546875 447.132812 C 277.9375 449.003906 281.390625 448.578125 283.257812 446.1875 C 285.125 443.792969 284.703125 440.335938 282.3125 438.464844 L 264.414062 424.496094 C 261.804688 422.449219 257.96875 423.15625 256.28125 426.039062 L 244.804688 445.660156 C 243.269531 448.277344 244.148438 451.648438 246.765625 453.183594 C 249.378906 454.71875 252.746094 453.839844 254.28125 451.21875 Z M 313.835938 329.542969 L 324.355469 329.605469 C 312.402344 341.839844 303.390625 356.667969 298.03125 372.855469 C 287.023438 406.125 292.339844 442.832031 312.183594 471.617188 C 319.519531 482.265625 328.589844 491.441406 338.882812 498.863281 C 341.34375 500.636719 344.777344 500.078125 346.550781 497.613281 C 348.324219 495.148438 347.765625 491.710938 345.300781 489.9375 C 336.03125 483.253906 327.855469 474.976562 321.230469 465.367188 C 303.339844 439.414062 298.578125 406.300781 308.503906 376.3125 C 313.175781 362.183594 320.914062 349.222656 331.132812 338.421875 L 329.789062 348.046875 C 329.371094 351.058594 331.472656 353.839844 334.488281 354.257812 C 337.496094 354.675781 340.273438 352.570312 340.6875 349.558594 L 344.113281 324.953125 C 344.5625 321.664062 342.027344 318.714844 338.691406 318.699219 L 313.875 318.550781 C 310.84375 318.539062 308.375 320.988281 308.359375 324.027344 C 308.351562 327.058594 310.800781 329.53125 313.835938 329.542969 Z M 362.949219 315.832031 C 365.339844 314.761719 367.851562 313.753906 370.472656 312.820312 C 425.109375 293.378906 484.667969 323.808594 501.082031 379.21875 L 493.589844 373.332031 C 491.199219 371.449219 487.738281 371.863281 485.859375 374.257812 C 483.976562 376.652344 484.390625 380.117188 486.785156 382 L 506.296875 397.34375 C 508.90625 399.390625 512.746094 398.6875 514.441406 395.816406 L 527.054688 374.425781 C 528.601562 371.804688 527.734375 368.425781 525.117188 366.878906 C 522.5 365.328125 519.125 366.199219 517.578125 368.816406 L 512.179688 377.96875 C 494.84375 315.527344 428.117188 280.613281 366.8125 302.429688 C 364.023438 303.421875 361.242188 304.542969 358.46875 305.785156 C 355.695312 307.023438 354.453125 310.277344 355.6875 313.054688 C 356.929688 315.828125 360.175781 317.074219 362.949219 315.832031 Z M 404.671875 371.683594 C 384.433594 371.683594 368.027344 388.105469 368.027344 408.363281 C 368.027344 428.621094 384.433594 445.046875 404.671875 445.046875 C 424.914062 445.046875 441.320312 428.625 441.320312 408.363281 C 441.320312 388.105469 424.914062 371.683594 404.671875 371.683594 Z M 404.671875 371.683594 " fill-opacity="1" fill-rule="evenodd"/></svg>