<svg xmlns="http://www.w3.org/2000/svg" xmlns:xlink="http://www.w3.org/1999/xlink" width="1080" zoomAndPan="magnify" viewBox="0 0 810 809.999993" height="1080" preserveAspectRatio="xMidYMid meet" version="1.0"><path fill="#ffffff" d="M 501.300781 333.464844 L 501.300781 273.539062 C 501.300781 273.207031 501.269531 272.875 501.207031 272.550781 C 501.144531 272.222656 501.046875 271.902344 500.921875 271.59375 C 500.796875 271.285156 500.644531 270.988281 500.460938 270.710938 C 500.28125 270.429688 500.074219 270.171875 499.84375 269.929688 C 499.609375 269.691406 499.355469 269.476562 499.082031 269.285156 C 498.808594 269.09375 498.519531 268.929688 498.214844 268.792969 C 497.910156 268.65625 497.597656 268.554688 497.269531 268.476562 C 496.945312 268.402344 496.617188 268.359375 496.28125 268.347656 C 482.023438 267.835938 467.976562 265.828125 454.140625 262.328125 C 437.8125 258.183594 422.253906 252.078125 407.464844 244.011719 C 406.691406 243.582031 405.859375 243.363281 404.972656 243.363281 C 404.085938 243.363281 403.253906 243.582031 402.480469 244.011719 C 387.6875 252.074219 372.128906 258.179688 355.804688 262.328125 C 341.957031 265.828125 327.898438 267.835938 313.628906 268.347656 C 313.296875 268.363281 312.96875 268.40625 312.644531 268.480469 C 312.320312 268.558594 312.007812 268.664062 311.703125 268.800781 C 311.402344 268.9375 311.113281 269.101562 310.839844 269.292969 C 310.570312 269.484375 310.320312 269.699219 310.089844 269.941406 C 309.859375 270.179688 309.652344 270.4375 309.472656 270.71875 C 309.292969 270.996094 309.140625 271.292969 309.015625 271.601562 C 308.890625 271.910156 308.796875 272.226562 308.734375 272.550781 C 308.671875 272.878906 308.640625 273.207031 308.640625 273.539062 L 308.640625 333.464844 C 308.648438 338.761719 308.964844 344.039062 309.597656 349.296875 C 310.226562 354.554688 311.167969 359.757812 312.414062 364.902344 C 313.664062 370.050781 315.210938 375.105469 317.058594 380.066406 C 318.90625 385.03125 321.039062 389.867188 323.460938 394.578125 C 325.882812 399.289062 328.570312 403.839844 331.53125 408.230469 C 334.492188 412.621094 337.703125 416.820312 341.160156 420.832031 C 344.621094 424.84375 348.304688 428.636719 352.210938 432.210938 C 356.121094 435.785156 360.226562 439.113281 364.527344 442.203125 C 376.4375 450.757812 389.414062 457.164062 403.449219 461.414062 C 403.945312 461.550781 404.453125 461.621094 404.96875 461.621094 C 405.476562 461.625 405.972656 461.554688 406.460938 461.414062 C 420.503906 457.175781 433.476562 450.773438 445.378906 442.203125 C 449.683594 439.113281 453.789062 435.785156 457.699219 432.210938 C 461.609375 428.636719 465.292969 424.84375 468.753906 420.832031 C 472.214844 416.824219 475.425781 412.621094 478.386719 408.230469 C 481.347656 403.839844 484.042969 399.289062 486.464844 394.578125 C 488.886719 389.871094 491.023438 385.035156 492.871094 380.070312 C 494.71875 375.105469 496.269531 370.050781 497.519531 364.90625 C 498.769531 359.757812 499.710938 354.554688 500.34375 349.296875 C 500.976562 344.039062 501.296875 338.761719 501.300781 333.464844 Z M 460.789062 291.578125 C 462.675781 291.5625 464.488281 291.917969 466.230469 292.636719 C 467.972656 293.359375 469.503906 294.390625 470.828125 295.730469 C 471.488281 296.390625 472.078125 297.105469 472.59375 297.878906 C 473.113281 298.652344 473.550781 299.46875 473.90625 300.328125 C 474.261719 301.1875 474.53125 302.074219 474.710938 302.988281 C 474.894531 303.902344 474.984375 304.824219 474.984375 305.753906 C 474.984375 306.683594 474.894531 307.605469 474.710938 308.519531 C 474.53125 309.433594 474.261719 310.320312 473.90625 311.179688 C 473.550781 312.039062 473.113281 312.855469 472.59375 313.628906 C 472.078125 314.402344 471.488281 315.117188 470.828125 315.777344 L 411.65625 374.9375 C 411 375.601562 410.28125 376.195312 409.507812 376.714844 C 408.734375 377.238281 407.917969 377.679688 407.054688 378.039062 C 406.191406 378.398438 405.304688 378.667969 404.386719 378.851562 C 403.472656 379.035156 402.546875 379.128906 401.613281 379.128906 C 400.679688 379.128906 399.753906 379.035156 398.839844 378.851562 C 397.925781 378.667969 397.035156 378.398438 396.171875 378.039062 C 395.3125 377.679688 394.492188 377.238281 393.71875 376.714844 C 392.945312 376.195312 392.230469 375.601562 391.574219 374.9375 L 365.636719 349.042969 C 364.964844 348.386719 364.363281 347.671875 363.832031 346.894531 C 363.300781 346.121094 362.851562 345.300781 362.484375 344.4375 C 362.117188 343.570312 361.839844 342.679688 361.648438 341.757812 C 361.457031 340.839844 361.359375 339.910156 361.355469 338.96875 C 361.347656 338.027344 361.433594 337.097656 361.613281 336.175781 C 361.792969 335.253906 362.0625 334.355469 362.417969 333.488281 C 362.773438 332.617188 363.214844 331.792969 363.734375 331.011719 C 364.253906 330.230469 364.847656 329.503906 365.511719 328.839844 C 366.175781 328.175781 366.902344 327.585938 367.683594 327.0625 C 368.464844 326.542969 369.292969 326.105469 370.160156 325.746094 C 371.03125 325.390625 371.925781 325.121094 372.847656 324.941406 C 373.773438 324.765625 374.703125 324.675781 375.644531 324.683594 C 376.582031 324.6875 377.511719 324.785156 378.433594 324.976562 C 379.351562 325.167969 380.246094 325.445312 381.109375 325.8125 C 381.976562 326.183594 382.796875 326.628906 383.570312 327.160156 C 384.347656 327.691406 385.0625 328.292969 385.71875 328.964844 L 401.613281 344.855469 L 450.75 295.730469 C 452.078125 294.394531 453.613281 293.367188 455.351562 292.648438 C 457.09375 291.925781 458.90625 291.570312 460.789062 291.578125 Z M 404.972656 419.078125 C 403.703125 419.078125 402.433594 419.039062 401.164062 418.96875 C 399.894531 418.894531 398.628906 418.789062 397.367188 418.644531 C 396.101562 418.5 394.847656 418.320312 393.59375 418.105469 C 392.339844 417.890625 391.09375 417.636719 389.855469 417.351562 C 388.617188 417.066406 387.390625 416.746094 386.167969 416.390625 C 384.949219 416.035156 383.742188 415.644531 382.542969 415.222656 C 381.34375 414.796875 380.160156 414.339844 378.988281 413.847656 C 377.816406 413.359375 376.660156 412.835938 375.515625 412.277344 C 374.375 411.722656 373.246094 411.132812 372.136719 410.511719 C 371.03125 409.894531 369.9375 409.242188 368.867188 408.558594 C 367.792969 407.878906 366.742188 407.164062 365.710938 406.425781 C 364.679688 405.683594 363.667969 404.914062 362.679688 404.113281 C 361.691406 403.316406 360.726562 402.488281 359.785156 401.636719 C 358.84375 400.78125 357.925781 399.902344 357.035156 398.996094 C 356.144531 398.09375 355.277344 397.164062 354.441406 396.207031 C 353.601562 395.253906 352.789062 394.277344 352.007812 393.277344 C 351.222656 392.277344 350.46875 391.253906 349.742188 390.210938 C 349.015625 389.167969 348.320312 388.105469 347.65625 387.023438 C 346.988281 385.941406 346.355469 384.839844 345.753906 383.722656 C 345.148438 382.605469 344.578125 381.46875 344.039062 380.320312 C 343.5 379.167969 342.996094 378.003906 342.519531 376.824219 C 342.046875 375.644531 341.609375 374.453125 341.203125 373.25 C 340.796875 372.046875 340.425781 370.832031 340.089844 369.605469 C 339.753906 368.378906 339.453125 367.144531 339.1875 365.902344 C 338.917969 364.660156 338.6875 363.414062 338.492188 362.15625 C 338.296875 360.902344 338.136719 359.640625 338.011719 358.378906 C 337.886719 357.113281 337.796875 355.847656 337.746094 354.578125 C 337.691406 353.308594 337.675781 352.039062 337.695312 350.769531 C 337.714844 349.496094 337.769531 348.226562 337.859375 346.960938 C 337.949219 345.695312 338.078125 344.429688 338.238281 343.171875 C 338.402344 341.910156 338.601562 340.65625 338.832031 339.40625 C 339.066406 338.15625 339.335938 336.917969 339.640625 335.683594 C 339.945312 334.449219 340.28125 333.226562 340.65625 332.011719 C 341.027344 330.796875 341.4375 329.59375 341.878906 328.402344 C 342.320312 327.210938 342.792969 326.03125 343.300781 324.867188 C 343.808594 323.703125 344.351562 322.554688 344.925781 321.421875 C 345.496094 320.285156 346.101562 319.167969 346.738281 318.070312 C 347.375 316.96875 348.042969 315.890625 348.742188 314.828125 C 349.4375 313.765625 350.164062 312.722656 350.921875 311.703125 C 351.679688 310.683594 352.464844 309.683594 353.277344 308.707031 C 354.089844 307.730469 354.929688 306.78125 355.796875 305.851562 C 356.664062 304.921875 357.558594 304.019531 358.476562 303.140625 C 359.394531 302.261719 360.335938 301.410156 361.304688 300.585938 C 362.269531 299.761719 363.261719 298.964844 364.273438 298.195312 C 365.285156 297.425781 366.316406 296.6875 367.371094 295.976562 C 368.425781 295.265625 369.496094 294.585938 370.589844 293.9375 C 371.679688 293.289062 372.792969 292.671875 373.917969 292.082031 C 375.046875 291.496094 376.1875 290.941406 377.347656 290.421875 C 378.503906 289.898438 379.679688 289.410156 380.863281 288.953125 C 382.050781 288.5 383.25 288.078125 384.460938 287.691406 C 385.667969 287.300781 386.890625 286.949219 388.121094 286.628906 C 389.351562 286.3125 390.589844 286.027344 391.835938 285.78125 C 393.082031 285.53125 394.332031 285.316406 395.589844 285.140625 C 396.851562 284.960938 398.113281 284.820312 399.378906 284.714844 C 400.644531 284.609375 401.914062 284.539062 403.183594 284.503906 C 404.453125 284.46875 405.722656 284.472656 406.996094 284.507812 C 408.265625 284.546875 409.53125 284.621094 410.800781 284.730469 C 412.066406 284.839844 413.328125 284.984375 414.585938 285.164062 C 415.84375 285.347656 417.09375 285.5625 418.339844 285.816406 C 419.585938 286.066406 420.824219 286.351562 422.054688 286.675781 C 423.28125 286.996094 424.5 287.351562 425.710938 287.746094 C 426.917969 288.136719 428.117188 288.558594 429.300781 289.019531 C 430.488281 289.476562 431.660156 289.96875 432.816406 290.492188 C 433.972656 291.019531 435.113281 291.578125 436.238281 292.167969 C 436.542969 292.324219 436.828125 292.511719 437.09375 292.722656 C 437.363281 292.9375 437.605469 293.175781 437.824219 293.4375 C 438.042969 293.699219 438.234375 293.980469 438.398438 294.28125 C 438.5625 294.582031 438.695312 294.894531 438.800781 295.222656 C 438.902344 295.550781 438.96875 295.882812 439.007812 296.222656 C 439.042969 296.5625 439.042969 296.902344 439.011719 297.242188 C 438.980469 297.585938 438.917969 297.917969 438.820312 298.246094 C 438.722656 298.574219 438.59375 298.890625 438.433594 299.191406 C 438.273438 299.496094 438.085938 299.777344 437.871094 300.042969 C 437.652344 300.308594 437.414062 300.550781 437.152344 300.769531 C 436.886719 300.984375 436.605469 301.175781 436.304688 301.335938 C 436 301.5 435.6875 301.628906 435.359375 301.730469 C 435.03125 301.832031 434.699219 301.898438 434.359375 301.929688 C 434.019531 301.964844 433.675781 301.964844 433.335938 301.929688 C 432.996094 301.898438 432.664062 301.832031 432.335938 301.730469 C 432.007812 301.632812 431.695312 301.5 431.390625 301.339844 C 430.4375 300.839844 429.46875 300.367188 428.488281 299.921875 C 427.507812 299.476562 426.515625 299.0625 425.511719 298.671875 C 424.507812 298.285156 423.492188 297.925781 422.464844 297.59375 C 421.441406 297.261719 420.40625 296.960938 419.363281 296.691406 C 418.324219 296.417969 417.273438 296.175781 416.21875 295.960938 C 415.160156 295.75 414.101562 295.566406 413.035156 295.414062 C 411.96875 295.261719 410.898438 295.140625 409.824219 295.050781 C 408.75 294.957031 407.675781 294.898438 406.597656 294.867188 C 405.523438 294.835938 404.445312 294.835938 403.367188 294.867188 C 402.292969 294.894531 401.21875 294.957031 400.144531 295.050781 C 399.070312 295.140625 398 295.261719 396.933594 295.414062 C 395.867188 295.566406 394.808594 295.75 393.75 295.960938 C 392.695312 296.175781 391.644531 296.417969 390.601562 296.6875 C 389.5625 296.960938 388.527344 297.261719 387.503906 297.59375 C 386.476562 297.925781 385.460938 298.285156 384.457031 298.671875 C 383.453125 299.0625 382.460938 299.476562 381.480469 299.921875 C 380.496094 300.367188 379.53125 300.839844 378.574219 301.339844 C 377.621094 301.839844 376.683594 302.363281 375.757812 302.917969 C 374.832031 303.472656 373.925781 304.050781 373.035156 304.65625 C 372.144531 305.257812 371.269531 305.886719 370.414062 306.542969 C 369.558594 307.195312 368.722656 307.875 367.90625 308.574219 C 367.085938 309.277344 366.289062 310.003906 365.515625 310.75 C 364.738281 311.496094 363.984375 312.265625 363.25 313.054688 C 362.519531 313.84375 361.808594 314.652344 361.125 315.484375 C 360.4375 316.3125 359.773438 317.160156 359.136719 318.03125 C 358.496094 318.898438 357.886719 319.78125 357.296875 320.683594 C 356.707031 321.585938 356.148438 322.503906 355.609375 323.4375 C 355.074219 324.375 354.566406 325.324219 354.085938 326.285156 C 353.601562 327.25 353.148438 328.226562 352.722656 329.214844 C 352.296875 330.203125 351.898438 331.203125 351.527344 332.214844 C 351.15625 333.226562 350.816406 334.246094 350.503906 335.277344 C 350.195312 336.308594 349.910156 337.347656 349.660156 338.394531 C 349.40625 339.441406 349.183594 340.496094 348.988281 341.554688 C 348.796875 342.613281 348.632812 343.679688 348.503906 344.746094 C 348.371094 345.816406 348.265625 346.886719 348.195312 347.960938 C 348.125 349.035156 348.082031 350.113281 348.074219 351.1875 C 348.0625 352.265625 348.082031 353.34375 348.132812 354.417969 C 348.183594 355.492188 348.265625 356.566406 348.375 357.636719 C 348.488281 358.710938 348.628906 359.777344 348.800781 360.839844 C 348.972656 361.902344 349.175781 362.960938 349.410156 364.011719 C 349.640625 365.0625 349.902344 366.109375 350.195312 367.144531 C 350.484375 368.179688 350.808594 369.210938 351.15625 370.226562 C 351.507812 371.246094 351.886719 372.253906 352.292969 373.25 C 352.699219 374.25 353.132812 375.234375 353.597656 376.207031 C 354.0625 377.179688 354.550781 378.136719 355.070312 379.082031 C 355.585938 380.023438 356.128906 380.953125 356.699219 381.867188 C 357.269531 382.78125 357.867188 383.679688 358.488281 384.558594 C 359.109375 385.4375 359.753906 386.300781 360.425781 387.144531 C 361.09375 387.984375 361.789062 388.808594 362.503906 389.613281 C 363.222656 390.417969 363.960938 391.199219 364.722656 391.960938 C 365.484375 392.722656 366.265625 393.464844 367.070312 394.179688 C 367.875 394.898438 368.695312 395.59375 369.539062 396.261719 C 370.382812 396.933594 371.242188 397.578125 372.121094 398.203125 C 373 398.824219 373.898438 399.421875 374.8125 399.992188 C 375.726562 400.5625 376.652344 401.105469 377.597656 401.625 C 378.542969 402.144531 379.5 402.632812 380.472656 403.097656 C 381.445312 403.5625 382.429688 403.996094 383.425781 404.40625 C 384.421875 404.8125 385.429688 405.191406 386.449219 405.542969 C 387.46875 405.894531 388.496094 406.214844 389.53125 406.507812 C 390.570312 406.800781 391.613281 407.0625 392.664062 407.296875 C 393.71875 407.527344 394.773438 407.730469 395.835938 407.90625 C 396.902344 408.078125 397.96875 408.222656 399.039062 408.332031 C 400.109375 408.445312 401.183594 408.527344 402.261719 408.578125 C 403.335938 408.632812 404.414062 408.652344 405.488281 408.644531 C 406.566406 408.632812 407.644531 408.59375 408.71875 408.523438 C 409.792969 408.453125 410.863281 408.351562 411.933594 408.21875 C 413.003906 408.085938 414.066406 407.925781 415.128906 407.734375 C 416.1875 407.542969 417.242188 407.320312 418.289062 407.066406 C 419.335938 406.816406 420.375 406.535156 421.40625 406.222656 C 422.4375 405.914062 423.460938 405.574219 424.472656 405.203125 C 425.484375 404.835938 426.484375 404.4375 427.472656 404.011719 C 428.464844 403.585938 429.441406 403.132812 430.40625 402.652344 C 431.367188 402.171875 432.316406 401.664062 433.253906 401.128906 C 434.1875 400.59375 435.105469 400.035156 436.007812 399.445312 C 436.914062 398.859375 437.796875 398.246094 438.667969 397.609375 C 439.535156 396.972656 440.382812 396.3125 441.214844 395.625 C 442.046875 394.941406 442.855469 394.230469 443.648438 393.5 C 444.4375 392.769531 445.207031 392.015625 445.953125 391.238281 C 446.703125 390.464844 447.425781 389.667969 448.128906 388.851562 C 448.832031 388.035156 449.511719 387.199219 450.164062 386.34375 C 450.820312 385.488281 451.449219 384.617188 452.054688 383.726562 C 452.660156 382.835938 453.242188 381.929688 453.796875 381.003906 C 454.347656 380.082031 454.875 379.140625 455.378906 378.1875 C 455.878906 377.234375 456.351562 376.269531 456.796875 375.289062 C 457.242188 374.308594 457.660156 373.316406 458.050781 372.308594 C 458.4375 371.304688 458.800781 370.292969 459.132812 369.265625 C 459.460938 368.242188 459.765625 367.210938 460.039062 366.167969 C 460.3125 365.125 460.554688 364.078125 460.769531 363.023438 C 460.980469 361.964844 461.164062 360.90625 461.316406 359.839844 C 461.472656 358.773438 461.59375 357.703125 461.6875 356.628906 C 461.78125 355.558594 461.839844 354.484375 461.871094 353.40625 C 461.90625 352.328125 461.90625 351.253906 461.875 350.175781 C 461.847656 349.101562 461.785156 348.027344 461.695312 346.953125 C 461.605469 345.878906 461.484375 344.808594 461.332031 343.742188 C 461.179688 342.675781 461 341.617188 460.785156 340.558594 C 460.574219 339.503906 460.332031 338.453125 460.0625 337.414062 C 459.976562 337.082031 459.921875 336.75 459.902344 336.40625 C 459.882812 336.066406 459.894531 335.730469 459.941406 335.390625 C 459.988281 335.054688 460.066406 334.722656 460.175781 334.402344 C 460.289062 334.078125 460.429688 333.773438 460.601562 333.476562 C 460.773438 333.183594 460.972656 332.910156 461.199219 332.652344 C 461.425781 332.398438 461.675781 332.167969 461.945312 331.964844 C 462.21875 331.757812 462.507812 331.578125 462.8125 331.429688 C 463.121094 331.28125 463.4375 331.164062 463.765625 331.078125 C 464.097656 330.992188 464.433594 330.9375 464.773438 330.917969 C 465.113281 330.898438 465.449219 330.910156 465.789062 330.957031 C 466.125 331.003906 466.457031 331.082031 466.777344 331.191406 C 467.101562 331.304688 467.410156 331.445312 467.703125 331.617188 C 467.996094 331.789062 468.273438 331.988281 468.527344 332.214844 C 468.78125 332.441406 469.011719 332.6875 469.21875 332.960938 C 469.425781 333.230469 469.601562 333.519531 469.75 333.828125 C 469.898438 334.132812 470.015625 334.453125 470.105469 334.78125 C 470.425781 336.019531 470.714844 337.269531 470.96875 338.523438 C 471.21875 339.777344 471.4375 341.039062 471.617188 342.308594 C 471.796875 343.574219 471.941406 344.847656 472.046875 346.125 C 472.15625 347.398438 472.226562 348.675781 472.261719 349.957031 C 472.296875 351.238281 472.292969 352.515625 472.253906 353.796875 C 472.214844 355.078125 472.140625 356.355469 472.03125 357.628906 C 471.917969 358.90625 471.769531 360.179688 471.585938 361.445312 C 471.402344 362.710938 471.183594 363.972656 470.925781 365.226562 C 470.671875 366.484375 470.378906 367.730469 470.050781 368.96875 C 469.726562 370.203125 469.363281 371.433594 468.964844 372.648438 C 468.570312 373.867188 468.136719 375.074219 467.671875 376.265625 C 467.203125 377.457031 466.707031 378.636719 466.171875 379.800781 C 465.636719 380.964844 465.074219 382.113281 464.472656 383.246094 C 463.875 384.375 463.242188 385.492188 462.582031 386.585938 C 461.917969 387.683594 461.226562 388.757812 460.503906 389.816406 C 459.777344 390.871094 459.023438 391.90625 458.242188 392.917969 C 457.457031 393.933594 456.648438 394.921875 455.808594 395.890625 C 454.96875 396.855469 454.101562 397.800781 453.207031 398.71875 C 452.316406 399.636719 451.398438 400.527344 450.453125 401.390625 C 449.507812 402.257812 448.539062 403.09375 447.546875 403.902344 C 446.554688 404.714844 445.542969 405.496094 444.503906 406.246094 C 443.46875 407 442.410156 407.722656 441.332031 408.414062 C 440.253906 409.105469 439.160156 409.765625 438.042969 410.394531 C 436.929688 411.023438 435.796875 411.621094 434.644531 412.183594 C 433.496094 412.75 432.332031 413.28125 431.152344 413.777344 C 429.972656 414.277344 428.777344 414.742188 427.570312 415.171875 C 426.367188 415.601562 425.148438 415.996094 423.917969 416.355469 C 422.691406 416.714844 421.453125 417.042969 420.203125 417.332031 C 418.957031 417.621094 417.703125 417.875 416.4375 418.09375 C 415.175781 418.3125 413.910156 418.492188 412.636719 418.640625 C 411.363281 418.785156 410.089844 418.894531 408.8125 418.96875 C 407.53125 419.042969 406.253906 419.078125 404.972656 419.078125 Z M 401.613281 357.386719 C 402.300781 357.386719 402.960938 357.253906 403.597656 356.992188 C 404.234375 356.726562 404.796875 356.351562 405.28125 355.867188 L 458.125 303.074219 C 458.484375 302.722656 458.894531 302.453125 459.359375 302.265625 C 459.824219 302.078125 460.304688 301.984375 460.808594 301.984375 C 461.308594 301.984375 461.792969 302.078125 462.257812 302.265625 C 462.71875 302.453125 463.132812 302.722656 463.492188 303.074219 C 463.847656 303.429688 464.125 303.839844 464.316406 304.304688 C 464.511719 304.769531 464.609375 305.253906 464.609375 305.757812 C 464.609375 306.261719 464.511719 306.746094 464.316406 307.210938 C 464.125 307.675781 463.847656 308.085938 463.492188 308.441406 L 404.316406 367.601562 C 403.949219 367.945312 403.53125 368.207031 403.066406 368.390625 C 402.597656 368.574219 402.113281 368.667969 401.613281 368.667969 C 401.113281 368.667969 400.628906 368.574219 400.160156 368.390625 C 399.695312 368.207031 399.277344 367.945312 398.914062 367.601562 L 372.976562 341.671875 C 372.242188 340.933594 371.875 340.046875 371.871094 339.007812 C 371.871094 338.628906 371.925781 338.261719 372.035156 337.902344 C 372.144531 337.542969 372.304688 337.207031 372.515625 336.890625 C 372.726562 336.578125 372.976562 336.304688 373.265625 336.066406 C 373.558594 335.824219 373.878906 335.632812 374.226562 335.488281 C 374.574219 335.347656 374.933594 335.253906 375.308594 335.21875 C 375.683594 335.179688 376.054688 335.199219 376.425781 335.269531 C 376.796875 335.34375 377.144531 335.46875 377.480469 335.644531 C 377.8125 335.820312 378.113281 336.042969 378.378906 336.304688 L 397.945312 355.867188 C 398.429688 356.351562 398.992188 356.726562 399.628906 356.992188 C 400.261719 357.253906 400.925781 357.386719 401.613281 357.386719 Z M 491.640625 555.71875 L 488.699219 565.515625 C 488.632812 565.714844 488.535156 565.894531 488.402344 566.054688 C 488.269531 566.214844 488.109375 566.34375 487.925781 566.445312 C 487.742188 566.542969 487.546875 566.605469 487.339844 566.632812 C 487.132812 566.65625 486.925781 566.640625 486.726562 566.585938 L 417.714844 545.746094 C 417.296875 545.625 416.984375 545.371094 416.78125 544.988281 C 416.582031 544.597656 416.546875 544.191406 416.675781 543.773438 L 419.621094 533.976562 C 419.679688 533.777344 419.773438 533.59375 419.90625 533.429688 C 420.039062 533.265625 420.199219 533.132812 420.382812 533.035156 C 420.570312 532.933594 420.765625 532.871094 420.976562 532.847656 C 421.183594 532.828125 421.390625 532.84375 421.59375 532.90625 L 490.601562 553.742188 C 490.804688 553.804688 490.984375 553.898438 491.148438 554.03125 C 491.3125 554.167969 491.441406 554.324219 491.539062 554.511719 C 491.636719 554.699219 491.695312 554.894531 491.710938 555.105469 C 491.730469 555.3125 491.707031 555.519531 491.640625 555.71875 Z M 562.207031 366.941406 L 535.132812 470.347656 C 534.097656 474.308594 532.558594 478.0625 530.511719 481.613281 C 528.46875 485.160156 525.992188 488.375 523.082031 491.257812 L 498.601562 515.523438 C 496.058594 518.039062 493.867188 520.828125 492.027344 523.894531 C 490.1875 526.960938 488.753906 530.203125 487.730469 533.628906 L 485.410156 541.316406 L 444.863281 529.0625 L 433.921875 525.773438 L 447.875 479.625 C 448.523438 477.492188 449.65625 475.660156 451.269531 474.121094 L 451.613281 473.808594 L 483.539062 443.792969 C 484.089844 443.285156 484.699219 442.855469 485.363281 442.503906 C 486.027344 442.152344 486.722656 441.894531 487.457031 441.722656 C 488.1875 441.554688 488.929688 441.480469 489.679688 441.5 C 490.429688 441.523438 491.164062 441.640625 491.882812 441.855469 C 493.324219 442.265625 494.546875 443.027344 495.554688 444.136719 C 496.433594 445.054688 497.066406 446.113281 497.457031 447.320312 C 497.703125 448.085938 497.835938 448.867188 497.859375 449.667969 C 497.882812 450.46875 497.792969 451.257812 497.589844 452.03125 C 497.386719 452.808594 497.082031 453.539062 496.671875 454.226562 C 496.261719 454.917969 495.761719 455.535156 495.175781 456.078125 L 469.550781 480.140625 C 469.304688 480.375 469.085938 480.632812 468.890625 480.910156 C 468.699219 481.1875 468.53125 481.484375 468.394531 481.792969 C 468.257812 482.105469 468.152344 482.425781 468.078125 482.753906 C 468.003906 483.085938 467.964844 483.421875 467.953125 483.761719 C 467.945312 484.101562 467.96875 484.4375 468.027344 484.773438 C 468.085938 485.105469 468.175781 485.433594 468.296875 485.75 C 468.417969 486.066406 468.566406 486.367188 468.746094 486.65625 C 468.929688 486.945312 469.132812 487.210938 469.367188 487.457031 C 469.597656 487.707031 469.855469 487.929688 470.128906 488.125 C 470.40625 488.324219 470.699219 488.492188 471.007812 488.632812 C 471.316406 488.773438 471.636719 488.882812 471.96875 488.957031 C 472.296875 489.035156 472.632812 489.082031 472.972656 489.09375 C 473.3125 489.105469 473.648438 489.085938 473.984375 489.03125 C 474.316406 488.976562 474.644531 488.890625 474.964844 488.773438 C 475.28125 488.65625 475.585938 488.507812 475.875 488.332031 C 476.164062 488.15625 476.433594 487.953125 476.683594 487.722656 L 502.273438 463.660156 C 503.4375 462.570312 504.445312 461.355469 505.300781 460.007812 C 506.152344 458.660156 506.828125 457.230469 507.316406 455.714844 C 507.808594 454.195312 508.101562 452.644531 508.195312 451.050781 C 508.292969 449.460938 508.1875 447.882812 507.882812 446.316406 L 548.464844 361.847656 C 548.652344 361.457031 548.875 361.082031 549.128906 360.730469 C 549.382812 360.378906 549.667969 360.050781 549.980469 359.746094 C 550.292969 359.445312 550.628906 359.171875 550.992188 358.929688 C 551.351562 358.6875 551.734375 358.476562 552.132812 358.304688 C 552.53125 358.128906 552.941406 357.992188 553.363281 357.886719 C 553.789062 357.785156 554.21875 357.722656 554.652344 357.699219 C 555.085938 357.671875 555.519531 357.6875 555.953125 357.738281 C 556.382812 357.789062 556.808594 357.878906 557.226562 358.007812 C 557.679688 358.140625 558.113281 358.320312 558.535156 358.539062 C 558.953125 358.757812 559.347656 359.015625 559.714844 359.3125 C 560.085938 359.609375 560.421875 359.9375 560.726562 360.300781 C 561.035156 360.660156 561.300781 361.050781 561.53125 361.460938 C 561.761719 361.875 561.953125 362.308594 562.097656 362.757812 C 562.246094 363.207031 562.347656 363.667969 562.40625 364.136719 C 562.464844 364.605469 562.476562 365.078125 562.445312 365.546875 C 562.410156 366.019531 562.332031 366.484375 562.210938 366.941406 Z M 393.269531 543.773438 C 393.328125 543.972656 393.351562 544.175781 393.332031 544.386719 C 393.3125 544.59375 393.253906 544.789062 393.15625 544.972656 C 393.058594 545.160156 392.929688 545.316406 392.769531 545.453125 C 392.609375 545.585938 392.429688 545.683594 392.230469 545.746094 L 323.21875 566.585938 C 323.019531 566.640625 322.8125 566.65625 322.605469 566.628906 C 322.398438 566.605469 322.203125 566.542969 322.019531 566.445312 C 321.835938 566.34375 321.675781 566.214844 321.542969 566.054688 C 321.410156 565.894531 321.3125 565.714844 321.246094 565.515625 L 318.265625 555.71875 C 318.207031 555.515625 318.191406 555.308594 318.214844 555.101562 C 318.238281 554.890625 318.300781 554.695312 318.398438 554.511719 C 318.5 554.328125 318.632812 554.167969 318.792969 554.035156 C 318.957031 553.902344 319.140625 553.804688 319.339844 553.742188 L 388.316406 532.902344 C 388.476562 532.867188 388.636719 532.84375 388.800781 532.835938 C 389.054688 532.84375 389.296875 532.898438 389.527344 533.007812 C 389.914062 533.230469 390.179688 533.554688 390.324219 533.976562 Z M 322.214844 533.632812 C 321.183594 530.207031 319.742188 526.960938 317.894531 523.898438 C 316.050781 520.832031 313.855469 518.042969 311.3125 515.527344 L 286.863281 491.257812 C 283.953125 488.371094 281.476562 485.15625 279.425781 481.609375 C 277.375 478.0625 275.828125 474.308594 274.777344 470.347656 L 247.734375 366.941406 C 247.617188 366.503906 247.542969 366.058594 247.507812 365.605469 C 247.472656 365.152344 247.480469 364.699219 247.53125 364.246094 C 247.582031 363.796875 247.671875 363.351562 247.804688 362.917969 C 247.9375 362.484375 248.105469 362.066406 248.316406 361.660156 C 248.527344 361.257812 248.769531 360.878906 249.050781 360.519531 C 249.332031 360.164062 249.640625 359.835938 249.980469 359.535156 C 250.324219 359.234375 250.6875 358.96875 251.078125 358.734375 C 251.46875 358.503906 251.878906 358.308594 252.304688 358.152344 C 252.730469 357.996094 253.167969 357.878906 253.613281 357.800781 C 254.0625 357.726562 254.515625 357.691406 254.96875 357.699219 C 255.421875 357.707031 255.871094 357.757812 256.316406 357.847656 C 256.761719 357.941406 257.195312 358.070312 257.617188 358.242188 C 258.035156 358.414062 258.4375 358.621094 258.820312 358.867188 C 259.203125 359.113281 259.558594 359.390625 259.890625 359.703125 C 260.21875 360.015625 260.519531 360.355469 260.785156 360.722656 C 261.054688 361.089844 261.285156 361.476562 261.480469 361.886719 L 302.066406 446.320312 C 301.761719 447.886719 301.65625 449.460938 301.753906 451.050781 C 301.847656 452.640625 302.136719 454.195312 302.625 455.710938 C 303.113281 457.226562 303.78125 458.65625 304.628906 460.003906 C 305.480469 461.351562 306.484375 462.574219 307.640625 463.667969 L 333.257812 487.726562 C 334.265625 488.65625 335.453125 489.121094 336.824219 489.109375 C 337.539062 489.105469 338.222656 488.960938 338.878906 488.679688 C 339.53125 488.398438 340.105469 488 340.601562 487.484375 C 340.835938 487.234375 341.042969 486.96875 341.226562 486.679688 C 341.40625 486.386719 341.558594 486.085938 341.679688 485.765625 C 341.800781 485.445312 341.886719 485.117188 341.945312 484.78125 C 342 484.445312 342.023438 484.105469 342.011719 483.761719 C 342 483.421875 341.953125 483.085938 341.875 482.753906 C 341.796875 482.421875 341.6875 482.097656 341.546875 481.789062 C 341.40625 481.476562 341.234375 481.183594 341.035156 480.90625 C 340.832031 480.632812 340.609375 480.375 340.359375 480.144531 L 314.734375 456.050781 C 314.328125 455.671875 313.964844 455.257812 313.644531 454.808594 C 313.320312 454.359375 313.046875 453.882812 312.816406 453.378906 C 312.589844 452.875 312.410156 452.351562 312.285156 451.8125 C 312.160156 451.273438 312.089844 450.726562 312.070312 450.175781 C 312.054688 449.621094 312.089844 449.070312 312.179688 448.527344 C 312.273438 447.980469 312.414062 447.449219 312.609375 446.929688 C 312.808594 446.414062 313.050781 445.917969 313.34375 445.449219 C 313.636719 444.980469 313.972656 444.542969 314.355469 444.140625 C 315.378906 443.039062 316.613281 442.277344 318.058594 441.859375 C 318.773438 441.644531 319.5 441.527344 320.246094 441.503906 C 320.988281 441.480469 321.722656 441.550781 322.449219 441.71875 C 323.171875 441.882812 323.863281 442.140625 324.523438 442.488281 C 325.183594 442.832031 325.785156 443.257812 326.335938 443.761719 L 358.292969 473.804688 L 358.328125 473.804688 L 358.675781 474.117188 C 360.289062 475.65625 361.421875 477.488281 362.070312 479.621094 L 376.023438 525.769531 L 324.535156 541.316406 Z M 322.214844 533.632812 " fill-opacity="1" fill-rule="nonzero"/></svg>