<svg xmlns="http://www.w3.org/2000/svg" xmlns:xlink="http://www.w3.org/1999/xlink" width="1080" zoomAndPan="magnify" viewBox="0 0 810 809.999993" height="1080" preserveAspectRatio="xMidYMid meet" version="1.0"><defs><clipPath id="7eba7e6490"><path d="M 239.21875 264.195312 L 447 264.195312 L 447 588 L 239.21875 588 Z M 239.21875 264.195312 " clip-rule="nonzero"/></clipPath></defs><g clip-path="url(#7eba7e6490)"><path fill="#ffffff" d="M 415.632812 264.769531 L 270.351562 264.769531 C 269.332031 264.769531 268.316406 264.820312 267.300781 264.921875 C 266.285156 265.019531 265.277344 265.167969 264.277344 265.367188 C 263.277344 265.566406 262.289062 265.816406 261.316406 266.109375 C 260.339844 266.40625 259.378906 266.75 258.4375 267.140625 C 257.496094 267.53125 256.574219 267.964844 255.675781 268.445312 C 254.777344 268.925781 253.902344 269.449219 253.054688 270.015625 C 252.207031 270.582031 251.390625 271.191406 250.601562 271.835938 C 249.8125 272.484375 249.058594 273.167969 248.339844 273.886719 C 247.617188 274.609375 246.933594 275.363281 246.285156 276.152344 C 245.640625 276.941406 245.03125 277.757812 244.464844 278.605469 C 243.898438 279.453125 243.375 280.328125 242.894531 281.226562 C 242.414062 282.125 241.980469 283.046875 241.589844 283.988281 C 241.199219 284.929688 240.855469 285.890625 240.558594 286.863281 C 240.265625 287.839844 240.015625 288.828125 239.816406 289.828125 C 239.621094 290.828125 239.46875 291.835938 239.371094 292.851562 C 239.269531 293.863281 239.21875 294.882812 239.21875 295.902344 L 239.21875 310.890625 L 331.460938 310.890625 C 332.21875 310.890625 332.96875 310.964844 333.710938 311.113281 C 334.453125 311.261719 335.175781 311.480469 335.875 311.769531 C 336.574219 312.058594 337.238281 312.414062 337.867188 312.835938 C 338.496094 313.253906 339.078125 313.734375 339.613281 314.269531 C 340.152344 314.804688 340.628906 315.386719 341.050781 316.015625 C 341.46875 316.644531 341.824219 317.308594 342.113281 318.007812 C 342.402344 318.707031 342.621094 319.429688 342.769531 320.171875 C 342.917969 320.914062 342.992188 321.664062 342.992188 322.421875 C 342.992188 323.179688 342.917969 323.929688 342.769531 324.671875 C 342.621094 325.414062 342.402344 326.132812 342.113281 326.832031 C 341.824219 327.535156 341.46875 328.199219 341.050781 328.828125 C 340.628906 329.457031 340.152344 330.039062 339.613281 330.574219 C 339.078125 331.109375 338.496094 331.585938 337.867188 332.007812 C 337.238281 332.429688 336.574219 332.785156 335.875 333.074219 C 335.175781 333.363281 334.453125 333.582031 333.710938 333.730469 C 332.96875 333.878906 332.21875 333.953125 331.460938 333.953125 L 239.21875 333.953125 L 239.21875 518.4375 L 362.941406 518.4375 C 357.289062 513.609375 352.328125 508.152344 348.066406 502.0625 C 345.367188 498.21875 342.980469 494.191406 340.902344 489.980469 C 338.824219 485.769531 337.078125 481.425781 335.671875 476.945312 C 334.261719 472.464844 333.207031 467.90625 332.5 463.261719 C 331.792969 458.621094 331.449219 453.949219 331.460938 449.253906 C 331.460938 447.746094 331.5 446.234375 331.574219 444.726562 C 331.648438 443.21875 331.757812 441.714844 331.90625 440.210938 C 332.054688 438.710938 332.238281 437.210938 332.460938 435.71875 C 332.683594 434.226562 332.941406 432.738281 333.234375 431.257812 C 333.527344 429.777344 333.859375 428.304688 334.226562 426.839844 C 334.59375 425.375 334.996094 423.921875 335.433594 422.476562 C 335.871094 421.03125 336.34375 419.601562 336.855469 418.179688 C 337.363281 416.757812 337.90625 415.347656 338.484375 413.953125 C 339.0625 412.558594 339.671875 411.179688 340.316406 409.816406 C 340.964844 408.449219 341.640625 407.101562 342.355469 405.773438 C 343.066406 404.441406 343.808594 403.128906 344.585938 401.832031 C 345.363281 400.539062 346.167969 399.261719 347.007812 398.007812 C 347.847656 396.753906 348.714844 395.519531 349.613281 394.304688 C 350.515625 393.09375 351.441406 391.902344 352.398438 390.738281 C 353.359375 389.570312 354.34375 388.425781 355.355469 387.308594 C 356.371094 386.191406 357.410156 385.097656 358.480469 384.027344 C 359.546875 382.960938 360.640625 381.921875 361.757812 380.90625 C 362.875 379.894531 364.019531 378.90625 365.1875 377.949219 C 366.351562 376.992188 367.542969 376.0625 368.753906 375.164062 C 369.96875 374.265625 371.203125 373.394531 372.457031 372.558594 C 373.710938 371.71875 374.988281 370.910156 376.28125 370.136719 C 377.578125 369.359375 378.890625 368.617188 380.222656 367.902344 C 381.554688 367.191406 382.902344 366.515625 384.265625 365.867188 C 385.628906 365.222656 387.011719 364.613281 388.40625 364.035156 C 389.800781 363.457031 391.207031 362.914062 392.628906 362.402344 C 394.050781 361.894531 395.484375 361.421875 396.925781 360.984375 C 398.371094 360.546875 399.828125 360.144531 401.289062 359.777344 C 402.753906 359.410156 404.226562 359.078125 405.707031 358.785156 C 407.1875 358.488281 408.675781 358.230469 410.167969 358.011719 C 411.664062 357.789062 413.160156 357.605469 414.664062 357.457031 C 416.164062 357.308594 417.671875 357.199219 419.179688 357.125 C 420.6875 357.050781 422.195312 357.011719 423.703125 357.011719 C 428.933594 357.007812 434.121094 357.46875 439.269531 358.394531 C 441.804688 358.394531 444.34375 359.316406 446.765625 360.011719 L 446.765625 295.902344 C 446.765625 294.882812 446.714844 293.863281 446.613281 292.851562 C 446.515625 291.835938 446.363281 290.828125 446.167969 289.828125 C 445.96875 288.828125 445.71875 287.839844 445.425781 286.863281 C 445.128906 285.890625 444.785156 284.929688 444.394531 283.988281 C 444.003906 283.046875 443.570312 282.125 443.089844 281.226562 C 442.609375 280.328125 442.085938 279.453125 441.519531 278.605469 C 440.953125 277.757812 440.34375 276.941406 439.699219 276.152344 C 439.050781 275.363281 438.367188 274.609375 437.644531 273.886719 C 436.925781 273.167969 436.171875 272.484375 435.382812 271.835938 C 434.59375 271.191406 433.777344 270.582031 432.929688 270.015625 C 432.082031 269.449219 431.207031 268.925781 430.308594 268.445312 C 429.410156 267.964844 428.488281 267.53125 427.546875 267.140625 C 426.605469 266.75 425.644531 266.40625 424.667969 266.109375 C 423.695312 265.816406 422.707031 265.566406 421.707031 265.367188 C 420.707031 265.167969 419.699219 265.019531 418.683594 264.921875 C 417.667969 264.820312 416.652344 264.769531 415.632812 264.769531 Z M 366.050781 333.953125 C 365.296875 333.953125 364.546875 333.878906 363.804688 333.730469 C 363.0625 333.582031 362.339844 333.363281 361.640625 333.074219 C 360.941406 332.785156 360.277344 332.429688 359.648438 332.007812 C 359.015625 331.585938 358.433594 331.109375 357.898438 330.574219 C 357.363281 330.039062 356.886719 329.457031 356.464844 328.828125 C 356.046875 328.199219 355.691406 327.535156 355.398438 326.832031 C 355.109375 326.132812 354.890625 325.414062 354.742188 324.671875 C 354.597656 323.929688 354.523438 323.179688 354.523438 322.421875 C 354.523438 321.664062 354.597656 320.914062 354.742188 320.171875 C 354.890625 319.429688 355.109375 318.707031 355.398438 318.007812 C 355.691406 317.308594 356.046875 316.644531 356.464844 316.015625 C 356.886719 315.386719 357.363281 314.804688 357.898438 314.269531 C 358.433594 313.734375 359.015625 313.253906 359.648438 312.835938 C 360.277344 312.414062 360.941406 312.058594 361.640625 311.769531 C 362.339844 311.480469 363.0625 311.261719 363.804688 311.113281 C 364.546875 310.964844 365.296875 310.890625 366.050781 310.890625 C 366.808594 310.890625 367.558594 310.964844 368.300781 311.113281 C 369.042969 311.261719 369.765625 311.480469 370.464844 311.769531 C 371.164062 312.058594 371.828125 312.414062 372.457031 312.835938 C 373.089844 313.253906 373.671875 313.734375 374.207031 314.269531 C 374.742188 314.804688 375.21875 315.386719 375.640625 316.015625 C 376.058594 316.644531 376.414062 317.308594 376.707031 318.007812 C 376.996094 318.707031 377.214844 319.429688 377.363281 320.171875 C 377.507812 320.914062 377.582031 321.664062 377.582031 322.421875 C 377.582031 323.179688 377.507812 323.929688 377.363281 324.671875 C 377.214844 325.414062 376.996094 326.132812 376.707031 326.832031 C 376.414062 327.535156 376.058594 328.199219 375.640625 328.828125 C 375.21875 329.457031 374.742188 330.039062 374.207031 330.574219 C 373.671875 331.109375 373.089844 331.585938 372.457031 332.007812 C 371.828125 332.429688 371.164062 332.785156 370.464844 333.074219 C 369.765625 333.363281 369.042969 333.582031 368.300781 333.730469 C 367.558594 333.878906 366.808594 333.953125 366.050781 333.953125 Z M 366.050781 299.359375 L 319.933594 299.359375 C 319.175781 299.359375 318.425781 299.285156 317.683594 299.140625 C 316.941406 298.992188 316.21875 298.773438 315.519531 298.484375 C 314.820312 298.195312 314.15625 297.839844 313.527344 297.417969 C 312.894531 296.996094 312.3125 296.519531 311.777344 295.984375 C 311.242188 295.449219 310.765625 294.867188 310.34375 294.238281 C 309.925781 293.605469 309.570312 292.941406 309.277344 292.242188 C 308.988281 291.542969 308.769531 290.824219 308.621094 290.082031 C 308.476562 289.335938 308.402344 288.585938 308.402344 287.832031 C 308.402344 287.074219 308.476562 286.324219 308.621094 285.582031 C 308.769531 284.839844 308.988281 284.117188 309.277344 283.417969 C 309.570312 282.71875 309.925781 282.054688 310.34375 281.425781 C 310.765625 280.796875 311.242188 280.214844 311.777344 279.675781 C 312.3125 279.140625 312.894531 278.664062 313.527344 278.242188 C 314.15625 277.824219 314.820312 277.46875 315.519531 277.179688 C 316.21875 276.886719 316.941406 276.667969 317.683594 276.523438 C 318.425781 276.375 319.175781 276.300781 319.933594 276.300781 L 366.050781 276.300781 C 366.808594 276.300781 367.558594 276.375 368.300781 276.523438 C 369.042969 276.667969 369.765625 276.886719 370.464844 277.179688 C 371.164062 277.46875 371.828125 277.824219 372.457031 278.242188 C 373.089844 278.664062 373.671875 279.140625 374.207031 279.675781 C 374.742188 280.214844 375.21875 280.796875 375.640625 281.425781 C 376.058594 282.054688 376.414062 282.71875 376.707031 283.417969 C 376.996094 284.117188 377.214844 284.839844 377.363281 285.582031 C 377.507812 286.324219 377.582031 287.074219 377.582031 287.832031 C 377.582031 288.585938 377.507812 289.335938 377.363281 290.082031 C 377.214844 290.824219 376.996094 291.542969 376.707031 292.242188 C 376.414062 292.941406 376.058594 293.605469 375.640625 294.238281 C 375.21875 294.867188 374.742188 295.449219 374.207031 295.984375 C 373.671875 296.519531 373.089844 296.996094 372.457031 297.417969 C 371.828125 297.839844 371.164062 298.195312 370.464844 298.484375 C 369.765625 298.773438 369.042969 298.992188 368.300781 299.140625 C 367.558594 299.285156 366.808594 299.359375 366.050781 299.359375 Z M 400.644531 333.953125 C 399.886719 333.953125 399.136719 333.878906 398.394531 333.730469 C 397.652344 333.582031 396.929688 333.363281 396.230469 333.074219 C 395.53125 332.785156 394.867188 332.429688 394.238281 332.007812 C 393.609375 331.585938 393.027344 331.109375 392.492188 330.574219 C 391.953125 330.039062 391.476562 329.457031 391.054688 328.828125 C 390.636719 328.199219 390.28125 327.535156 389.992188 326.832031 C 389.699219 326.132812 389.484375 325.414062 389.335938 324.671875 C 389.1875 323.929688 389.113281 323.179688 389.113281 322.421875 C 389.113281 321.664062 389.1875 320.914062 389.335938 320.171875 C 389.484375 319.429688 389.699219 318.707031 389.992188 318.007812 C 390.28125 317.308594 390.636719 316.644531 391.054688 316.015625 C 391.476562 315.386719 391.953125 314.804688 392.492188 314.269531 C 393.027344 313.734375 393.609375 313.253906 394.238281 312.835938 C 394.867188 312.414062 395.53125 312.058594 396.230469 311.769531 C 396.929688 311.480469 397.652344 311.261719 398.394531 311.113281 C 399.136719 310.964844 399.886719 310.890625 400.644531 310.890625 C 401.402344 310.890625 402.148438 310.964844 402.894531 311.113281 C 403.636719 311.261719 404.355469 311.480469 405.054688 311.769531 C 405.753906 312.058594 406.417969 312.414062 407.050781 312.835938 C 407.679688 313.253906 408.261719 313.734375 408.796875 314.269531 C 409.332031 314.804688 409.808594 315.386719 410.230469 316.015625 C 410.652344 316.644531 411.007812 317.308594 411.296875 318.007812 C 411.585938 318.707031 411.804688 319.429688 411.953125 320.171875 C 412.101562 320.914062 412.171875 321.664062 412.171875 322.421875 C 412.171875 323.179688 412.101562 323.929688 411.953125 324.671875 C 411.804688 325.414062 411.585938 326.132812 411.296875 326.832031 C 411.007812 327.535156 410.652344 328.199219 410.230469 328.828125 C 409.808594 329.457031 409.332031 330.039062 408.796875 330.574219 C 408.261719 331.109375 407.679688 331.585938 407.050781 332.007812 C 406.417969 332.429688 405.753906 332.785156 405.054688 333.074219 C 404.355469 333.363281 403.636719 333.582031 402.894531 333.730469 C 402.148438 333.878906 401.402344 333.953125 400.644531 333.953125 Z M 239.21875 541.496094 L 239.21875 556.484375 C 239.21875 557.503906 239.269531 558.523438 239.371094 559.535156 C 239.46875 560.550781 239.621094 561.558594 239.816406 562.558594 C 240.015625 563.558594 240.265625 564.546875 240.558594 565.523438 C 240.855469 566.5 241.199219 567.457031 241.589844 568.398438 C 241.980469 569.339844 242.414062 570.261719 242.894531 571.160156 C 243.375 572.058594 243.898438 572.933594 244.464844 573.78125 C 245.03125 574.628906 245.640625 575.445312 246.285156 576.234375 C 246.933594 577.023438 247.617188 577.777344 248.339844 578.5 C 249.058594 579.21875 249.8125 579.902344 250.601562 580.550781 C 251.390625 581.199219 252.207031 581.804688 253.054688 582.371094 C 253.902344 582.9375 254.777344 583.460938 255.675781 583.941406 C 256.574219 584.421875 257.496094 584.855469 258.4375 585.246094 C 259.378906 585.636719 260.339844 585.980469 261.316406 586.277344 C 262.289062 586.574219 263.277344 586.820312 264.277344 587.019531 C 265.277344 587.21875 266.285156 587.367188 267.300781 587.46875 C 268.316406 587.566406 269.332031 587.617188 270.351562 587.617188 L 415.632812 587.617188 C 416.652344 587.617188 417.667969 587.566406 418.683594 587.46875 C 419.699219 587.367188 420.707031 587.21875 421.707031 587.019531 C 422.707031 586.820312 423.695312 586.574219 424.667969 586.277344 C 425.644531 585.980469 426.605469 585.636719 427.546875 585.246094 C 428.488281 584.855469 429.410156 584.421875 430.308594 583.941406 C 431.207031 583.460938 432.082031 582.9375 432.929688 582.371094 C 433.777344 581.804688 434.59375 581.199219 435.382812 580.550781 C 436.171875 579.902344 436.925781 579.21875 437.644531 578.5 C 438.367188 577.777344 439.050781 577.023438 439.699219 576.234375 C 440.34375 575.445312 440.953125 574.628906 441.519531 573.78125 C 442.085938 572.933594 442.609375 572.058594 443.089844 571.160156 C 443.570312 570.261719 444.003906 569.339844 444.394531 568.398438 C 444.785156 567.457031 445.128906 566.5 445.425781 565.523438 C 445.71875 564.546875 445.96875 563.558594 446.167969 562.558594 C 446.363281 561.558594 446.515625 560.550781 446.613281 559.535156 C 446.714844 558.523438 446.765625 557.503906 446.765625 556.484375 L 446.765625 541.496094 Z M 366.050781 576.085938 L 319.933594 576.085938 C 319.175781 576.085938 318.425781 576.011719 317.683594 575.867188 C 316.941406 575.71875 316.21875 575.5 315.519531 575.210938 C 314.820312 574.917969 314.15625 574.5625 313.527344 574.144531 C 312.894531 573.722656 312.3125 573.246094 311.777344 572.710938 C 311.242188 572.175781 310.765625 571.59375 310.34375 570.960938 C 309.925781 570.332031 309.570312 569.667969 309.277344 568.96875 C 308.988281 568.269531 308.769531 567.546875 308.621094 566.804688 C 308.476562 566.0625 308.402344 565.3125 308.402344 564.554688 C 308.402344 563.800781 308.476562 563.050781 308.621094 562.308594 C 308.769531 561.566406 308.988281 560.84375 309.277344 560.144531 C 309.570312 559.445312 309.925781 558.78125 310.34375 558.152344 C 310.765625 557.519531 311.242188 556.9375 311.777344 556.402344 C 312.3125 555.867188 312.894531 555.390625 313.527344 554.96875 C 314.15625 554.550781 314.820312 554.195312 315.519531 553.902344 C 316.21875 553.613281 316.941406 553.394531 317.683594 553.246094 C 318.425781 553.101562 319.175781 553.027344 319.933594 553.027344 L 366.050781 553.027344 C 366.808594 553.027344 367.558594 553.101562 368.300781 553.246094 C 369.042969 553.394531 369.765625 553.613281 370.464844 553.902344 C 371.164062 554.195312 371.828125 554.550781 372.457031 554.96875 C 373.089844 555.390625 373.671875 555.867188 374.207031 556.402344 C 374.742188 556.9375 375.21875 557.519531 375.640625 558.152344 C 376.058594 558.78125 376.414062 559.445312 376.707031 560.144531 C 376.996094 560.84375 377.214844 561.566406 377.363281 562.308594 C 377.507812 563.050781 377.582031 563.800781 377.582031 564.554688 C 377.582031 565.3125 377.507812 566.0625 377.363281 566.804688 C 377.214844 567.546875 376.996094 568.269531 376.707031 568.96875 C 376.414062 569.667969 376.058594 570.332031 375.640625 570.960938 C 375.21875 571.59375 374.742188 572.175781 374.207031 572.710938 C 373.671875 573.246094 373.089844 573.722656 372.457031 574.144531 C 371.828125 574.5625 371.164062 574.917969 370.464844 575.210938 C 369.765625 575.5 369.042969 575.71875 368.300781 575.867188 C 367.558594 576.011719 366.808594 576.085938 366.050781 576.085938 Z M 366.050781 576.085938 " fill-opacity="1" fill-rule="nonzero"/></g><path fill="#ffffff" d="M 546.5 528.929688 L 517.328125 510.59375 C 516.78125 510.25 516.207031 509.953125 515.605469 509.703125 C 515.007812 509.457031 514.390625 509.257812 513.757812 509.113281 C 513.125 508.96875 512.484375 508.878906 511.835938 508.84375 C 511.1875 508.808594 510.542969 508.824219 509.898438 508.898438 C 509.253906 508.972656 508.617188 509.097656 507.996094 509.277344 C 507.371094 509.457031 506.769531 509.6875 506.183594 509.96875 C 505.597656 510.25 505.042969 510.582031 504.511719 510.957031 C 503.984375 511.332031 503.492188 511.75 503.03125 512.210938 L 488.386719 497.679688 C 489.417969 496.304688 490.402344 494.894531 491.339844 493.457031 C 492.277344 492.015625 493.171875 490.550781 494.015625 489.050781 C 494.859375 487.554688 495.65625 486.035156 496.402344 484.488281 C 497.152344 482.9375 497.847656 481.371094 498.496094 479.777344 C 499.144531 478.183594 499.738281 476.574219 500.285156 474.945312 C 500.828125 473.3125 501.320312 471.667969 501.761719 470.007812 C 502.199219 468.34375 502.585938 466.671875 502.917969 464.984375 C 503.25 463.300781 503.527344 461.605469 503.753906 459.902344 C 503.976562 458.195312 504.148438 456.488281 504.261719 454.773438 C 504.375 453.058594 504.4375 451.339844 504.441406 449.621094 C 504.449219 447.902344 504.398438 446.1875 504.292969 444.472656 C 504.191406 442.757812 504.03125 441.046875 503.816406 439.339844 C 503.601562 437.636719 503.335938 435.9375 503.011719 434.25 C 502.691406 432.5625 502.316406 430.886719 501.886719 429.222656 C 501.457031 427.558594 500.976562 425.910156 500.441406 424.277344 C 499.90625 422.640625 499.320312 421.027344 498.683594 419.429688 C 498.046875 417.835938 497.359375 416.261719 496.621094 414.710938 C 495.882812 413.15625 495.097656 411.628906 494.261719 410.128906 C 493.425781 408.628906 492.542969 407.152344 491.613281 405.707031 C 490.683594 404.261719 489.707031 402.847656 488.6875 401.464844 C 487.667969 400.082031 486.605469 398.734375 485.496094 397.417969 C 484.390625 396.101562 483.246094 394.824219 482.054688 393.582031 C 480.867188 392.339844 479.640625 391.136719 478.378906 389.972656 C 477.113281 388.808594 475.8125 387.6875 474.476562 386.609375 C 473.140625 385.527344 471.769531 384.492188 470.367188 383.496094 C 468.964844 382.503906 467.53125 381.558594 466.066406 380.65625 C 464.605469 379.753906 463.113281 378.898438 461.597656 378.09375 C 460.078125 377.289062 458.539062 376.53125 456.972656 375.824219 C 455.40625 375.113281 453.816406 374.457031 452.210938 373.851562 C 450.601562 373.246094 448.976562 372.691406 447.332031 372.1875 C 445.6875 371.6875 444.03125 371.234375 442.359375 370.839844 C 440.6875 370.441406 439.003906 370.101562 437.308594 369.8125 C 432.8125 368.964844 428.277344 368.542969 423.703125 368.542969 C 422.382812 368.542969 421.0625 368.574219 419.742188 368.640625 C 418.425781 368.703125 417.105469 368.800781 415.792969 368.929688 C 414.476562 369.058594 413.167969 369.222656 411.859375 369.414062 C 410.554688 369.609375 409.253906 369.835938 407.957031 370.09375 C 406.664062 370.351562 405.375 370.640625 404.09375 370.960938 C 402.8125 371.28125 401.539062 371.632812 400.273438 372.019531 C 399.011719 372.402344 397.757812 372.816406 396.511719 373.261719 C 395.269531 373.707031 394.039062 374.179688 392.816406 374.6875 C 391.597656 375.191406 390.390625 375.726562 389.195312 376.292969 C 388 376.855469 386.820312 377.449219 385.65625 378.074219 C 384.492188 378.695312 383.34375 379.347656 382.210938 380.023438 C 381.078125 380.703125 379.960938 381.410156 378.863281 382.144531 C 377.765625 382.878906 376.683594 383.640625 375.625 384.425781 C 374.5625 385.210938 373.523438 386.023438 372.5 386.863281 C 371.480469 387.699219 370.480469 388.5625 369.5 389.449219 C 368.523438 390.335938 367.566406 391.25 366.632812 392.183594 C 365.699219 393.117188 364.789062 394.074219 363.902344 395.050781 C 363.011719 396.03125 362.152344 397.03125 361.3125 398.050781 C 360.476562 399.070312 359.664062 400.113281 358.875 401.175781 C 358.089844 402.234375 357.328125 403.316406 356.59375 404.414062 C 355.859375 405.511719 355.152344 406.628906 354.476562 407.761719 C 353.796875 408.894531 353.144531 410.042969 352.523438 411.207031 C 351.898438 412.371094 351.304688 413.550781 350.742188 414.746094 C 350.175781 415.941406 349.640625 417.148438 349.136719 418.367188 C 348.628906 419.585938 348.15625 420.820312 347.710938 422.0625 C 347.265625 423.308594 346.851562 424.5625 346.46875 425.824219 C 346.085938 427.089844 345.730469 428.363281 345.410156 429.644531 C 345.089844 430.925781 344.800781 432.210938 344.542969 433.507812 C 344.285156 434.804688 344.058594 436.105469 343.867188 437.410156 C 343.671875 438.71875 343.511719 440.027344 343.382812 441.34375 C 343.25 442.65625 343.152344 443.972656 343.089844 445.292969 C 343.023438 446.613281 342.992188 447.933594 342.992188 449.253906 C 342.976562 453.355469 343.273438 457.4375 343.890625 461.492188 C 344.503906 465.550781 345.429688 469.535156 346.660156 473.445312 C 347.894531 477.359375 349.421875 481.15625 351.242188 484.832031 C 353.0625 488.507812 355.15625 492.023438 357.519531 495.375 C 360.792969 500.027344 364.507812 504.296875 368.664062 508.179688 C 372.820312 512.066406 377.332031 515.484375 382.195312 518.4375 C 388.449219 522.234375 395.101562 525.113281 402.152344 527.074219 C 409.203125 529.03125 416.386719 529.996094 423.703125 529.964844 C 428.195312 529.945312 432.652344 529.5625 437.078125 528.8125 C 443.359375 527.757812 449.421875 525.972656 455.269531 523.457031 C 461.117188 520.941406 466.585938 517.769531 471.667969 513.9375 L 486.3125 528.582031 C 485.855469 529.039062 485.4375 529.535156 485.0625 530.0625 C 484.683594 530.59375 484.355469 531.148438 484.074219 531.734375 C 483.792969 532.316406 483.5625 532.921875 483.382812 533.546875 C 483.203125 534.167969 483.074219 534.804688 483.003906 535.449219 C 482.929688 536.09375 482.910156 536.738281 482.949219 537.386719 C 482.984375 538.035156 483.074219 538.675781 483.21875 539.308594 C 483.363281 539.941406 483.558594 540.558594 483.808594 541.15625 C 484.054688 541.757812 484.355469 542.332031 484.699219 542.878906 L 504.414062 572.859375 C 505.828125 574.90625 507.445312 576.785156 509.261719 578.484375 C 511.082031 580.183594 513.058594 581.671875 515.199219 582.945312 C 517.335938 584.21875 519.589844 585.25 521.949219 586.039062 C 524.3125 586.824219 526.730469 587.351562 529.207031 587.617188 L 531.628906 587.617188 C 532.6875 587.65625 533.746094 587.640625 534.804688 587.566406 C 535.863281 587.492188 536.914062 587.363281 537.957031 587.175781 C 539 586.988281 540.03125 586.742188 541.046875 586.445312 C 542.066406 586.148438 543.0625 585.792969 544.042969 585.390625 C 545.023438 584.984375 545.980469 584.523438 546.910156 584.015625 C 547.839844 583.507812 548.738281 582.949219 549.609375 582.34375 C 550.480469 581.738281 551.316406 581.085938 552.117188 580.390625 C 552.914062 579.695312 553.675781 578.957031 554.394531 578.179688 C 555.117188 577.402344 555.792969 576.585938 556.425781 575.738281 C 557.058594 574.886719 557.644531 574.003906 558.183594 573.089844 C 558.71875 572.175781 559.207031 571.234375 559.644531 570.269531 C 560.082031 569.300781 560.464844 568.316406 560.792969 567.308594 C 561.125 566.300781 561.398438 565.277344 561.617188 564.238281 C 561.839844 563.203125 562 562.15625 562.109375 561.101562 C 562.214844 560.046875 562.265625 558.988281 562.257812 557.925781 C 562.25 556.867188 562.1875 555.808594 562.066406 554.757812 C 561.828125 552.15625 561.304688 549.613281 560.488281 547.132812 C 559.675781 544.652344 558.59375 542.292969 557.246094 540.054688 C 555.898438 537.820312 554.316406 535.761719 552.503906 533.882812 C 550.691406 532.003906 548.6875 530.351562 546.5 528.929688 Z M 433.160156 505.867188 C 430.035156 506.453125 426.882812 506.800781 423.703125 506.90625 C 419.457031 506.914062 415.257812 506.449219 411.113281 505.515625 C 406.96875 504.582031 402.980469 503.199219 399.144531 501.371094 C 395.585938 499.730469 392.242188 497.730469 389.113281 495.375 C 387.914062 494.472656 386.75 493.527344 385.621094 492.535156 C 384.496094 491.546875 383.410156 490.511719 382.363281 489.433594 C 381.316406 488.359375 380.3125 487.242188 379.355469 486.089844 C 378.394531 484.933594 377.484375 483.742188 376.617188 482.519531 C 375.75 481.292969 374.933594 480.035156 374.167969 478.746094 C 373.398438 477.453125 372.683594 476.136719 372.015625 474.792969 C 371.351562 473.445312 370.742188 472.078125 370.183594 470.683594 C 369.625 469.289062 369.121094 467.875 368.675781 466.445312 C 368.226562 465.011719 367.835938 463.5625 367.503906 462.101562 C 367.167969 460.636719 366.890625 459.164062 366.671875 457.679688 C 366.453125 456.191406 366.292969 454.703125 366.1875 453.203125 C 366.085938 451.707031 366.042969 450.207031 366.054688 448.707031 C 366.070312 447.207031 366.140625 445.707031 366.273438 444.214844 C 366.40625 442.71875 366.59375 441.230469 366.839844 439.75 C 367.089844 438.269531 367.394531 436.800781 367.757812 435.34375 C 368.117188 433.886719 368.535156 432.445312 369.011719 431.023438 C 369.484375 429.597656 370.015625 428.195312 370.597656 426.8125 C 371.183594 425.429688 371.820312 424.074219 372.511719 422.742188 C 373.203125 421.40625 373.941406 420.105469 374.734375 418.828125 C 375.527344 417.554688 376.367188 416.3125 377.257812 415.101562 C 378.144531 413.894531 379.082031 412.71875 380.0625 411.585938 C 381.042969 410.449219 382.066406 409.351562 383.132812 408.296875 C 384.199219 407.238281 385.304688 406.226562 386.449219 405.257812 C 387.59375 404.285156 388.777344 403.363281 389.996094 402.484375 C 391.210938 401.609375 392.460938 400.777344 393.746094 400 C 395.027344 399.21875 396.339844 398.488281 397.675781 397.8125 C 399.015625 397.132812 400.378906 396.511719 401.769531 395.9375 C 403.15625 395.367188 404.566406 394.851562 405.992188 394.390625 C 407.421875 393.929688 408.867188 393.523438 410.324219 393.175781 C 411.785156 392.828125 413.257812 392.539062 414.738281 392.304688 C 416.222656 392.070312 417.710938 391.894531 419.207031 391.777344 C 420.703125 391.660156 422.203125 391.601562 423.703125 391.601562 C 426.964844 391.566406 430.195312 391.875 433.390625 392.523438 C 435.042969 392.816406 436.683594 393.175781 438.304688 393.609375 C 439.925781 394.042969 441.527344 394.546875 443.105469 395.117188 C 444.683594 395.691406 446.234375 396.332031 447.757812 397.039062 C 449.28125 397.75 450.769531 398.523438 452.226562 399.359375 C 453.679688 400.199219 455.097656 401.097656 456.472656 402.0625 C 457.847656 403.023438 459.179688 404.042969 460.46875 405.121094 C 461.753906 406.203125 462.992188 407.335938 464.179688 408.519531 C 465.371094 409.707031 466.503906 410.945312 467.585938 412.230469 C 468.664062 413.515625 469.6875 414.847656 470.652344 416.222656 C 471.613281 417.597656 472.515625 419.011719 473.355469 420.464844 C 474.195312 421.917969 474.972656 423.40625 475.683594 424.929688 C 476.394531 426.449219 477.035156 428 477.609375 429.578125 C 478.183594 431.15625 478.691406 432.757812 479.125 434.378906 C 479.558594 436 479.921875 437.640625 480.214844 439.292969 C 480.507812 440.945312 480.726562 442.609375 480.871094 444.28125 C 481.019531 445.957031 481.09375 447.632812 481.09375 449.3125 C 481.09375 450.992188 481.019531 452.667969 480.871094 454.339844 C 480.726562 456.011719 480.507812 457.675781 480.214844 459.332031 C 479.921875 460.984375 479.558594 462.621094 479.125 464.246094 C 478.691406 465.867188 478.183594 467.46875 477.609375 469.042969 C 477.035156 470.621094 476.394531 472.171875 475.683594 473.695312 C 474.972656 475.214844 474.195312 476.703125 473.355469 478.160156 C 472.515625 479.613281 471.613281 481.027344 470.652344 482.402344 C 469.6875 483.777344 468.664062 485.109375 467.585938 486.394531 C 466.503906 487.679688 465.371094 488.917969 464.179688 490.101562 C 462.992188 491.289062 461.753906 492.421875 460.46875 493.5 C 459.179688 494.578125 457.847656 495.601562 456.472656 496.5625 C 455.097656 497.523438 453.679688 498.425781 452.226562 499.261719 C 450.769531 500.101562 449.28125 500.875 447.757812 501.582031 C 446.234375 502.292969 444.683594 502.933594 443.105469 503.503906 C 441.527344 504.078125 439.925781 504.582031 438.304688 505.015625 C 436.683594 505.445312 435.042969 505.808594 433.390625 506.097656 Z M 433.160156 505.867188 " fill-opacity="1" fill-rule="nonzero"/></svg>