<svg xmlns="http://www.w3.org/2000/svg" xmlns:xlink="http://www.w3.org/1999/xlink" width="1080" zoomAndPan="magnify" viewBox="0 0 810 809.999993" height="1080" preserveAspectRatio="xMidYMid meet" version="1.0"><defs><clipPath id="8a0cc1b9ad"><path d="M 405 369 L 564 369 L 564 558.601562 L 405 558.601562 Z M 405 369 " clip-rule="nonzero"/></clipPath><clipPath id="75917e416e"><path d="M 244 369 L 403 369 L 403 558.601562 L 244 558.601562 Z M 244 369 " clip-rule="nonzero"/></clipPath><clipPath id="aabec4ea08"><path d="M 298 251.101562 L 511 251.101562 L 511 375 L 298 375 Z M 298 251.101562 " clip-rule="nonzero"/></clipPath></defs><g clip-path="url(#8a0cc1b9ad)"><path fill="#ffffff" d="M 562.375 489.355469 C 561.855469 487.273438 561.148438 485.257812 560.257812 483.308594 C 559.367188 481.355469 558.300781 479.503906 557.066406 477.75 C 555.832031 475.996094 554.445312 474.371094 552.910156 472.875 C 551.375 471.375 549.710938 470.03125 547.925781 468.84375 C 552.835938 453.945312 560.007812 417.789062 532.695312 379.074219 C 531.613281 377.558594 530.367188 376.1875 528.957031 374.964844 C 527.550781 373.742188 526.015625 372.699219 524.359375 371.839844 C 522.703125 370.980469 520.96875 370.328125 519.15625 369.882812 C 517.347656 369.433594 515.507812 369.203125 513.640625 369.191406 C 511.777344 369.171875 509.949219 369.414062 508.152344 369.914062 C 506.359375 370.417969 504.671875 371.160156 503.089844 372.144531 C 495.136719 377.210938 492.914062 387.304688 497.75 396.121094 C 503.089844 405.632812 511.984375 423.40625 514.53125 439.066406 C 505.9375 446.871094 494.476562 458.285156 485.972656 472.363281 C 477.46875 486.441406 472.753906 501.832031 469.816406 513.136719 C 456.742188 517.492188 440.015625 518.472656 428.71875 518.472656 C 426.9375 518.472656 425.390625 518.472656 423.949219 518.472656 L 423.378906 518.472656 C 413.683594 518.472656 405.925781 525.101562 405.179688 534.328125 C 404.289062 545.257812 413.414062 555.765625 425.105469 557.273438 C 430.148438 557.929688 435.214844 558.261719 440.300781 558.269531 C 443.609375 558.304688 446.914062 558.171875 450.207031 557.875 C 453.503906 557.578125 456.777344 557.117188 460.027344 556.488281 C 463.277344 555.859375 466.488281 555.070312 469.65625 554.121094 C 472.828125 553.167969 475.941406 552.0625 479 550.796875 C 482.058594 549.535156 485.042969 548.117188 487.960938 546.554688 C 490.875 544.988281 493.703125 543.28125 496.445312 541.429688 C 499.191406 539.578125 501.832031 537.597656 504.375 535.480469 C 506.917969 533.363281 509.347656 531.125 511.664062 528.761719 C 514.1875 530.128906 516.835938 531.167969 519.617188 531.875 C 522.394531 532.585938 525.21875 532.945312 528.089844 532.957031 C 530.964844 532.957031 533.800781 532.613281 536.59375 531.925781 C 537.710938 531.652344 538.8125 531.320312 539.898438 530.933594 C 540.988281 530.550781 542.050781 530.113281 543.09375 529.625 C 544.136719 529.132812 545.15625 528.59375 546.144531 528.007812 C 547.136719 527.417969 548.09375 526.78125 549.023438 526.097656 C 549.949219 525.414062 550.839844 524.6875 551.699219 523.917969 C 552.554688 523.144531 553.371094 522.335938 554.148438 521.484375 C 554.921875 520.632812 555.65625 519.746094 556.34375 518.824219 C 557.035156 517.902344 557.675781 516.945312 558.273438 515.960938 C 558.867188 514.972656 559.414062 513.960938 559.910156 512.921875 C 560.40625 511.882812 560.847656 510.820312 561.238281 509.738281 C 561.632812 508.65625 561.96875 507.554688 562.253906 506.441406 C 562.535156 505.324219 562.761719 504.195312 562.9375 503.058594 C 563.109375 501.917969 563.226562 500.773438 563.285156 499.625 C 563.34375 498.476562 563.347656 497.324219 563.292969 496.175781 C 563.242188 495.023438 563.132812 493.878906 562.964844 492.742188 C 562.800781 491.601562 562.578125 490.472656 562.304688 489.355469 Z M 415.585938 535.019531 C 415.890625 531.234375 418.914062 528.746094 423.484375 528.746094 L 423.71875 528.746094 C 425.496094 528.746094 427.277344 528.746094 429.054688 528.746094 C 443.46875 528.746094 461.703125 527.375 475.972656 521.902344 C 476.761719 521.601562 477.4375 521.136719 477.996094 520.511719 C 478.558594 519.882812 478.945312 519.160156 479.160156 518.347656 C 481.863281 507.558594 486.4375 491.683594 494.816406 477.730469 C 503.195312 463.777344 515.402344 452.328125 523.640625 445.023438 C 524.28125 444.457031 524.757812 443.773438 525.074219 442.980469 C 525.386719 442.183594 525.503906 441.359375 525.417969 440.507812 C 523.390625 423.371094 514.28125 404.175781 507.023438 391.09375 C 504.796875 387.128906 505.507812 383.058594 508.800781 380.996094 C 510.3125 380.0625 511.953125 379.613281 513.730469 379.644531 C 514.746094 379.671875 515.746094 379.8125 516.730469 380.066406 C 517.714844 380.320312 518.65625 380.683594 519.558594 381.15625 C 520.457031 381.628906 521.292969 382.195312 522.066406 382.859375 C 522.835938 383.523438 523.519531 384.261719 524.121094 385.082031 C 547.910156 418.855469 542.730469 450.175781 538.355469 464.203125 L 538.160156 464.203125 C 536.789062 463.796875 535.398438 463.472656 533.988281 463.234375 C 532.574219 463 531.15625 462.847656 529.726562 462.78125 C 528.300781 462.714844 526.871094 462.738281 525.445312 462.847656 C 524.019531 462.953125 522.605469 463.148438 521.203125 463.429688 C 519.800781 463.710938 518.417969 464.074219 517.0625 464.519531 C 515.703125 464.96875 514.378906 465.496094 513.082031 466.105469 C 511.789062 466.714844 510.539062 467.398438 509.328125 468.160156 C 508.117188 468.921875 506.957031 469.753906 505.847656 470.65625 L 507.304688 472.433594 L 507.183594 472.539062 L 505.847656 470.65625 L 505.582031 470.867188 C 504.1875 472.035156 502.890625 473.296875 501.683594 474.65625 L 501.222656 475.207031 C 498.773438 478.03125 496.871094 481.183594 495.511719 484.660156 L 495.242188 485.320312 C 494.59375 487.019531 494.082031 488.761719 493.714844 490.546875 L 493.714844 490.847656 C 493.429688 492.25 493.230469 493.664062 493.121094 495.089844 C 493.007812 496.519531 492.984375 497.945312 493.046875 499.375 C 493.109375 500.804688 493.261719 502.226562 493.496094 503.636719 C 493.734375 505.046875 494.054688 506.441406 494.460938 507.8125 C 494.867188 509.183594 495.355469 510.527344 495.925781 511.839844 C 496.496094 513.152344 497.144531 514.425781 497.867188 515.660156 C 498.59375 516.894531 499.394531 518.078125 500.261719 519.214844 C 501.132812 520.351562 502.070312 521.429688 503.070312 522.453125 L 503.179688 522.578125 C 501.105469 524.605469 498.9375 526.523438 496.671875 528.335938 C 494.410156 530.148438 492.0625 531.847656 489.632812 533.429688 C 487.203125 535.011719 484.699219 536.46875 482.125 537.804688 C 479.550781 539.140625 476.917969 540.347656 474.222656 541.425781 C 471.53125 542.5 468.789062 543.441406 466.003906 544.25 C 463.21875 545.054688 460.398438 545.722656 457.546875 546.253906 C 454.695312 546.78125 451.824219 547.171875 448.933594 547.417969 C 446.042969 547.664062 443.148438 547.769531 440.246094 547.730469 C 435.625 547.722656 431.023438 547.421875 426.441406 546.824219 C 420.390625 545.96875 415.210938 540.371094 415.585938 535.019531 Z M 534.085938 521.796875 C 532.507812 522.1875 530.910156 522.421875 529.285156 522.496094 C 527.664062 522.574219 526.050781 522.488281 524.441406 522.246094 C 522.835938 522.003906 521.269531 521.609375 519.742188 521.054688 C 518.214844 520.503906 516.757812 519.808594 515.367188 518.96875 C 514.460938 518.382812 513.601562 517.738281 512.785156 517.03125 C 512.046875 516.480469 511.339844 515.886719 510.667969 515.253906 C 510.230469 514.808594 509.816406 514.339844 509.421875 513.847656 C 508.785156 513.125 508.191406 512.367188 507.644531 511.574219 C 507.34375 511.128906 507.09375 510.648438 506.824219 510.167969 C 506.300781 509.296875 505.832031 508.398438 505.421875 507.46875 C 505.242188 507.042969 505.117188 506.597656 504.957031 506.152344 C 504.578125 505.136719 504.269531 504.101562 504.03125 503.042969 C 503.945312 502.652344 503.90625 502.242188 503.855469 501.851562 C 503.644531 500.746094 503.511719 499.632812 503.464844 498.507812 C 503.464844 498.082031 503.464844 497.65625 503.464844 497.210938 C 503.476562 496.117188 503.554688 495.027344 503.695312 493.941406 C 503.800781 493.335938 503.996094 492.75 504.140625 492.164062 C 504.324219 491.242188 504.5625 490.335938 504.851562 489.445312 C 505.300781 488.214844 505.847656 487.03125 506.488281 485.886719 C 506.648438 485.605469 506.738281 485.300781 506.914062 485.015625 C 507.671875 483.785156 508.535156 482.632812 509.496094 481.550781 C 509.671875 481.339844 509.867188 481.140625 510.0625 480.929688 C 512.054688 478.808594 514.351562 477.089844 516.949219 475.773438 L 517.074219 475.773438 C 520.566406 474.042969 524.261719 473.175781 528.160156 473.179688 C 528.765625 473.179688 529.367188 473.179688 529.9375 473.179688 L 530.328125 473.179688 C 533.3125 473.441406 536.144531 474.230469 538.835938 475.542969 C 539.511719 475.863281 540.1875 476.183594 540.84375 476.574219 C 541.886719 477.203125 542.875 477.902344 543.816406 478.679688 C 544.753906 479.453125 545.628906 480.292969 546.441406 481.195312 C 547.257812 482.097656 548 483.058594 548.671875 484.070312 C 549.347656 485.082031 549.941406 486.140625 550.457031 487.238281 C 550.976562 488.339844 551.40625 489.472656 551.757812 490.636719 C 552.105469 491.800781 552.367188 492.984375 552.542969 494.1875 C 552.71875 495.390625 552.804688 496.601562 552.800781 497.816406 C 552.796875 499.03125 552.703125 500.242188 552.519531 501.445312 C 552.339844 502.644531 552.070312 503.828125 551.710938 504.988281 C 551.355469 506.152344 550.914062 507.28125 550.390625 508.378906 C 549.867188 509.476562 549.265625 510.53125 548.585938 511.539062 C 547.910156 512.546875 547.160156 513.5 546.339844 514.398438 C 545.519531 515.296875 544.636719 516.132812 543.695312 516.898438 C 542.75 517.667969 541.757812 518.363281 540.710938 518.984375 C 539.667969 519.605469 538.582031 520.148438 537.457031 520.609375 C 536.328125 521.074219 535.175781 521.449219 533.996094 521.742188 Z M 534.085938 521.796875 " fill-opacity="1" fill-rule="nonzero"/></g><g clip-path="url(#75917e416e)"><path fill="#ffffff" d="M 384.664062 518.3125 L 379.503906 518.3125 C 368.1875 518.3125 351.425781 517.457031 338.3125 513.085938 C 335.378906 501.78125 330.574219 486.261719 322.160156 472.324219 C 313.742188 458.390625 302.195312 446.816406 293.691406 439.015625 C 296.269531 423.355469 305.183594 405.578125 310.46875 396.070312 C 315.378906 387.179688 313.15625 377.15625 305.132812 372.089844 C 303.550781 371.117188 301.863281 370.382812 300.070312 369.890625 C 298.28125 369.398438 296.457031 369.167969 294.597656 369.191406 C 292.730469 369.199219 290.886719 369.429688 289.070312 369.875 C 287.257812 370.320312 285.519531 370.972656 283.859375 371.832031 C 282.199219 372.691406 280.664062 373.734375 279.25 374.957031 C 277.839844 376.183594 276.589844 377.554688 275.507812 379.074219 C 248.195312 417.789062 255.453125 453.910156 260.277344 468.84375 C 258.878906 469.785156 257.550781 470.824219 256.304688 471.957031 C 255.054688 473.09375 253.890625 474.308594 252.820312 475.613281 C 251.746094 476.914062 250.769531 478.285156 249.894531 479.726562 C 249.019531 481.167969 248.253906 482.667969 247.59375 484.21875 C 246.9375 485.773438 246.390625 487.363281 245.964844 488.996094 C 245.535156 490.628906 245.226562 492.28125 245.035156 493.957031 C 244.84375 495.632812 244.777344 497.3125 244.828125 499 C 244.882812 500.683594 245.054688 502.359375 245.351562 504.019531 C 245.644531 505.679688 246.058594 507.308594 246.585938 508.910156 C 247.117188 510.511719 247.761719 512.066406 248.515625 513.574219 C 249.269531 515.082031 250.128906 516.53125 251.09375 517.914062 C 252.058594 519.300781 253.117188 520.609375 254.269531 521.839844 C 255.421875 523.070312 256.65625 524.214844 257.976562 525.269531 C 259.292969 526.324219 260.679688 527.277344 262.136719 528.128906 C 263.589844 528.984375 265.101562 529.730469 266.664062 530.363281 C 268.226562 531 269.828125 531.523438 271.46875 531.925781 C 274.261719 532.613281 277.097656 532.957031 279.972656 532.957031 C 282.839844 532.945312 285.664062 532.585938 288.445312 531.875 C 291.222656 531.167969 293.875 530.128906 296.394531 528.761719 C 298.714844 531.117188 301.148438 533.347656 303.695312 535.457031 C 306.238281 537.566406 308.886719 539.542969 311.628906 541.382812 C 314.375 543.226562 317.203125 544.925781 320.121094 546.484375 C 323.035156 548.042969 326.023438 549.453125 329.082031 550.707031 C 332.140625 551.964844 335.253906 553.066406 338.421875 554.011719 C 341.589844 554.957031 344.800781 555.738281 348.046875 556.359375 C 351.292969 556.980469 354.566406 557.4375 357.859375 557.730469 C 361.152344 558.023438 364.453125 558.148438 367.761719 558.109375 C 372.847656 558.101562 377.910156 557.769531 382.957031 557.113281 C 394.644531 555.605469 403.773438 545.097656 402.882812 534.167969 C 402.1875 524.90625 394.609375 518.3125 384.664062 518.3125 Z M 381.691406 546.75 C 377.109375 547.351562 372.507812 547.652344 367.886719 547.660156 C 364.984375 547.699219 362.089844 547.59375 359.199219 547.351562 C 356.308594 547.105469 353.4375 546.71875 350.585938 546.191406 C 347.734375 545.664062 344.914062 544.996094 342.128906 544.191406 C 339.339844 543.382812 336.601562 542.441406 333.90625 541.367188 C 331.214844 540.292969 328.582031 539.085938 326.003906 537.75 C 323.429688 536.414062 320.929688 534.957031 318.5 533.375 C 316.066406 531.792969 313.722656 530.097656 311.457031 528.28125 C 309.195312 526.46875 307.027344 524.550781 304.953125 522.523438 C 305.488281 521.992188 305.894531 521.367188 306.394531 520.746094 C 307.207031 519.878906 307.964844 518.964844 308.671875 518.007812 C 308.847656 517.753906 309.007812 517.484375 309.152344 517.207031 C 310.789062 514.730469 312.085938 512.089844 313.046875 509.28125 C 313.28125 508.625 313.546875 507.984375 313.742188 507.308594 C 313.847656 506.917969 314.046875 506.578125 314.132812 506.1875 C 315.007812 502.691406 315.332031 499.148438 315.105469 495.550781 C 314.875 491.957031 314.109375 488.480469 312.800781 485.125 C 312.800781 484.964844 312.675781 484.804688 312.605469 484.644531 C 311.90625 482.890625 311.074219 481.203125 310.113281 479.578125 C 309.003906 477.75 307.726562 476.042969 306.289062 474.457031 C 305.628906 473.710938 304.898438 473.089844 304.1875 472.414062 C 303.476562 471.738281 302.640625 470.921875 301.785156 470.246094 C 300.933594 469.570312 299.847656 468.859375 298.832031 468.21875 C 298.121094 467.773438 297.425781 467.332031 296.679688 466.941406 C 295.558594 466.332031 294.410156 465.785156 293.226562 465.304688 C 292.5 465.019531 291.75 464.769531 291.003906 464.523438 C 290.257812 464.273438 289.332031 463.828125 288.425781 463.617188 C 285.671875 462.929688 282.878906 462.585938 280.042969 462.585938 C 276.542969 462.589844 273.121094 463.105469 269.777344 464.132812 C 265.472656 450.105469 260.292969 418.75 284.011719 385.011719 C 284.621094 384.183594 285.320312 383.433594 286.109375 382.765625 C 286.894531 382.097656 287.746094 381.53125 288.664062 381.058594 C 289.585938 380.589844 290.542969 380.234375 291.546875 379.988281 C 292.550781 379.742188 293.566406 379.617188 294.597656 379.609375 C 296.378906 379.574219 298.027344 380.023438 299.542969 380.960938 C 302.800781 383.023438 303.511719 387.09375 301.324219 391.074219 C 293.976562 404.140625 284.882812 423.335938 282.855469 440.472656 C 282.773438 441.324219 282.886719 442.148438 283.199219 442.945312 C 283.515625 443.738281 283.992188 444.421875 284.632812 444.988281 C 292.871094 452.328125 304.8125 463.722656 313.296875 477.765625 C 321.785156 491.808594 326.25 507.59375 328.957031 518.382812 C 329.167969 519.195312 329.554688 519.917969 330.117188 520.546875 C 330.679688 521.171875 331.351562 521.636719 332.140625 521.9375 C 346.375 527.429688 364.769531 528.78125 379.183594 528.78125 C 380.960938 528.78125 382.742188 528.78125 384.519531 528.78125 L 384.789062 528.78125 C 389.199219 528.78125 392.347656 531.269531 392.652344 535.054688 C 392.988281 540.371094 387.8125 545.96875 381.78125 546.769531 Z M 298.582031 513.957031 C 298.226562 514.363281 297.871094 514.773438 297.480469 515.164062 C 296.777344 515.867188 296.03125 516.519531 295.238281 517.121094 C 294.453125 517.765625 293.628906 518.359375 292.765625 518.898438 C 290.84375 520.058594 288.800781 520.941406 286.636719 521.542969 C 284.476562 522.148438 282.273438 522.449219 280.027344 522.453125 C 278.683594 522.453125 277.347656 522.347656 276.019531 522.132812 C 274.695312 521.917969 273.394531 521.597656 272.121094 521.171875 C 270.847656 520.746094 269.613281 520.21875 268.425781 519.589844 C 267.238281 518.964844 266.109375 518.246094 265.039062 517.433594 C 263.964844 516.625 262.96875 515.730469 262.042969 514.757812 C 261.117188 513.785156 260.277344 512.746094 259.519531 511.632812 C 258.765625 510.523438 258.101562 509.359375 257.539062 508.144531 C 256.972656 506.925781 256.507812 505.671875 256.144531 504.378906 C 255.785156 503.085938 255.53125 501.769531 255.382812 500.4375 C 255.234375 499.101562 255.199219 497.765625 255.269531 496.421875 C 255.339844 495.082031 255.519531 493.757812 255.804688 492.445312 C 256.09375 491.132812 256.484375 489.855469 256.980469 488.605469 C 257.476562 487.359375 258.070312 486.160156 258.761719 485.007812 C 259.453125 483.855469 260.230469 482.769531 261.101562 481.746094 C 261.96875 480.71875 262.914062 479.773438 263.9375 478.902344 C 264.960938 478.03125 266.046875 477.25 267.199219 476.554688 C 267.835938 476.183594 268.496094 475.84375 269.171875 475.542969 C 271.90625 474.210938 274.789062 473.402344 277.820312 473.125 L 277.925781 473.125 C 278.585938 473.125 279.226562 473.125 279.882812 473.125 C 282.199219 473.125 284.46875 473.441406 286.699219 474.066406 C 287 474.066406 287.304688 474.28125 287.605469 474.386719 C 288.792969 474.75 289.941406 475.199219 291.058594 475.738281 C 291.140625 475.777344 291.21875 475.824219 291.289062 475.882812 C 293.992188 477.21875 296.363281 478.996094 298.40625 481.214844 C 299.148438 482.070312 299.824219 482.976562 300.433594 483.933594 C 300.683594 484.304688 301.003906 484.609375 301.234375 485 C 301.464844 485.390625 301.589844 485.765625 301.785156 486.136719 C 302.355469 487.144531 302.855469 488.1875 303.28125 489.265625 C 304.296875 492.097656 304.785156 495.019531 304.738281 498.027344 C 304.738281 498.027344 304.738281 498.1875 304.738281 498.277344 C 304.683594 499.507812 304.542969 500.730469 304.3125 501.941406 C 304.3125 502.257812 304.3125 502.578125 304.171875 502.917969 C 303.921875 504.019531 303.597656 505.097656 303.191406 506.152344 C 303.050781 506.5625 302.925781 506.96875 302.765625 507.363281 C 302.328125 508.363281 301.828125 509.335938 301.269531 510.277344 C 301.019531 510.667969 300.808594 511.09375 300.558594 511.46875 C 299.945312 512.332031 299.289062 513.164062 298.582031 513.957031 Z M 302.265625 482.652344 L 302.355469 482.777344 Z M 302.265625 482.652344 " fill-opacity="1" fill-rule="nonzero"/></g><g clip-path="url(#aabec4ea08)"><path fill="#ffffff" d="M 309.402344 372.820312 C 311.789062 374.007812 314.3125 374.601562 316.980469 374.597656 C 318.59375 374.566406 320.179688 374.324219 321.726562 373.871094 C 323.277344 373.421875 324.742188 372.773438 326.121094 371.933594 C 327.5 371.09375 328.746094 370.089844 329.855469 368.917969 C 330.96875 367.746094 331.90625 366.453125 332.671875 365.03125 C 338.011719 355.59375 348.6875 338.761719 360.820312 328.46875 C 372.03125 331.792969 387.832031 335.703125 404.09375 335.703125 C 420.355469 335.703125 436.261719 331.792969 447.382812 328.488281 C 459.480469 338.761719 470.101562 355.59375 475.527344 365.03125 C 476.289062 366.460938 477.222656 367.769531 478.332031 368.949219 C 479.441406 370.128906 480.683594 371.144531 482.0625 371.996094 C 483.441406 372.84375 484.90625 373.5 486.460938 373.957031 C 488.015625 374.417969 489.601562 374.667969 491.222656 374.703125 C 493.890625 374.707031 496.414062 374.117188 498.800781 372.925781 C 508.625 368.054688 512.910156 354.8125 508.179688 344.023438 C 489.121094 300.757812 454.535156 288.191406 439.195312 284.652344 C 439.140625 283.539062 439.03125 282.433594 438.871094 281.332031 C 438.710938 280.230469 438.496094 279.140625 438.230469 278.058594 C 437.964844 276.980469 437.648438 275.914062 437.285156 274.863281 C 436.917969 273.8125 436.5 272.78125 436.035156 271.769531 C 435.570312 270.757812 435.058594 269.769531 434.5 268.808594 C 433.941406 267.84375 433.339844 266.910156 432.691406 266.003906 C 432.042969 265.101562 431.355469 264.226562 430.625 263.386719 C 429.890625 262.546875 429.125 261.746094 428.316406 260.976562 C 427.507812 260.210938 426.667969 259.484375 425.789062 258.796875 C 424.914062 258.109375 424.007812 257.464844 423.070312 256.867188 C 422.132812 256.265625 421.167969 255.710938 420.175781 255.199219 C 419.1875 254.691406 418.175781 254.230469 417.140625 253.816406 C 416.105469 253.40625 415.054688 253.042969 413.984375 252.730469 C 412.914062 252.414062 411.832031 252.152344 410.738281 251.945312 C 409.644531 251.734375 408.542969 251.574219 407.4375 251.46875 C 406.328125 251.363281 405.214844 251.3125 404.101562 251.3125 C 402.988281 251.3125 401.875 251.363281 400.765625 251.46875 C 399.660156 251.574219 398.558594 251.734375 397.464844 251.945312 C 396.367188 252.152344 395.289062 252.414062 394.21875 252.730469 C 393.148438 253.042969 392.097656 253.40625 391.0625 253.816406 C 390.027344 254.230469 389.015625 254.691406 388.027344 255.199219 C 387.035156 255.710938 386.070312 256.265625 385.132812 256.867188 C 384.195312 257.464844 383.289062 258.109375 382.414062 258.796875 C 381.535156 259.484375 380.695312 260.210938 379.886719 260.976562 C 379.078125 261.746094 378.308594 262.546875 377.578125 263.386719 C 376.847656 264.226562 376.160156 265.101562 375.511719 266.003906 C 374.863281 266.910156 374.261719 267.84375 373.703125 268.808594 C 373.144531 269.769531 372.632812 270.757812 372.167969 271.769531 C 371.703125 272.78125 371.285156 273.8125 370.917969 274.863281 C 370.554688 275.914062 370.238281 276.980469 369.972656 278.058594 C 369.707031 279.140625 369.492188 280.230469 369.332031 281.332031 C 369.171875 282.433594 369.0625 283.539062 369.007812 284.652344 C 353.667969 288.207031 319.082031 300.757812 300.023438 344.023438 C 295.292969 354.707031 299.5625 367.949219 309.402344 372.820312 Z M 415.585938 319.617188 L 415.90625 319.492188 C 417.253906 319.007812 418.566406 318.445312 419.847656 317.804688 C 421.125 317.160156 422.363281 316.445312 423.554688 315.652344 C 424.746094 314.859375 425.886719 313.996094 426.972656 313.066406 C 428.058594 312.132812 429.085938 311.140625 430.050781 310.082031 C 431.015625 309.027344 431.914062 307.914062 432.742188 306.75 C 433.574219 305.585938 434.328125 304.371094 435.011719 303.113281 C 435.695312 301.855469 436.296875 300.5625 436.820312 299.230469 C 437.347656 297.902344 437.789062 296.542969 438.148438 295.15625 L 438.148438 295.015625 C 452.382812 298.570312 481.917969 310.320312 498.640625 348.128906 C 501.132812 353.761719 499.015625 361.085938 494.195312 363.488281 C 493.269531 363.957031 492.292969 364.191406 491.257812 364.199219 C 490.550781 364.15625 489.863281 364.023438 489.191406 363.796875 C 488.519531 363.566406 487.890625 363.257812 487.304688 362.863281 C 486.71875 362.464844 486.195312 362 485.734375 361.464844 C 485.269531 360.925781 484.890625 360.339844 484.585938 359.699219 C 477.113281 346.707031 465.371094 329.003906 451.742188 318.425781 C 451.066406 317.902344 450.3125 317.5625 449.472656 317.410156 C 448.632812 317.253906 447.804688 317.304688 446.988281 317.554688 C 436.4375 320.808594 420.496094 325.128906 404.09375 325.128906 C 387.6875 325.128906 371.851562 320.808594 361.195312 317.554688 C 360.695312 317.398438 360.1875 317.320312 359.664062 317.324219 C 358.46875 317.320312 357.402344 317.6875 356.460938 318.425781 C 342.816406 329.089844 331.074219 346.777344 323.617188 359.699219 C 323.308594 360.328125 322.921875 360.90625 322.460938 361.433594 C 321.996094 361.960938 321.472656 362.417969 320.890625 362.804688 C 320.304688 363.195312 319.679688 363.496094 319.011719 363.71875 C 318.347656 363.941406 317.664062 364.070312 316.964844 364.109375 C 315.9375 364.101562 314.964844 363.871094 314.046875 363.414062 C 309.222656 361.015625 307.105469 353.691406 309.597656 348.058594 C 326.214844 310.25 355.855469 298.5 370.003906 294.945312 L 370.003906 295.085938 C 370.363281 296.472656 370.804688 297.828125 371.328125 299.160156 C 371.855469 300.492188 372.457031 301.785156 373.140625 303.042969 C 373.824219 304.304688 374.578125 305.515625 375.410156 306.679688 C 376.238281 307.847656 377.136719 308.957031 378.101562 310.015625 C 379.066406 311.074219 380.09375 312.066406 381.179688 313 C 382.265625 313.933594 383.40625 314.796875 384.597656 315.589844 C 385.789062 316.382812 387.023438 317.101562 388.304688 317.746094 C 389.582031 318.390625 390.894531 318.953125 392.242188 319.4375 L 392.546875 319.546875 C 394.289062 320.144531 396.066406 320.601562 397.882812 320.914062 L 398.613281 321.039062 C 402.285156 321.660156 405.953125 321.660156 409.625 321.039062 L 410.375 320.914062 C 412.144531 320.617188 413.882812 320.1875 415.585938 319.617188 L 414.839844 317.449219 L 414.980469 317.449219 Z M 428.523438 289.613281 C 428.398438 290.554688 428.253906 291.496094 428.042969 292.402344 C 427.882812 293.007812 427.667969 293.59375 427.472656 294.179688 C 427.183594 295.089844 426.839844 295.980469 426.441406 296.847656 C 426.207031 297.363281 425.925781 297.824219 425.65625 298.304688 C 425.175781 299.191406 424.648438 300.050781 424.074219 300.882812 C 423.789062 301.273438 423.46875 301.609375 423.167969 301.984375 C 422.5 302.816406 421.78125 303.605469 421.011719 304.347656 C 420.710938 304.648438 420.355469 304.898438 420.035156 305.164062 C 419.191406 305.902344 418.304688 306.578125 417.367188 307.191406 C 416.972656 307.441406 416.546875 307.636719 416.136719 307.847656 C 415.222656 308.40625 414.273438 308.898438 413.292969 309.324219 C 412.6875 309.574219 412.011719 309.714844 411.371094 309.910156 C 410.542969 310.214844 409.703125 310.460938 408.84375 310.65625 C 405.644531 311.328125 402.449219 311.328125 399.253906 310.65625 C 398.410156 310.457031 397.578125 310.214844 396.761719 309.929688 C 396.121094 309.734375 395.464844 309.589844 394.859375 309.34375 C 393.863281 308.914062 392.902344 308.421875 391.976562 307.867188 C 391.585938 307.636719 391.175781 307.457031 390.800781 307.226562 C 389.878906 306.609375 389 305.933594 388.167969 305.199219 C 387.847656 304.917969 387.492188 304.683594 387.191406 304.382812 C 386.421875 303.640625 385.703125 302.855469 385.035156 302.019531 C 384.734375 301.644531 384.414062 301.308594 384.128906 300.917969 C 383.554688 300.09375 383.027344 299.238281 382.546875 298.355469 C 382.277344 297.859375 381.996094 297.398438 381.746094 296.882812 C 381.359375 296.015625 381.019531 295.132812 380.730469 294.234375 C 380.535156 293.628906 380.320312 293.023438 380.160156 292.457031 C 379.957031 291.550781 379.796875 290.640625 379.679688 289.71875 C 379.503906 288.652344 379.394531 287.582031 379.359375 286.5 C 379.339844 285.675781 379.359375 284.855469 379.417969 284.035156 C 379.476562 283.210938 379.578125 282.394531 379.722656 281.585938 C 379.863281 280.773438 380.046875 279.972656 380.265625 279.175781 C 380.488281 278.382812 380.75 277.605469 381.050781 276.835938 C 381.351562 276.070312 381.6875 275.320312 382.0625 274.585938 C 382.4375 273.851562 382.847656 273.140625 383.296875 272.449219 C 383.742188 271.753906 384.222656 271.085938 384.734375 270.441406 C 385.25 269.796875 385.792969 269.179688 386.367188 268.589844 C 386.941406 268 387.546875 267.441406 388.175781 266.910156 C 388.808594 266.378906 389.464844 265.882812 390.144531 265.417969 C 390.824219 264.953125 391.527344 264.523438 392.253906 264.128906 C 392.976562 263.734375 393.71875 263.378906 394.476562 263.058594 C 395.238281 262.738281 396.011719 262.457031 396.796875 262.214844 C 397.585938 261.96875 398.382812 261.765625 399.191406 261.605469 C 400 261.441406 400.8125 261.316406 401.632812 261.234375 C 402.453125 261.152344 403.277344 261.113281 404.101562 261.113281 C 404.925781 261.113281 405.75 261.152344 406.570312 261.234375 C 407.390625 261.316406 408.203125 261.441406 409.011719 261.605469 C 409.820312 261.765625 410.617188 261.96875 411.40625 262.214844 C 412.191406 262.457031 412.964844 262.738281 413.726562 263.058594 C 414.484375 263.378906 415.226562 263.734375 415.949219 264.128906 C 416.675781 264.523438 417.375 264.953125 418.058594 265.417969 C 418.738281 265.882812 419.394531 266.378906 420.027344 266.910156 C 420.65625 267.441406 421.261719 268 421.835938 268.589844 C 422.410156 269.179688 422.953125 269.796875 423.46875 270.441406 C 423.980469 271.085938 424.460938 271.753906 424.90625 272.449219 C 425.355469 273.140625 425.765625 273.851562 426.140625 274.585938 C 426.515625 275.320312 426.851562 276.070312 427.152344 276.835938 C 427.453125 277.605469 427.714844 278.382812 427.9375 279.175781 C 428.15625 279.972656 428.339844 280.773438 428.480469 281.585938 C 428.625 282.394531 428.722656 283.210938 428.785156 284.035156 C 428.84375 284.855469 428.863281 285.675781 428.84375 286.5 C 428.804688 287.546875 428.699219 288.582031 428.523438 289.613281 Z M 428.523438 289.613281 " fill-opacity="1" fill-rule="nonzero"/></g><path fill="#ffffff" d="M 470.742188 430.25 C 472.117188 426.328125 472.953125 422.292969 473.25 418.144531 C 473.390625 416.917969 473.445312 415.683594 473.410156 414.449219 C 473.410156 389.792969 454.820312 369.671875 431.9375 369.671875 C 429.347656 369.6875 426.78125 369.953125 424.242188 370.46875 C 421.703125 370.984375 419.238281 371.742188 416.84375 372.742188 C 414.453125 373.738281 412.183594 374.960938 410.03125 376.402344 C 407.878906 377.84375 405.886719 379.484375 404.058594 381.316406 C 402.226562 379.484375 400.238281 377.84375 398.089844 376.402344 C 395.9375 374.957031 393.667969 373.738281 391.277344 372.738281 C 388.890625 371.742188 386.425781 370.984375 383.886719 370.46875 C 381.347656 369.953125 378.785156 369.6875 376.195312 369.671875 C 353.3125 369.671875 334.753906 389.792969 334.753906 414.503906 C 334.722656 415.792969 334.773438 417.078125 334.914062 418.359375 C 335.234375 422.480469 336.070312 426.488281 337.425781 430.394531 C 343.027344 448.453125 358.773438 474.335938 401.832031 495.148438 C 402.546875 495.503906 403.304688 495.683594 404.101562 495.683594 C 404.898438 495.683594 405.65625 495.503906 406.371094 495.148438 C 449.480469 474.226562 465.191406 448.3125 470.742188 430.25 Z M 462.859375 417.273438 C 462.605469 420.597656 461.929688 423.832031 460.832031 426.980469 C 455.902344 442.980469 442.078125 465.570312 404.058594 484.554688 C 366.015625 465.554688 352.210938 442.925781 347.335938 427.140625 C 346.226562 423.976562 345.542969 420.722656 345.289062 417.382812 C 345.191406 416.488281 345.144531 415.59375 345.144531 414.699219 C 345.144531 395.554688 359.078125 380.105469 376.195312 380.105469 C 378.511719 380.136719 380.792969 380.433594 383.042969 380.996094 C 385.289062 381.558594 387.441406 382.371094 389.5 383.433594 C 391.558594 384.496094 393.46875 385.78125 395.226562 387.289062 C 396.984375 388.792969 398.546875 390.484375 399.910156 392.355469 C 400.160156 392.664062 400.441406 392.941406 400.753906 393.1875 C 401.066406 393.4375 401.402344 393.644531 401.761719 393.816406 C 402.121094 393.988281 402.496094 394.117188 402.886719 394.207031 C 403.273438 394.292969 403.667969 394.339844 404.066406 394.339844 C 404.464844 394.339844 404.859375 394.292969 405.246094 394.207031 C 405.636719 394.117188 406.007812 393.988281 406.367188 393.816406 C 406.726562 393.644531 407.0625 393.4375 407.375 393.1875 C 407.6875 392.941406 407.96875 392.664062 408.21875 392.355469 C 409.585938 390.484375 411.148438 388.792969 412.90625 387.289062 C 414.664062 385.78125 416.574219 384.496094 418.632812 383.433594 C 420.691406 382.371094 422.84375 381.558594 425.089844 380.996094 C 427.339844 380.433594 429.621094 380.136719 431.9375 380.105469 C 449.054688 380.105469 462.984375 395.554688 462.984375 414.539062 C 463.003906 415.453125 462.972656 416.363281 462.898438 417.273438 Z M 462.859375 417.273438 " fill-opacity="1" fill-rule="nonzero"/></svg>