<svg xmlns="http://www.w3.org/2000/svg" xmlns:xlink="http://www.w3.org/1999/xlink" width="1080" zoomAndPan="magnify" viewBox="0 0 810 809.999993" height="1080" preserveAspectRatio="xMidYMid meet" version="1.0"><path fill="#ffffff" d="M 491.054688 380.132812 L 469.8125 380.132812 L 473.921875 365.628906 C 476.429688 359.597656 475.75 352.265625 472.144531 346.414062 C 468.640625 340.726562 463.011719 337.261719 456.707031 336.914062 C 451.644531 336.632812 446.917969 338.585938 442.660156 342.71875 C 439.382812 345.90625 436.726562 349.996094 434.394531 353.601562 C 433.019531 355.722656 431.71875 357.738281 430.480469 359.269531 C 424.378906 366.832031 417.03125 374.503906 407.535156 383.230469 C 406.261719 382.226562 404.863281 381.460938 403.332031 380.929688 C 401.800781 380.398438 400.222656 380.132812 398.601562 380.132812 L 371.855469 380.132812 C 370.90625 380.136719 369.96875 380.230469 369.035156 380.414062 C 368.105469 380.601562 367.199219 380.875 366.324219 381.238281 C 365.449219 381.601562 364.613281 382.046875 363.824219 382.574219 C 363.035156 383.101562 362.304688 383.703125 361.632812 384.371094 C 360.964844 385.042969 360.363281 385.773438 359.835938 386.5625 C 359.308594 387.351562 358.863281 388.183594 358.5 389.058594 C 358.136719 389.933594 357.859375 390.835938 357.675781 391.769531 C 357.488281 392.699219 357.394531 393.636719 357.394531 394.585938 L 357.394531 467.304688 C 357.394531 468.25 357.488281 469.191406 357.675781 470.121094 C 357.859375 471.050781 358.136719 471.953125 358.5 472.832031 C 358.863281 473.707031 359.308594 474.539062 359.835938 475.328125 C 360.363281 476.117188 360.964844 476.847656 361.632812 477.515625 C 362.304688 478.1875 363.035156 478.789062 363.824219 479.316406 C 364.613281 479.839844 365.449219 480.289062 366.324219 480.652344 C 367.199219 481.015625 368.105469 481.289062 369.035156 481.476562 C 369.96875 481.660156 370.90625 481.753906 371.855469 481.753906 L 398.597656 481.753906 C 400.613281 481.753906 402.542969 481.351562 404.390625 480.542969 C 406.234375 479.738281 407.839844 478.59375 409.207031 477.113281 C 410.835938 478.609375 412.683594 479.753906 414.746094 480.554688 C 416.8125 481.355469 418.949219 481.757812 421.160156 481.753906 L 491.046875 481.753906 C 491.582031 481.753906 492.113281 481.726562 492.644531 481.675781 C 493.175781 481.621094 493.703125 481.542969 494.226562 481.4375 C 494.75 481.335938 495.265625 481.207031 495.773438 481.050781 C 496.285156 480.894531 496.789062 480.714844 497.28125 480.511719 C 497.773438 480.304688 498.253906 480.078125 498.722656 479.828125 C 499.195312 479.574219 499.652344 479.300781 500.09375 479.003906 C 500.539062 478.710938 500.964844 478.390625 501.378906 478.054688 C 501.792969 477.714844 502.1875 477.359375 502.5625 476.980469 C 502.941406 476.605469 503.296875 476.210938 503.636719 475.796875 C 503.976562 475.386719 504.292969 474.957031 504.589844 474.515625 C 504.886719 474.070312 505.160156 473.617188 505.410156 473.144531 C 505.664062 472.675781 505.890625 472.195312 506.09375 471.703125 C 506.300781 471.210938 506.480469 470.707031 506.636719 470.199219 C 506.789062 469.6875 506.921875 469.171875 507.023438 468.648438 C 507.128906 468.125 507.207031 467.601562 507.261719 467.070312 C 507.3125 466.539062 507.339844 466.007812 507.339844 465.476562 L 507.339844 465.40625 C 507.34375 463.257812 506.933594 461.191406 506.113281 459.203125 C 505.292969 457.21875 504.121094 455.464844 502.605469 453.941406 C 504.121094 452.417969 505.292969 450.664062 506.113281 448.679688 C 506.933594 446.695312 507.34375 444.628906 507.339844 442.476562 L 507.339844 442.410156 C 507.34375 440.261719 506.933594 438.195312 506.113281 436.207031 C 505.292969 434.222656 504.121094 432.46875 502.605469 430.945312 C 504.121094 429.421875 505.292969 427.667969 506.113281 425.683594 C 506.933594 423.699219 507.34375 421.628906 507.339844 419.480469 L 507.339844 419.414062 C 507.34375 417.265625 506.933594 415.199219 506.113281 413.210938 C 505.292969 411.226562 504.121094 409.472656 502.605469 407.949219 C 504.121094 406.425781 505.292969 404.671875 506.113281 402.6875 C 506.933594 400.703125 507.34375 398.632812 507.339844 396.484375 L 507.339844 396.417969 C 507.339844 395.882812 507.3125 395.351562 507.261719 394.820312 C 507.207031 394.292969 507.128906 393.765625 507.027344 393.242188 C 506.921875 392.71875 506.792969 392.203125 506.636719 391.691406 C 506.480469 391.183594 506.300781 390.683594 506.097656 390.191406 C 505.894531 389.695312 505.664062 389.214844 505.414062 388.746094 C 505.160156 388.277344 504.886719 387.820312 504.589844 387.375 C 504.296875 386.933594 503.976562 386.503906 503.640625 386.09375 C 503.300781 385.679688 502.945312 385.285156 502.566406 384.910156 C 502.191406 384.53125 501.792969 384.175781 501.382812 383.835938 C 500.96875 383.5 500.542969 383.179688 500.097656 382.886719 C 499.65625 382.589844 499.199219 382.3125 498.730469 382.0625 C 498.257812 381.8125 497.777344 381.582031 497.285156 381.378906 C 496.792969 381.175781 496.289062 380.996094 495.78125 380.839844 C 495.269531 380.683594 494.753906 380.554688 494.230469 380.449219 C 493.707031 380.34375 493.179688 380.265625 492.648438 380.214844 C 492.117188 380.160156 491.585938 380.132812 491.054688 380.132812 Z M 497.703125 396.414062 L 497.703125 396.480469 C 497.703125 396.917969 497.660156 397.351562 497.574219 397.777344 C 497.488281 398.207031 497.363281 398.621094 497.195312 399.023438 C 497.027344 399.425781 496.824219 399.808594 496.582031 400.171875 C 496.339844 400.535156 496.0625 400.871094 495.753906 401.179688 C 495.445312 401.488281 495.109375 401.761719 494.746094 402.007812 C 494.382812 402.25 494 402.453125 493.597656 402.621094 C 493.195312 402.789062 492.777344 402.914062 492.351562 403 C 491.921875 403.085938 491.488281 403.128906 491.054688 403.128906 L 467.457031 403.128906 C 467.019531 403.128906 466.585938 403.085938 466.160156 403 C 465.730469 402.914062 465.316406 402.789062 464.910156 402.621094 C 464.507812 402.453125 464.125 402.25 463.761719 402.007812 C 463.398438 401.761719 463.0625 401.488281 462.753906 401.179688 C 462.445312 400.871094 462.171875 400.535156 461.925781 400.171875 C 461.683594 399.808594 461.480469 399.425781 461.3125 399.023438 C 461.144531 398.621094 461.019531 398.207031 460.933594 397.777344 C 460.847656 397.351562 460.804688 396.917969 460.804688 396.480469 L 460.804688 396.414062 C 460.804688 395.976562 460.847656 395.542969 460.933594 395.117188 C 461.019531 394.6875 461.144531 394.273438 461.3125 393.871094 C 461.480469 393.46875 461.683594 393.085938 461.925781 392.722656 C 462.171875 392.359375 462.445312 392.023438 462.753906 391.714844 C 463.0625 391.40625 463.398438 391.132812 463.761719 390.890625 C 464.125 390.648438 464.507812 390.441406 464.910156 390.273438 C 465.316406 390.109375 465.730469 389.980469 466.160156 389.894531 C 466.585938 389.808594 467.019531 389.765625 467.457031 389.765625 L 491.054688 389.765625 C 491.492188 389.765625 491.921875 389.808594 492.351562 389.894531 C 492.78125 389.980469 493.195312 390.105469 493.597656 390.273438 C 494.003906 390.441406 494.386719 390.644531 494.75 390.886719 C 495.113281 391.128906 495.449219 391.40625 495.757812 391.714844 C 496.066406 392.023438 496.339844 392.359375 496.585938 392.722656 C 496.828125 393.085938 497.03125 393.46875 497.199219 393.871094 C 497.367188 394.273438 497.492188 394.6875 497.578125 395.117188 C 497.664062 395.542969 497.707031 395.976562 497.707031 396.414062 Z M 497.703125 419.410156 L 497.703125 419.476562 C 497.703125 419.914062 497.660156 420.347656 497.574219 420.773438 C 497.488281 421.203125 497.363281 421.617188 497.195312 422.019531 C 497.027344 422.421875 496.824219 422.804688 496.582031 423.167969 C 496.339844 423.53125 496.0625 423.867188 495.753906 424.175781 C 495.445312 424.484375 495.109375 424.757812 494.746094 425.003906 C 494.382812 425.246094 494 425.449219 493.597656 425.617188 C 493.195312 425.785156 492.777344 425.910156 492.351562 425.996094 C 491.921875 426.082031 491.488281 426.125 491.054688 426.125 L 467.457031 426.125 C 467.019531 426.125 466.585938 426.082031 466.160156 425.996094 C 465.730469 425.910156 465.316406 425.785156 464.910156 425.617188 C 464.507812 425.449219 464.125 425.246094 463.761719 425.003906 C 463.398438 424.757812 463.0625 424.484375 462.753906 424.175781 C 462.445312 423.867188 462.171875 423.53125 461.925781 423.167969 C 461.683594 422.804688 461.480469 422.421875 461.3125 422.019531 C 461.144531 421.617188 461.019531 421.203125 460.933594 420.773438 C 460.847656 420.347656 460.804688 419.914062 460.804688 419.476562 L 460.804688 419.410156 C 460.804688 418.972656 460.847656 418.539062 460.933594 418.113281 C 461.019531 417.683594 461.144531 417.269531 461.3125 416.867188 C 461.480469 416.464844 461.683594 416.082031 461.925781 415.71875 C 462.171875 415.355469 462.445312 415.019531 462.753906 414.710938 C 463.0625 414.402344 463.398438 414.128906 463.761719 413.886719 C 464.125 413.644531 464.507812 413.4375 464.910156 413.269531 C 465.316406 413.105469 465.730469 412.976562 466.160156 412.890625 C 466.585938 412.804688 467.019531 412.761719 467.457031 412.761719 L 491.054688 412.761719 C 491.492188 412.761719 491.921875 412.804688 492.351562 412.890625 C 492.78125 412.976562 493.195312 413.101562 493.597656 413.269531 C 494.003906 413.4375 494.386719 413.640625 494.75 413.882812 C 495.113281 414.125 495.449219 414.402344 495.757812 414.710938 C 496.066406 415.019531 496.339844 415.355469 496.585938 415.71875 C 496.828125 416.082031 497.03125 416.464844 497.199219 416.867188 C 497.367188 417.269531 497.492188 417.683594 497.578125 418.113281 C 497.664062 418.539062 497.707031 418.972656 497.707031 419.410156 Z M 497.703125 442.40625 L 497.703125 442.476562 C 497.703125 442.910156 497.660156 443.34375 497.574219 443.769531 C 497.488281 444.199219 497.363281 444.613281 497.195312 445.015625 C 497.027344 445.417969 496.824219 445.800781 496.582031 446.164062 C 496.339844 446.527344 496.0625 446.863281 495.753906 447.171875 C 495.445312 447.480469 495.109375 447.753906 494.746094 448 C 494.382812 448.242188 494 448.445312 493.597656 448.613281 C 493.195312 448.78125 492.777344 448.90625 492.351562 448.992188 C 491.921875 449.078125 491.488281 449.121094 491.054688 449.121094 L 467.457031 449.121094 C 467.019531 449.121094 466.585938 449.078125 466.160156 448.992188 C 465.730469 448.90625 465.316406 448.78125 464.910156 448.613281 C 464.507812 448.445312 464.125 448.242188 463.761719 448 C 463.398438 447.753906 463.0625 447.480469 462.753906 447.171875 C 462.445312 446.863281 462.171875 446.527344 461.925781 446.164062 C 461.683594 445.800781 461.480469 445.417969 461.3125 445.015625 C 461.144531 444.613281 461.019531 444.199219 460.933594 443.769531 C 460.847656 443.34375 460.804688 442.910156 460.804688 442.476562 L 460.804688 442.40625 C 460.804688 441.96875 460.847656 441.535156 460.933594 441.109375 C 461.019531 440.679688 461.144531 440.265625 461.3125 439.863281 C 461.480469 439.460938 461.683594 439.078125 461.925781 438.714844 C 462.171875 438.351562 462.445312 438.015625 462.753906 437.707031 C 463.0625 437.398438 463.398438 437.125 463.761719 436.882812 C 464.125 436.640625 464.507812 436.433594 464.910156 436.265625 C 465.316406 436.101562 465.730469 435.972656 466.160156 435.886719 C 466.585938 435.800781 467.019531 435.757812 467.457031 435.757812 L 491.054688 435.757812 C 491.492188 435.757812 491.921875 435.800781 492.351562 435.886719 C 492.78125 435.972656 493.195312 436.097656 493.597656 436.265625 C 494.003906 436.433594 494.386719 436.636719 494.75 436.878906 C 495.113281 437.121094 495.449219 437.398438 495.757812 437.707031 C 496.066406 438.015625 496.339844 438.351562 496.585938 438.714844 C 496.828125 439.078125 497.03125 439.460938 497.199219 439.863281 C 497.367188 440.265625 497.492188 440.679688 497.578125 441.109375 C 497.664062 441.535156 497.707031 441.96875 497.707031 442.40625 Z M 403.421875 467.300781 C 403.421875 467.617188 403.390625 467.929688 403.328125 468.238281 C 403.265625 468.550781 403.175781 468.851562 403.054688 469.144531 C 402.933594 469.433594 402.785156 469.710938 402.609375 469.976562 C 402.433594 470.238281 402.230469 470.480469 402.007812 470.707031 C 401.785156 470.929688 401.542969 471.128906 401.277344 471.304688 C 401.015625 471.480469 400.738281 471.628906 400.445312 471.75 C 400.152344 471.871094 399.851562 471.960938 399.539062 472.023438 C 399.230469 472.085938 398.917969 472.117188 398.597656 472.117188 L 371.855469 472.117188 C 371.539062 472.117188 371.226562 472.085938 370.914062 472.023438 C 370.605469 471.960938 370.304688 471.871094 370.011719 471.75 C 369.71875 471.628906 369.441406 471.480469 369.179688 471.304688 C 368.914062 471.128906 368.671875 470.929688 368.449219 470.707031 C 368.222656 470.480469 368.023438 470.238281 367.847656 469.976562 C 367.671875 469.710938 367.523438 469.433594 367.402344 469.144531 C 367.28125 468.851562 367.191406 468.550781 367.128906 468.238281 C 367.066406 467.929688 367.035156 467.617188 367.035156 467.300781 L 367.035156 394.585938 C 367.035156 394.269531 367.066406 393.953125 367.128906 393.644531 C 367.191406 393.335938 367.28125 393.03125 367.402344 392.742188 C 367.523438 392.449219 367.671875 392.171875 367.847656 391.90625 C 368.023438 391.644531 368.222656 391.402344 368.449219 391.179688 C 368.671875 390.953125 368.914062 390.753906 369.179688 390.578125 C 369.441406 390.402344 369.71875 390.253906 370.011719 390.132812 C 370.304688 390.011719 370.605469 389.921875 370.914062 389.859375 C 371.226562 389.796875 371.539062 389.765625 371.855469 389.765625 L 398.597656 389.765625 C 398.917969 389.765625 399.230469 389.796875 399.539062 389.859375 C 399.851562 389.921875 400.152344 390.011719 400.445312 390.132812 C 400.738281 390.253906 401.015625 390.402344 401.277344 390.578125 C 401.542969 390.753906 401.785156 390.953125 402.007812 391.179688 C 402.230469 391.402344 402.433594 391.644531 402.609375 391.90625 C 402.785156 392.171875 402.933594 392.449219 403.054688 392.742188 C 403.175781 393.03125 403.265625 393.335938 403.328125 393.644531 C 403.390625 393.953125 403.421875 394.269531 403.421875 394.585938 Z M 413.0625 464.023438 L 413.0625 394.585938 C 413.0625 393.554688 412.953125 392.535156 412.734375 391.53125 C 423.234375 381.972656 431.292969 373.609375 437.984375 365.324219 C 439.539062 363.398438 440.972656 361.183594 442.492188 358.835938 C 447.265625 351.457031 451.042969 346.253906 456.171875 346.539062 C 459.277344 346.710938 462.109375 348.507812 463.933594 351.472656 C 465.976562 354.785156 466.363281 358.859375 464.945312 362.105469 L 464.816406 362.40625 L 459.140625 382.414062 C 457.925781 383.136719 456.820312 384 455.832031 385.007812 C 454.839844 386.015625 453.996094 387.132812 453.296875 388.359375 C 452.59375 389.585938 452.0625 390.882812 451.703125 392.246094 C 451.339844 393.613281 451.15625 395 451.15625 396.414062 L 451.15625 396.480469 C 451.15625 398.628906 451.566406 400.699219 452.386719 402.683594 C 453.207031 404.667969 454.375 406.421875 455.894531 407.945312 C 454.375 409.46875 453.207031 411.222656 452.386719 413.207031 C 451.566406 415.195312 451.15625 417.261719 451.15625 419.410156 L 451.15625 419.476562 C 451.15625 421.628906 451.566406 423.695312 452.386719 425.679688 C 453.207031 427.664062 454.375 429.417969 455.894531 430.941406 C 454.375 432.464844 453.207031 434.21875 452.386719 436.203125 C 451.566406 438.191406 451.15625 440.257812 451.15625 442.40625 L 451.15625 442.476562 C 451.15625 444.625 451.566406 446.691406 452.386719 448.675781 C 453.207031 450.660156 454.375 452.417969 455.894531 453.9375 C 454.375 455.460938 453.207031 457.214844 452.386719 459.199219 C 451.566406 461.1875 451.15625 463.253906 451.15625 465.402344 L 451.15625 465.472656 C 451.15625 467.789062 451.628906 470.003906 452.582031 472.117188 L 421.167969 472.117188 C 420.636719 472.117188 420.109375 472.0625 419.585938 471.960938 C 419.066406 471.855469 418.558594 471.703125 418.066406 471.496094 C 417.578125 471.292969 417.109375 471.042969 416.667969 470.75 C 416.226562 470.453125 415.816406 470.117188 415.441406 469.742188 C 415.0625 469.367188 414.726562 468.957031 414.433594 468.515625 C 414.136719 468.074219 413.886719 467.605469 413.683594 467.117188 C 413.476562 466.625 413.324219 466.117188 413.21875 465.597656 C 413.117188 465.074219 413.0625 464.550781 413.0625 464.019531 Z M 497.703125 465.476562 C 497.703125 465.914062 497.660156 466.34375 497.574219 466.773438 C 497.488281 467.199219 497.363281 467.617188 497.195312 468.019531 C 497.027344 468.421875 496.824219 468.804688 496.582031 469.167969 C 496.339844 469.53125 496.0625 469.863281 495.753906 470.171875 C 495.445312 470.480469 495.109375 470.757812 494.746094 471 C 494.382812 471.242188 494 471.449219 493.597656 471.613281 C 493.195312 471.78125 492.777344 471.90625 492.351562 471.992188 C 491.921875 472.078125 491.488281 472.121094 491.054688 472.121094 L 467.457031 472.121094 C 467.019531 472.121094 466.585938 472.078125 466.160156 471.992188 C 465.730469 471.90625 465.316406 471.78125 464.910156 471.613281 C 464.507812 471.449219 464.125 471.242188 463.761719 471 C 463.398438 470.757812 463.0625 470.480469 462.753906 470.171875 C 462.445312 469.867188 462.171875 469.53125 461.925781 469.167969 C 461.683594 468.804688 461.480469 468.421875 461.3125 468.019531 C 461.144531 467.617188 461.019531 467.199219 460.933594 466.773438 C 460.847656 466.34375 460.804688 465.914062 460.804688 465.476562 L 460.804688 465.40625 C 460.804688 464.972656 460.847656 464.539062 460.933594 464.109375 C 461.019531 463.683594 461.144531 463.269531 461.3125 462.863281 C 461.480469 462.460938 461.683594 462.078125 461.925781 461.714844 C 462.171875 461.355469 462.445312 461.019531 462.753906 460.710938 C 463.0625 460.402344 463.398438 460.125 463.761719 459.882812 C 464.125 459.640625 464.507812 459.4375 464.910156 459.269531 C 465.316406 459.101562 465.730469 458.976562 466.160156 458.890625 C 466.585938 458.804688 467.019531 458.761719 467.457031 458.761719 L 491.054688 458.761719 C 491.488281 458.761719 491.921875 458.804688 492.351562 458.890625 C 492.777344 458.976562 493.195312 459.101562 493.597656 459.269531 C 494 459.4375 494.382812 459.640625 494.746094 459.882812 C 495.109375 460.125 495.445312 460.402344 495.753906 460.710938 C 496.0625 461.019531 496.339844 461.355469 496.582031 461.714844 C 496.824219 462.078125 497.027344 462.460938 497.195312 462.863281 C 497.363281 463.269531 497.488281 463.683594 497.574219 464.109375 C 497.660156 464.539062 497.703125 464.972656 497.703125 465.40625 Z M 497.703125 465.476562 " fill-opacity="1" fill-rule="nonzero"/><path fill="#ffffff" d="M 536.410156 312.441406 L 375.417969 312.441406 C 375.273438 310.59375 375.050781 308.753906 374.746094 306.925781 C 374.4375 305.09375 374.054688 303.285156 373.589844 301.488281 C 373.125 299.695312 372.582031 297.921875 371.960938 296.175781 C 371.339844 294.425781 370.644531 292.710938 369.875 291.023438 C 369.105469 289.335938 368.261719 287.6875 367.34375 286.074219 C 366.429688 284.464844 365.441406 282.894531 364.390625 281.367188 C 363.335938 279.84375 362.214844 278.363281 361.03125 276.9375 C 359.847656 275.507812 358.605469 274.136719 357.300781 272.816406 C 355.996094 271.5 354.636719 270.242188 353.21875 269.039062 C 351.804688 267.839844 350.339844 266.707031 348.824219 265.636719 C 347.308594 264.566406 345.75 263.5625 344.148438 262.628906 C 342.546875 261.695312 340.90625 260.832031 339.226562 260.042969 C 337.546875 259.253906 335.835938 258.539062 334.09375 257.898438 C 332.355469 257.257812 330.585938 256.695312 328.796875 256.210938 C 327.003906 255.726562 325.195312 255.320312 323.371094 254.996094 C 321.542969 254.667969 319.707031 254.421875 317.859375 254.257812 C 316.007812 254.09375 314.15625 254.007812 312.300781 254.007812 C 310.445312 254.003906 308.59375 254.082031 306.746094 254.242188 C 304.898438 254.402344 303.058594 254.644531 301.230469 254.964844 C 299.402344 255.285156 297.59375 255.6875 295.800781 256.167969 C 294.011719 256.648438 292.242188 257.203125 290.5 257.839844 C 288.753906 258.476562 287.042969 259.1875 285.363281 259.972656 C 283.683594 260.757812 282.039062 261.613281 280.433594 262.542969 C 278.828125 263.472656 277.265625 264.472656 275.75 265.539062 C 274.230469 266.605469 272.761719 267.738281 271.34375 268.933594 C 269.925781 270.128906 268.5625 271.382812 267.253906 272.699219 C 265.945312 274.011719 264.699219 275.382812 263.511719 276.808594 C 262.324219 278.234375 261.199219 279.707031 260.144531 281.230469 C 259.085938 282.753906 258.09375 284.320312 257.175781 285.929688 C 256.253906 287.539062 255.40625 289.1875 254.632812 290.871094 C 253.855469 292.554688 253.15625 294.269531 252.53125 296.015625 C 251.90625 297.761719 251.359375 299.53125 250.890625 301.324219 C 250.417969 303.121094 250.03125 304.929688 249.71875 306.757812 C 249.410156 308.585938 249.179688 310.425781 249.03125 312.273438 C 248.882812 314.121094 248.816406 315.972656 248.828125 317.824219 C 248.84375 319.679688 248.9375 321.53125 249.113281 323.375 C 249.292969 325.222656 249.546875 327.054688 249.886719 328.878906 C 250.222656 330.703125 250.640625 332.507812 251.136719 334.292969 C 251.632812 336.082031 252.207031 337.839844 252.859375 339.578125 C 253.511719 341.3125 254.234375 343.019531 255.035156 344.691406 C 255.835938 346.363281 256.710938 347.996094 257.65625 349.59375 C 258.601562 351.191406 259.613281 352.742188 260.695312 354.25 C 261.773438 355.753906 262.917969 357.210938 264.128906 358.617188 C 265.335938 360.023438 266.605469 361.375 267.933594 362.671875 C 269.261719 363.964844 270.644531 365.203125 272.078125 366.375 C 273.515625 367.550781 275 368.660156 276.535156 369.703125 C 278.066406 370.746094 279.644531 371.71875 281.261719 372.625 C 282.882812 373.53125 284.539062 374.363281 286.230469 375.125 L 286.230469 483.558594 C 286.230469 500.378906 299.921875 514.0625 316.757812 514.0625 L 425.167969 514.0625 L 488.257812 554.621094 C 489.480469 555.4375 490.789062 556.078125 492.183594 556.539062 C 493.578125 557 495.007812 557.265625 496.476562 557.335938 C 497.941406 557.410156 499.390625 557.285156 500.824219 556.964844 C 502.257812 556.640625 503.621094 556.136719 504.917969 555.445312 C 506.214844 554.753906 507.394531 553.902344 508.457031 552.890625 C 509.519531 551.875 510.429688 550.742188 511.1875 549.484375 C 511.941406 548.222656 512.515625 546.886719 512.90625 545.472656 C 513.296875 544.058594 513.496094 542.617188 513.496094 541.148438 L 513.496094 514.0625 L 536.398438 514.0625 C 553.234375 514.0625 566.929688 500.382812 566.929688 483.558594 L 566.929688 342.945312 C 566.9375 326.125 553.246094 312.441406 536.410156 312.441406 Z M 258.390625 317.257812 C 258.390625 287.625 282.519531 263.515625 312.171875 263.515625 C 341.828125 263.515625 365.957031 287.625 365.957031 317.257812 C 365.957031 346.890625 341.828125 371 312.171875 371 C 282.519531 371 258.390625 346.890625 258.390625 317.257812 Z M 557.296875 483.554688 C 557.296875 484.238281 557.261719 484.917969 557.195312 485.597656 C 557.125 486.277344 557.023438 486.953125 556.890625 487.625 C 556.757812 488.292969 556.589844 488.957031 556.390625 489.609375 C 556.191406 490.261719 555.960938 490.90625 555.699219 491.535156 C 555.4375 492.167969 555.144531 492.785156 554.824219 493.386719 C 554.5 493.988281 554.148438 494.574219 553.769531 495.144531 C 553.390625 495.710938 552.980469 496.257812 552.546875 496.789062 C 552.113281 497.316406 551.65625 497.820312 551.171875 498.304688 C 550.6875 498.789062 550.183594 499.246094 549.652344 499.679688 C 549.125 500.113281 548.578125 500.519531 548.007812 500.898438 C 547.441406 501.277344 546.855469 501.628906 546.25 501.953125 C 545.648438 502.273438 545.03125 502.566406 544.398438 502.828125 C 543.769531 503.089844 543.125 503.320312 542.46875 503.519531 C 541.816406 503.71875 541.152344 503.886719 540.484375 504.019531 C 539.8125 504.152344 539.136719 504.253906 538.457031 504.320312 C 537.777344 504.390625 537.09375 504.421875 536.410156 504.425781 L 503.863281 504.425781 L 503.863281 541.144531 C 503.863281 541.738281 503.78125 542.324219 503.625 542.898438 C 503.464844 543.472656 503.230469 544.015625 502.921875 544.527344 C 502.617188 545.039062 502.246094 545.5 501.8125 545.910156 C 501.378906 546.320312 500.902344 546.667969 500.375 546.945312 C 499.847656 547.226562 499.292969 547.429688 498.710938 547.5625 C 498.128906 547.691406 497.539062 547.738281 496.941406 547.707031 C 496.347656 547.675781 495.765625 547.566406 495.199219 547.378906 C 494.632812 547.1875 494.105469 546.929688 493.609375 546.59375 L 428.003906 504.421875 L 316.757812 504.421875 C 316.074219 504.421875 315.394531 504.386719 314.714844 504.320312 C 314.03125 504.25 313.355469 504.152344 312.6875 504.015625 C 312.015625 503.882812 311.351562 503.71875 310.699219 503.519531 C 310.042969 503.320312 309.402344 503.089844 308.769531 502.828125 C 308.136719 502.566406 307.519531 502.273438 306.917969 501.949219 C 306.316406 501.628906 305.730469 501.277344 305.160156 500.898438 C 304.59375 500.519531 304.042969 500.109375 303.515625 499.675781 C 302.988281 499.242188 302.480469 498.785156 301.996094 498.300781 C 301.511719 497.820312 301.054688 497.3125 300.621094 496.785156 C 300.1875 496.257812 299.78125 495.707031 299.398438 495.140625 C 299.019531 494.574219 298.667969 493.988281 298.347656 493.386719 C 298.023438 492.78125 297.730469 492.164062 297.46875 491.535156 C 297.207031 490.902344 296.976562 490.261719 296.777344 489.605469 C 296.578125 488.953125 296.410156 488.292969 296.277344 487.621094 C 296.144531 486.953125 296.042969 486.277344 295.976562 485.597656 C 295.90625 484.917969 295.875 484.234375 295.871094 483.550781 L 295.871094 378.527344 C 301.214844 379.933594 306.648438 380.636719 312.171875 380.632812 C 314.152344 380.632812 316.121094 380.542969 318.089844 380.355469 C 320.058594 380.171875 322.015625 379.898438 323.957031 379.53125 C 325.898438 379.164062 327.820312 378.707031 329.71875 378.160156 C 331.617188 377.617188 333.488281 376.980469 335.328125 376.261719 C 337.167969 375.539062 338.972656 374.734375 340.738281 373.847656 C 342.5 372.957031 344.222656 371.988281 345.894531 370.9375 C 347.570312 369.886719 349.191406 368.761719 350.761719 367.5625 C 352.328125 366.359375 353.839844 365.085938 355.289062 363.746094 C 356.738281 362.402344 358.121094 360.996094 359.441406 359.523438 C 360.757812 358.050781 362.007812 356.523438 363.179688 354.933594 C 364.355469 353.347656 365.453125 351.707031 366.476562 350.015625 C 367.5 348.324219 368.4375 346.589844 369.296875 344.8125 C 370.160156 343.035156 370.933594 341.21875 371.621094 339.367188 C 372.3125 337.515625 372.914062 335.636719 373.429688 333.730469 C 373.941406 331.824219 374.367188 329.894531 374.699219 327.949219 C 375.035156 326.003906 375.273438 324.042969 375.425781 322.074219 L 536.417969 322.074219 C 537.101562 322.078125 537.785156 322.109375 538.464844 322.179688 C 539.144531 322.246094 539.820312 322.347656 540.488281 322.480469 C 541.160156 322.617188 541.824219 322.78125 542.476562 322.980469 C 543.128906 323.179688 543.773438 323.410156 544.40625 323.671875 C 545.035156 323.933594 545.652344 324.226562 546.257812 324.550781 C 546.859375 324.871094 547.445312 325.222656 548.011719 325.601562 C 548.582031 325.980469 549.128906 326.390625 549.65625 326.824219 C 550.1875 327.257812 550.691406 327.714844 551.175781 328.199219 C 551.660156 328.679688 552.117188 329.1875 552.550781 329.714844 C 552.984375 330.242188 553.390625 330.789062 553.769531 331.359375 C 554.152344 331.925781 554.503906 332.511719 554.824219 333.113281 C 555.148438 333.71875 555.4375 334.332031 555.703125 334.964844 C 555.964844 335.59375 556.195312 336.238281 556.390625 336.890625 C 556.589844 337.546875 556.757812 338.207031 556.890625 338.878906 C 557.027344 339.546875 557.125 340.222656 557.195312 340.902344 C 557.261719 341.582031 557.296875 342.261719 557.296875 342.945312 Z M 557.296875 483.554688 " fill-opacity="1" fill-rule="nonzero"/><path fill="#ffffff" d="M 312.453125 343.660156 L 321.9375 348.644531 C 322.78125 349.085938 323.671875 349.40625 324.609375 349.601562 C 325.542969 349.796875 326.488281 349.859375 327.441406 349.789062 C 328.390625 349.71875 329.316406 349.519531 330.214844 349.195312 C 331.109375 348.867188 331.945312 348.421875 332.71875 347.859375 C 333.492188 347.296875 334.171875 346.640625 334.757812 345.890625 C 335.347656 345.140625 335.820312 344.320312 336.179688 343.4375 C 336.539062 342.550781 336.773438 341.636719 336.875 340.6875 C 336.976562 339.738281 336.949219 338.792969 336.785156 337.851562 L 334.976562 327.300781 C 334.941406 327.09375 334.996094 326.917969 335.148438 326.773438 L 342.820312 319.296875 C 343.503906 318.632812 344.082031 317.886719 344.558594 317.058594 C 345.03125 316.230469 345.382812 315.351562 345.613281 314.425781 C 345.839844 313.5 345.9375 312.558594 345.90625 311.605469 C 345.871094 310.652344 345.707031 309.71875 345.410156 308.8125 C 345.113281 307.90625 344.699219 307.054688 344.167969 306.261719 C 343.632812 305.472656 343.003906 304.769531 342.273438 304.152344 C 341.542969 303.539062 340.742188 303.035156 339.871094 302.644531 C 339 302.25 338.09375 301.988281 337.148438 301.851562 L 326.539062 300.308594 C 326.332031 300.277344 326.183594 300.171875 326.089844 299.984375 L 321.355469 290.390625 C 320.933594 289.535156 320.398438 288.753906 319.757812 288.046875 C 319.117188 287.339844 318.390625 286.734375 317.578125 286.230469 C 316.769531 285.726562 315.902344 285.34375 314.984375 285.082031 C 314.066406 284.820312 313.128906 284.6875 312.175781 284.6875 C 311.21875 284.6875 310.28125 284.820312 309.363281 285.082031 C 308.445312 285.34375 307.582031 285.726562 306.769531 286.230469 C 305.960938 286.734375 305.234375 287.339844 304.589844 288.046875 C 303.949219 288.753906 303.417969 289.535156 302.996094 290.390625 L 298.253906 299.992188 C 298.160156 300.179688 298.011719 300.289062 297.804688 300.316406 L 287.195312 301.859375 C 286.253906 302 285.347656 302.265625 284.476562 302.65625 C 283.609375 303.046875 282.8125 303.550781 282.082031 304.167969 C 281.355469 304.78125 280.722656 305.484375 280.191406 306.277344 C 279.660156 307.066406 279.246094 307.914062 278.953125 308.820312 C 278.660156 309.726562 278.496094 310.65625 278.460938 311.609375 C 278.425781 312.5625 278.523438 313.5 278.75 314.425781 C 278.976562 315.351562 279.328125 316.226562 279.800781 317.054688 C 280.273438 317.882812 280.851562 318.628906 281.535156 319.292969 L 289.207031 326.769531 C 289.355469 326.914062 289.414062 327.089844 289.378906 327.296875 L 287.566406 337.847656 C 287.402344 338.789062 287.371094 339.738281 287.46875 340.6875 C 287.570312 341.636719 287.800781 342.554688 288.160156 343.441406 C 288.515625 344.328125 288.992188 345.148438 289.578125 345.902344 C 290.167969 346.652344 290.847656 347.3125 291.621094 347.875 C 292.394531 348.4375 293.230469 348.878906 294.128906 349.207031 C 295.027344 349.535156 295.957031 349.734375 296.910156 349.800781 C 297.863281 349.867188 298.808594 349.804688 299.746094 349.605469 C 300.679688 349.410156 301.570312 349.085938 302.417969 348.640625 L 311.902344 343.65625 C 312.085938 343.5625 312.269531 343.566406 312.453125 343.660156 Z M 307.410156 335.132812 L 297.925781 340.105469 C 297.707031 340.21875 297.496094 340.203125 297.296875 340.058594 C 297.097656 339.914062 297.019531 339.71875 297.0625 339.476562 L 298.871094 328.921875 C 299.011719 328.105469 299.050781 327.285156 298.992188 326.457031 C 298.933594 325.628906 298.773438 324.820312 298.519531 324.03125 C 298.261719 323.242188 297.914062 322.496094 297.476562 321.792969 C 297.039062 321.085938 296.519531 320.445312 295.925781 319.867188 L 288.253906 312.390625 C 288.078125 312.21875 288.027344 312.015625 288.101562 311.78125 C 288.179688 311.546875 288.339844 311.414062 288.582031 311.378906 L 299.191406 309.835938 C 300.011719 309.71875 300.804688 309.503906 301.574219 309.191406 C 302.34375 308.878906 303.066406 308.480469 303.738281 307.992188 C 304.410156 307.507812 305.011719 306.945312 305.546875 306.3125 C 306.082031 305.679688 306.535156 304.992188 306.902344 304.246094 L 311.644531 294.644531 C 311.753906 294.425781 311.933594 294.3125 312.179688 294.3125 C 312.425781 294.3125 312.605469 294.425781 312.714844 294.644531 L 317.457031 304.246094 C 317.824219 304.992188 318.277344 305.679688 318.8125 306.3125 C 319.347656 306.945312 319.949219 307.507812 320.621094 307.992188 C 321.292969 308.480469 322.015625 308.878906 322.785156 309.191406 C 323.554688 309.503906 324.347656 309.71875 325.167969 309.835938 L 335.777344 311.378906 C 336.019531 311.414062 336.179688 311.546875 336.257812 311.78125 C 336.332031 312.015625 336.28125 312.21875 336.105469 312.390625 L 328.421875 319.871094 C 327.824219 320.453125 327.308594 321.09375 326.871094 321.796875 C 326.433594 322.503906 326.085938 323.25 325.828125 324.039062 C 325.574219 324.828125 325.414062 325.636719 325.355469 326.460938 C 325.296875 327.289062 325.335938 328.113281 325.476562 328.929688 L 327.285156 339.484375 C 327.328125 339.726562 327.25 339.921875 327.050781 340.066406 C 326.851562 340.210938 326.640625 340.226562 326.421875 340.113281 L 316.9375 335.128906 C 316.203125 334.742188 315.433594 334.449219 314.625 334.253906 C 313.820312 334.054688 313.003906 333.957031 312.171875 333.957031 C 311.34375 333.957031 310.527344 334.054688 309.71875 334.253906 C 308.914062 334.453125 308.144531 334.746094 307.410156 335.132812 Z M 307.410156 335.132812 " fill-opacity="1" fill-rule="nonzero"/></svg>